<?xml version="1.0" encoding="UTF-8" standalone="no"?>
<!DOCTYPE svg PUBLIC "-//W3C//DTD SVG 1.1//EN"
 "http://www.w3.org/Graphics/SVG/1.1/DTD/svg11.dtd">
<!-- Generated by graphviz version 2.43.0 (0)
 -->
<!-- Title: /__w/pairinteraction/pairinteraction/pairinteraction/ConfParser.hpp Pages: 1 -->
<svg width="2188pt" height="518pt"
 viewBox="0.00 0.00 2187.50 518.00" xmlns="http://www.w3.org/2000/svg" xmlns:xlink="http://www.w3.org/1999/xlink">
<g id="graph0" class="graph" transform="scale(1 1) rotate(0) translate(4 514)">
<title>/__w/pairinteraction/pairinteraction/pairinteraction/ConfParser.hpp</title>
<!-- Node1 -->
<g id="node1" class="node">
<title>Node1</title>
<g id="a_node1"><a xlink:title=" ">
<polygon fill="#bfbfbf" stroke="black" points="1699.5,-468.5 1699.5,-509.5 1864.5,-509.5 1864.5,-468.5 1699.5,-468.5"/>
<text text-anchor="start" x="1707.5" y="-497.5" font-family="Helvetica,sans-Serif" font-size="10.00">/__w/pairinteraction</text>
<text text-anchor="start" x="1707.5" y="-486.5" font-family="Helvetica,sans-Serif" font-size="10.00">/pairinteraction/pairinteraction</text>
<text text-anchor="middle" x="1782" y="-475.5" font-family="Helvetica,sans-Serif" font-size="10.00">/ConfParser.hpp</text>
</a>
</g>
</g>
<!-- Node2 -->
<g id="node2" class="node">
<title>Node2</title>
<g id="a_node2"><a xlink:href="Basisnames_8hpp.html" target="_top" xlink:title=" ">
<polygon fill="none" stroke="black" points="1237.5,-390.5 1237.5,-431.5 1402.5,-431.5 1402.5,-390.5 1237.5,-390.5"/>
<text text-anchor="start" x="1245.5" y="-419.5" font-family="Helvetica,sans-Serif" font-size="10.00">/__w/pairinteraction</text>
<text text-anchor="start" x="1245.5" y="-408.5" font-family="Helvetica,sans-Serif" font-size="10.00">/pairinteraction/pairinteraction</text>
<text text-anchor="middle" x="1320" y="-397.5" font-family="Helvetica,sans-Serif" font-size="10.00">/Basisnames.hpp</text>
</a>
</g>
</g>
<!-- Node1&#45;&gt;Node2 -->
<g id="edge1" class="edge">
<title>Node1&#45;&gt;Node2</title>
<path fill="none" stroke="midnightblue" d="M1689.38,-472.76C1605.56,-458.97 1483.24,-438.85 1402.66,-425.6"/>
<polygon fill="midnightblue" stroke="midnightblue" points="1688.97,-476.24 1699.4,-474.41 1690.1,-469.34 1688.97,-476.24"/>
</g>
<!-- Node6 -->
<g id="node6" class="node">
<title>Node6</title>
<g id="a_node6"><a xlink:href="HamiltonianOne_8hpp.html" target="_top" xlink:title=" ">
<polygon fill="none" stroke="black" points="1531.5,-156.5 1531.5,-197.5 1696.5,-197.5 1696.5,-156.5 1531.5,-156.5"/>
<text text-anchor="start" x="1539.5" y="-185.5" font-family="Helvetica,sans-Serif" font-size="10.00">/__w/pairinteraction</text>
<text text-anchor="start" x="1539.5" y="-174.5" font-family="Helvetica,sans-Serif" font-size="10.00">/pairinteraction/pairinteraction</text>
<text text-anchor="middle" x="1614" y="-163.5" font-family="Helvetica,sans-Serif" font-size="10.00">/HamiltonianOne.hpp</text>
</a>
</g>
</g>
<!-- Node1&#45;&gt;Node6 -->
<g id="edge28" class="edge">
<title>Node1&#45;&gt;Node6</title>
<path fill="none" stroke="midnightblue" d="M1782.8,-458.44C1782.67,-407.3 1775.49,-301.33 1723,-234 1710.51,-217.98 1692.17,-206.12 1674.08,-197.54"/>
<polygon fill="midnightblue" stroke="midnightblue" points="1779.3,-458.47 1782.74,-468.49 1786.3,-458.51 1779.3,-458.47"/>
</g>
<!-- Node8 -->
<g id="node8" class="node">
<title>Node8</title>
<g id="a_node8"><a xlink:href="HamiltonianTwo_8hpp.html" target="_top" xlink:title=" ">
<polygon fill="none" stroke="black" points="1265.5,-78.5 1265.5,-119.5 1430.5,-119.5 1430.5,-78.5 1265.5,-78.5"/>
<text text-anchor="start" x="1273.5" y="-107.5" font-family="Helvetica,sans-Serif" font-size="10.00">/__w/pairinteraction</text>
<text text-anchor="start" x="1273.5" y="-96.5" font-family="Helvetica,sans-Serif" font-size="10.00">/pairinteraction/pairinteraction</text>
<text text-anchor="middle" x="1348" y="-85.5" font-family="Helvetica,sans-Serif" font-size="10.00">/HamiltonianTwo.hpp</text>
</a>
</g>
</g>
<!-- Node1&#45;&gt;Node8 -->
<g id="edge29" class="edge">
<title>Node1&#45;&gt;Node8</title>
<path fill="none" stroke="midnightblue" d="M1689.31,-484.9C1323.5,-472.05 0,-419.64 0,-334 0,-334 0,-334 0,-254 0,-125.96 972.48,-104.33 1265.45,-100.71"/>
<polygon fill="midnightblue" stroke="midnightblue" points="1689.21,-488.39 1699.33,-485.25 1689.46,-481.4 1689.21,-488.39"/>
</g>
<!-- Node10 -->
<g id="node10" class="node">
<title>Node10</title>
<g id="a_node10"><a xlink:href="Interface_8cpp.html" target="_top" xlink:title=" ">
<polygon fill="none" stroke="black" points="1587.5,-0.5 1587.5,-41.5 1752.5,-41.5 1752.5,-0.5 1587.5,-0.5"/>
<text text-anchor="start" x="1595.5" y="-29.5" font-family="Helvetica,sans-Serif" font-size="10.00">/__w/pairinteraction</text>
<text text-anchor="start" x="1595.5" y="-18.5" font-family="Helvetica,sans-Serif" font-size="10.00">/pairinteraction/pairinteraction</text>
<text text-anchor="middle" x="1670" y="-7.5" font-family="Helvetica,sans-Serif" font-size="10.00">/Interface.cpp</text>
</a>
</g>
</g>
<!-- Node1&#45;&gt;Node10 -->
<g id="edge30" class="edge">
<title>Node1&#45;&gt;Node10</title>
<path fill="none" stroke="midnightblue" d="M1787.91,-458.04C1793.48,-427.11 1801,-377.38 1801,-334 1801,-334 1801,-334 1801,-176 1801,-115.8 1742.21,-67.15 1703.4,-41.58"/>
<polygon fill="midnightblue" stroke="midnightblue" points="1784.41,-457.69 1786.03,-468.16 1791.29,-458.97 1784.41,-457.69"/>
</g>
<!-- Node22 -->
<g id="node22" class="node">
<title>Node22</title>
<g id="a_node22"><a xlink:href="ConfParser_8cpp.html" target="_top" xlink:title=" ">
<polygon fill="none" stroke="black" points="1829.5,-390.5 1829.5,-431.5 1994.5,-431.5 1994.5,-390.5 1829.5,-390.5"/>
<text text-anchor="start" x="1837.5" y="-419.5" font-family="Helvetica,sans-Serif" font-size="10.00">/__w/pairinteraction</text>
<text text-anchor="start" x="1837.5" y="-408.5" font-family="Helvetica,sans-Serif" font-size="10.00">/pairinteraction/pairinteraction</text>
<text text-anchor="middle" x="1912" y="-397.5" font-family="Helvetica,sans-Serif" font-size="10.00">/ConfParser.cpp</text>
</a>
</g>
</g>
<!-- Node1&#45;&gt;Node22 -->
<g id="edge27" class="edge">
<title>Node1&#45;&gt;Node22</title>
<path fill="none" stroke="midnightblue" d="M1824.42,-463.2C1842.01,-452.92 1862.12,-441.16 1878.64,-431.51"/>
<polygon fill="midnightblue" stroke="midnightblue" points="1822.34,-460.36 1815.48,-468.43 1825.88,-466.4 1822.34,-460.36"/>
</g>
<!-- Node23 -->
<g id="node23" class="node">
<title>Node23</title>
<g id="a_node23"><a xlink:href="conf__parser__test_8cpp.html" target="_top" xlink:title=" ">
<polygon fill="none" stroke="black" points="2012.5,-390.5 2012.5,-431.5 2179.5,-431.5 2179.5,-390.5 2012.5,-390.5"/>
<text text-anchor="start" x="2020.5" y="-419.5" font-family="Helvetica,sans-Serif" font-size="10.00">/__w/pairinteraction</text>
<text text-anchor="start" x="2020.5" y="-408.5" font-family="Helvetica,sans-Serif" font-size="10.00">/pairinteraction/pairinteraction</text>
<text text-anchor="middle" x="2096" y="-397.5" font-family="Helvetica,sans-Serif" font-size="10.00">/unit_test/conf_parser_test.cpp</text>
</a>
</g>
</g>
<!-- Node1&#45;&gt;Node23 -->
<g id="edge31" class="edge">
<title>Node1&#45;&gt;Node23</title>
<path fill="none" stroke="midnightblue" d="M1872.64,-466.06C1917.73,-455.15 1971.78,-442.07 2015.41,-431.51"/>
<polygon fill="midnightblue" stroke="midnightblue" points="1871.76,-462.67 1862.86,-468.43 1873.41,-469.48 1871.76,-462.67"/>
</g>
<!-- Node3 -->
<g id="node3" class="node">
<title>Node3</title>
<g id="a_node3"><a xlink:href="Basisnames_8cpp.html" target="_top" xlink:title=" ">
<polygon fill="none" stroke="black" points="1126.5,-312.5 1126.5,-353.5 1291.5,-353.5 1291.5,-312.5 1126.5,-312.5"/>
<text text-anchor="start" x="1134.5" y="-341.5" font-family="Helvetica,sans-Serif" font-size="10.00">/__w/pairinteraction</text>
<text text-anchor="start" x="1134.5" y="-330.5" font-family="Helvetica,sans-Serif" font-size="10.00">/pairinteraction/pairinteraction</text>
<text text-anchor="middle" x="1209" y="-319.5" font-family="Helvetica,sans-Serif" font-size="10.00">/Basisnames.cpp</text>
</a>
</g>
</g>
<!-- Node2&#45;&gt;Node3 -->
<g id="edge2" class="edge">
<title>Node2&#45;&gt;Node3</title>
<path fill="none" stroke="midnightblue" d="M1282.95,-384.64C1268.13,-374.49 1251.33,-362.98 1237.49,-353.51"/>
<polygon fill="midnightblue" stroke="midnightblue" points="1281.19,-387.67 1291.41,-390.43 1285.14,-381.89 1281.19,-387.67"/>
</g>
<!-- Node4 -->
<g id="node4" class="node">
<title>Node4</title>
<g id="a_node4"><a xlink:href="Hamiltonianmatrix_8hpp.html" target="_top" xlink:title=" ">
<polygon fill="none" stroke="black" points="1348.5,-312.5 1348.5,-353.5 1513.5,-353.5 1513.5,-312.5 1348.5,-312.5"/>
<text text-anchor="start" x="1356.5" y="-341.5" font-family="Helvetica,sans-Serif" font-size="10.00">/__w/pairinteraction</text>
<text text-anchor="start" x="1356.5" y="-330.5" font-family="Helvetica,sans-Serif" font-size="10.00">/pairinteraction/pairinteraction</text>
<text text-anchor="middle" x="1431" y="-319.5" font-family="Helvetica,sans-Serif" font-size="10.00">/Hamiltonianmatrix.hpp</text>
</a>
</g>
</g>
<!-- Node2&#45;&gt;Node4 -->
<g id="edge3" class="edge">
<title>Node2&#45;&gt;Node4</title>
<path fill="none" stroke="midnightblue" d="M1357.05,-384.64C1371.87,-374.49 1388.67,-362.98 1402.51,-353.51"/>
<polygon fill="midnightblue" stroke="midnightblue" points="1354.86,-381.89 1348.59,-390.43 1358.81,-387.67 1354.86,-381.89"/>
</g>
<!-- Node2&#45;&gt;Node6 -->
<g id="edge13" class="edge">
<title>Node2&#45;&gt;Node6</title>
<path fill="none" stroke="midnightblue" d="M1412.82,-407.8C1505.43,-399.96 1642.77,-371.69 1706,-276 1716.29,-260.43 1715.15,-250.27 1706,-234 1697.11,-218.19 1681.75,-206.32 1666.1,-197.67"/>
<polygon fill="midnightblue" stroke="midnightblue" points="1412.3,-404.33 1402.6,-408.6 1412.84,-411.31 1412.3,-404.33"/>
</g>
<!-- Node2&#45;&gt;Node8 -->
<g id="edge14" class="edge">
<title>Node2&#45;&gt;Node8</title>
<path fill="none" stroke="midnightblue" d="M1322.7,-380.06C1328.39,-317.1 1341.46,-172.44 1346.22,-119.7"/>
<polygon fill="midnightblue" stroke="midnightblue" points="1319.21,-379.86 1321.79,-390.14 1326.18,-380.49 1319.21,-379.86"/>
</g>
<!-- Node12 -->
<g id="node12" class="node">
<title>Node12</title>
<g id="a_node12"><a xlink:href="MatrixElementCache_8hpp.html" target="_top" xlink:title=" ">
<polygon fill="none" stroke="black" points="577.5,-312.5 577.5,-353.5 742.5,-353.5 742.5,-312.5 577.5,-312.5"/>
<text text-anchor="start" x="585.5" y="-341.5" font-family="Helvetica,sans-Serif" font-size="10.00">/__w/pairinteraction</text>
<text text-anchor="start" x="585.5" y="-330.5" font-family="Helvetica,sans-Serif" font-size="10.00">/pairinteraction/pairinteraction</text>
<text text-anchor="middle" x="660" y="-319.5" font-family="Helvetica,sans-Serif" font-size="10.00">/MatrixElementCache.hpp</text>
</a>
</g>
</g>
<!-- Node2&#45;&gt;Node12 -->
<g id="edge15" class="edge">
<title>Node2&#45;&gt;Node12</title>
<path fill="none" stroke="midnightblue" d="M1227.15,-399.31C1098.01,-384.44 866.15,-357.74 742.68,-343.52"/>
<polygon fill="midnightblue" stroke="midnightblue" points="1227.08,-402.82 1237.41,-400.49 1227.88,-395.87 1227.08,-402.82"/>
</g>
<!-- Node20 -->
<g id="node20" class="node">
<title>Node20</title>
<g id="a_node20"><a xlink:href="MatrixElements_8hpp.html" target="_top" xlink:title=" ">
<polygon fill="none" stroke="black" points="1126.5,-234.5 1126.5,-275.5 1291.5,-275.5 1291.5,-234.5 1126.5,-234.5"/>
<text text-anchor="start" x="1134.5" y="-263.5" font-family="Helvetica,sans-Serif" font-size="10.00">/__w/pairinteraction</text>
<text text-anchor="start" x="1134.5" y="-252.5" font-family="Helvetica,sans-Serif" font-size="10.00">/pairinteraction/pairinteraction</text>
<text text-anchor="middle" x="1209" y="-241.5" font-family="Helvetica,sans-Serif" font-size="10.00">/MatrixElements.hpp</text>
</a>
</g>
</g>
<!-- Node2&#45;&gt;Node20 -->
<g id="edge23" class="edge">
<title>Node2&#45;&gt;Node20</title>
<path fill="none" stroke="midnightblue" d="M1227.41,-395.47C1181.06,-386.11 1131.88,-372.25 1118,-354 1106.7,-339.14 1108.89,-328.3 1118,-312 1126.87,-296.13 1142.28,-284.2 1157.93,-275.53"/>
<polygon fill="midnightblue" stroke="midnightblue" points="1226.76,-398.91 1237.24,-397.4 1228.1,-392.04 1226.76,-398.91"/>
</g>
<!-- Node5 -->
<g id="node5" class="node">
<title>Node5</title>
<g id="a_node5"><a xlink:href="Hamiltonian_8hpp.html" target="_top" xlink:title=" ">
<polygon fill="none" stroke="black" points="1531.5,-234.5 1531.5,-275.5 1696.5,-275.5 1696.5,-234.5 1531.5,-234.5"/>
<text text-anchor="start" x="1539.5" y="-263.5" font-family="Helvetica,sans-Serif" font-size="10.00">/__w/pairinteraction</text>
<text text-anchor="start" x="1539.5" y="-252.5" font-family="Helvetica,sans-Serif" font-size="10.00">/pairinteraction/pairinteraction</text>
<text text-anchor="middle" x="1614" y="-241.5" font-family="Helvetica,sans-Serif" font-size="10.00">/Hamiltonian.hpp</text>
</a>
</g>
</g>
<!-- Node4&#45;&gt;Node5 -->
<g id="edge4" class="edge">
<title>Node4&#45;&gt;Node5</title>
<path fill="none" stroke="midnightblue" d="M1487.66,-308.47C1513.13,-297.89 1542.83,-285.56 1567.03,-275.51"/>
<polygon fill="midnightblue" stroke="midnightblue" points="1486.02,-305.36 1478.13,-312.43 1488.7,-311.82 1486.02,-305.36"/>
</g>
<!-- Node11 -->
<g id="node11" class="node">
<title>Node11</title>
<g id="a_node11"><a xlink:href="Hamiltonianmatrix_8cpp.html" target="_top" xlink:title=" ">
<polygon fill="none" stroke="black" points="1348.5,-234.5 1348.5,-275.5 1513.5,-275.5 1513.5,-234.5 1348.5,-234.5"/>
<text text-anchor="start" x="1356.5" y="-263.5" font-family="Helvetica,sans-Serif" font-size="10.00">/__w/pairinteraction</text>
<text text-anchor="start" x="1356.5" y="-252.5" font-family="Helvetica,sans-Serif" font-size="10.00">/pairinteraction/pairinteraction</text>
<text text-anchor="middle" x="1431" y="-241.5" font-family="Helvetica,sans-Serif" font-size="10.00">/Hamiltonianmatrix.cpp</text>
</a>
</g>
</g>
<!-- Node4&#45;&gt;Node11 -->
<g id="edge12" class="edge">
<title>Node4&#45;&gt;Node11</title>
<path fill="none" stroke="midnightblue" d="M1431,-302.3C1431,-293.3 1431,-283.65 1431,-275.51"/>
<polygon fill="midnightblue" stroke="midnightblue" points="1427.5,-302.43 1431,-312.43 1434.5,-302.43 1427.5,-302.43"/>
</g>
<!-- Node5&#45;&gt;Node6 -->
<g id="edge5" class="edge">
<title>Node5&#45;&gt;Node6</title>
<path fill="none" stroke="midnightblue" d="M1614,-224.3C1614,-215.3 1614,-205.65 1614,-197.51"/>
<polygon fill="midnightblue" stroke="midnightblue" points="1610.5,-224.43 1614,-234.43 1617.5,-224.43 1610.5,-224.43"/>
</g>
<!-- Node5&#45;&gt;Node8 -->
<g id="edge11" class="edge">
<title>Node5&#45;&gt;Node8</title>
<path fill="none" stroke="midnightblue" d="M1571.55,-229.42C1518.88,-198.93 1430.15,-147.56 1381.83,-119.59"/>
<polygon fill="midnightblue" stroke="midnightblue" points="1569.9,-232.51 1580.31,-234.5 1573.41,-226.46 1569.9,-232.51"/>
</g>
<!-- Node7 -->
<g id="node7" class="node">
<title>Node7</title>
<g id="a_node7"><a xlink:href="HamiltonianOne_8cpp.html" target="_top" xlink:title=" ">
<polygon fill="none" stroke="black" points="1476.5,-78.5 1476.5,-119.5 1641.5,-119.5 1641.5,-78.5 1476.5,-78.5"/>
<text text-anchor="start" x="1484.5" y="-107.5" font-family="Helvetica,sans-Serif" font-size="10.00">/__w/pairinteraction</text>
<text text-anchor="start" x="1484.5" y="-96.5" font-family="Helvetica,sans-Serif" font-size="10.00">/pairinteraction/pairinteraction</text>
<text text-anchor="middle" x="1559" y="-85.5" font-family="Helvetica,sans-Serif" font-size="10.00">/HamiltonianOne.cpp</text>
</a>
</g>
</g>
<!-- Node6&#45;&gt;Node7 -->
<g id="edge6" class="edge">
<title>Node6&#45;&gt;Node7</title>
<path fill="none" stroke="midnightblue" d="M1593.77,-148.05C1586.91,-138.57 1579.4,-128.18 1573.12,-119.51"/>
<polygon fill="midnightblue" stroke="midnightblue" points="1591.14,-150.38 1599.84,-156.43 1596.81,-146.27 1591.14,-150.38"/>
</g>
<!-- Node6&#45;&gt;Node8 -->
<g id="edge7" class="edge">
<title>Node6&#45;&gt;Node8</title>
<path fill="none" stroke="midnightblue" d="M1535.53,-153.58C1497.68,-142.76 1452.69,-129.91 1416.27,-119.51"/>
<polygon fill="midnightblue" stroke="midnightblue" points="1534.92,-157.05 1545.5,-156.43 1536.84,-150.32 1534.92,-157.05"/>
</g>
<!-- Node6&#45;&gt;Node10 -->
<g id="edge10" class="edge">
<title>Node6&#45;&gt;Node10</title>
<path fill="none" stroke="midnightblue" d="M1635.5,-148.14C1641.29,-139.51 1647.04,-129.71 1651,-120 1661.55,-94.17 1666.34,-62.07 1668.45,-41.8"/>
<polygon fill="midnightblue" stroke="midnightblue" points="1632.63,-146.14 1629.76,-156.34 1638.36,-150.16 1632.63,-146.14"/>
</g>
<!-- Node9 -->
<g id="node9" class="node">
<title>Node9</title>
<g id="a_node9"><a xlink:href="HamiltonianTwo_8cpp.html" target="_top" xlink:title=" ">
<polygon fill="none" stroke="black" points="1265.5,-0.5 1265.5,-41.5 1430.5,-41.5 1430.5,-0.5 1265.5,-0.5"/>
<text text-anchor="start" x="1273.5" y="-29.5" font-family="Helvetica,sans-Serif" font-size="10.00">/__w/pairinteraction</text>
<text text-anchor="start" x="1273.5" y="-18.5" font-family="Helvetica,sans-Serif" font-size="10.00">/pairinteraction/pairinteraction</text>
<text text-anchor="middle" x="1348" y="-7.5" font-family="Helvetica,sans-Serif" font-size="10.00">/HamiltonianTwo.cpp</text>
</a>
</g>
</g>
<!-- Node8&#45;&gt;Node9 -->
<g id="edge8" class="edge">
<title>Node8&#45;&gt;Node9</title>
<path fill="none" stroke="midnightblue" d="M1348,-68.3C1348,-59.3 1348,-49.65 1348,-41.51"/>
<polygon fill="midnightblue" stroke="midnightblue" points="1344.5,-68.43 1348,-78.43 1351.5,-68.43 1344.5,-68.43"/>
</g>
<!-- Node8&#45;&gt;Node10 -->
<g id="edge9" class="edge">
<title>Node8&#45;&gt;Node10</title>
<path fill="none" stroke="midnightblue" d="M1440.26,-76.22C1486.66,-65.27 1542.45,-52.1 1587.43,-41.49"/>
<polygon fill="midnightblue" stroke="midnightblue" points="1439.43,-72.82 1430.5,-78.53 1441.04,-79.64 1439.43,-72.82"/>
</g>
<!-- Node13 -->
<g id="node13" class="node">
<title>Node13</title>
<g id="a_node13"><a xlink:href="MatrixElementCache_8cpp.html" target="_top" xlink:title=" ">
<polygon fill="none" stroke="black" points="211.5,-234.5 211.5,-275.5 376.5,-275.5 376.5,-234.5 211.5,-234.5"/>
<text text-anchor="start" x="219.5" y="-263.5" font-family="Helvetica,sans-Serif" font-size="10.00">/__w/pairinteraction</text>
<text text-anchor="start" x="219.5" y="-252.5" font-family="Helvetica,sans-Serif" font-size="10.00">/pairinteraction/pairinteraction</text>
<text text-anchor="middle" x="294" y="-241.5" font-family="Helvetica,sans-Serif" font-size="10.00">/MatrixElementCache.cpp</text>
</a>
</g>
</g>
<!-- Node12&#45;&gt;Node13 -->
<g id="edge16" class="edge">
<title>Node12&#45;&gt;Node13</title>
<path fill="none" stroke="midnightblue" d="M567.08,-313.45C513.75,-302.71 445.57,-288.82 385,-276 382.31,-275.43 379.58,-274.85 376.81,-274.26"/>
<polygon fill="midnightblue" stroke="midnightblue" points="566.71,-316.94 577.2,-315.49 568.09,-310.08 566.71,-316.94"/>
</g>
<!-- Node14 -->
<g id="node14" class="node">
<title>Node14</title>
<g id="a_node14"><a xlink:href="PerturbativeInteraction_8hpp.html" target="_top" xlink:title=" ">
<polygon fill="none" stroke="black" points="394.5,-234.5 394.5,-275.5 559.5,-275.5 559.5,-234.5 394.5,-234.5"/>
<text text-anchor="start" x="402.5" y="-263.5" font-family="Helvetica,sans-Serif" font-size="10.00">/__w/pairinteraction</text>
<text text-anchor="start" x="402.5" y="-252.5" font-family="Helvetica,sans-Serif" font-size="10.00">/pairinteraction/pairinteraction</text>
<text text-anchor="middle" x="477" y="-241.5" font-family="Helvetica,sans-Serif" font-size="10.00">/PerturbativeInteraction.hpp</text>
</a>
</g>
</g>
<!-- Node12&#45;&gt;Node14 -->
<g id="edge17" class="edge">
<title>Node12&#45;&gt;Node14</title>
<path fill="none" stroke="midnightblue" d="M603.34,-308.47C577.87,-297.89 548.17,-285.56 523.97,-275.51"/>
<polygon fill="midnightblue" stroke="midnightblue" points="602.3,-311.82 612.87,-312.43 604.98,-305.36 602.3,-311.82"/>
</g>
<!-- Node16 -->
<g id="node16" class="node">
<title>Node16</title>
<g id="a_node16"><a xlink:href="State_8cpp.html" target="_top" xlink:title=" ">
<polygon fill="none" stroke="black" points="577.5,-234.5 577.5,-275.5 742.5,-275.5 742.5,-234.5 577.5,-234.5"/>
<text text-anchor="start" x="585.5" y="-263.5" font-family="Helvetica,sans-Serif" font-size="10.00">/__w/pairinteraction</text>
<text text-anchor="start" x="585.5" y="-252.5" font-family="Helvetica,sans-Serif" font-size="10.00">/pairinteraction/pairinteraction</text>
<text text-anchor="middle" x="660" y="-241.5" font-family="Helvetica,sans-Serif" font-size="10.00">/State.cpp</text>
</a>
</g>
</g>
<!-- Node12&#45;&gt;Node16 -->
<g id="edge19" class="edge">
<title>Node12&#45;&gt;Node16</title>
<path fill="none" stroke="midnightblue" d="M660,-302.3C660,-293.3 660,-283.65 660,-275.51"/>
<polygon fill="midnightblue" stroke="midnightblue" points="656.5,-302.43 660,-312.43 663.5,-302.43 656.5,-302.43"/>
</g>
<!-- Node17 -->
<g id="node17" class="node">
<title>Node17</title>
<g id="a_node17"><a xlink:href="SystemOne_8cpp.html" target="_top" xlink:title=" ">
<polygon fill="none" stroke="black" points="760.5,-234.5 760.5,-275.5 925.5,-275.5 925.5,-234.5 760.5,-234.5"/>
<text text-anchor="start" x="768.5" y="-263.5" font-family="Helvetica,sans-Serif" font-size="10.00">/__w/pairinteraction</text>
<text text-anchor="start" x="768.5" y="-252.5" font-family="Helvetica,sans-Serif" font-size="10.00">/pairinteraction/pairinteraction</text>
<text text-anchor="middle" x="843" y="-241.5" font-family="Helvetica,sans-Serif" font-size="10.00">/SystemOne.cpp</text>
</a>
</g>
</g>
<!-- Node12&#45;&gt;Node17 -->
<g id="edge20" class="edge">
<title>Node12&#45;&gt;Node17</title>
<path fill="none" stroke="midnightblue" d="M716.66,-308.47C742.13,-297.89 771.83,-285.56 796.03,-275.51"/>
<polygon fill="midnightblue" stroke="midnightblue" points="715.02,-305.36 707.13,-312.43 717.7,-311.82 715.02,-305.36"/>
</g>
<!-- Node18 -->
<g id="node18" class="node">
<title>Node18</title>
<g id="a_node18"><a xlink:href="SystemTwo_8cpp.html" target="_top" xlink:title=" ">
<polygon fill="none" stroke="black" points="943.5,-234.5 943.5,-275.5 1108.5,-275.5 1108.5,-234.5 943.5,-234.5"/>
<text text-anchor="start" x="951.5" y="-263.5" font-family="Helvetica,sans-Serif" font-size="10.00">/__w/pairinteraction</text>
<text text-anchor="start" x="951.5" y="-252.5" font-family="Helvetica,sans-Serif" font-size="10.00">/pairinteraction/pairinteraction</text>
<text text-anchor="middle" x="1026" y="-241.5" font-family="Helvetica,sans-Serif" font-size="10.00">/SystemTwo.cpp</text>
</a>
</g>
</g>
<!-- Node12&#45;&gt;Node18 -->
<g id="edge21" class="edge">
<title>Node12&#45;&gt;Node18</title>
<path fill="none" stroke="midnightblue" d="M752.92,-313.45C806.25,-302.71 874.43,-288.82 935,-276 937.69,-275.43 940.42,-274.85 943.19,-274.26"/>
<polygon fill="midnightblue" stroke="midnightblue" points="751.91,-310.08 742.8,-315.49 753.29,-316.94 751.91,-310.08"/>
</g>
<!-- Node19 -->
<g id="node19" class="node">
<title>Node19</title>
<g id="a_node19"><a xlink:href="integration__test_8cpp.html" target="_top" xlink:title=" ">
<polygon fill="none" stroke="black" points="28.5,-234.5 28.5,-275.5 193.5,-275.5 193.5,-234.5 28.5,-234.5"/>
<text text-anchor="start" x="36.5" y="-263.5" font-family="Helvetica,sans-Serif" font-size="10.00">/__w/pairinteraction</text>
<text text-anchor="start" x="36.5" y="-252.5" font-family="Helvetica,sans-Serif" font-size="10.00">/pairinteraction/pairinteraction</text>
<text text-anchor="middle" x="111" y="-241.5" font-family="Helvetica,sans-Serif" font-size="10.00">/unit_test/integration_test.cpp</text>
</a>
</g>
</g>
<!-- Node12&#45;&gt;Node19 -->
<g id="edge22" class="edge">
<title>Node12&#45;&gt;Node19</title>
<path fill="none" stroke="midnightblue" d="M567.13,-323.25C474.34,-313.89 327.77,-297.46 202,-276 199.29,-275.54 196.54,-275.05 193.76,-274.54"/>
<polygon fill="midnightblue" stroke="midnightblue" points="567.04,-326.76 577.34,-324.27 567.73,-319.79 567.04,-326.76"/>
</g>
<!-- Node15 -->
<g id="node15" class="node">
<title>Node15</title>
<g id="a_node15"><a xlink:href="PerturbativeInteraction_8cpp.html" target="_top" xlink:title=" ">
<polygon fill="none" stroke="black" points="394.5,-156.5 394.5,-197.5 559.5,-197.5 559.5,-156.5 394.5,-156.5"/>
<text text-anchor="start" x="402.5" y="-185.5" font-family="Helvetica,sans-Serif" font-size="10.00">/__w/pairinteraction</text>
<text text-anchor="start" x="402.5" y="-174.5" font-family="Helvetica,sans-Serif" font-size="10.00">/pairinteraction/pairinteraction</text>
<text text-anchor="middle" x="477" y="-163.5" font-family="Helvetica,sans-Serif" font-size="10.00">/PerturbativeInteraction.cpp</text>
</a>
</g>
</g>
<!-- Node14&#45;&gt;Node15 -->
<g id="edge18" class="edge">
<title>Node14&#45;&gt;Node15</title>
<path fill="none" stroke="midnightblue" d="M477,-224.3C477,-215.3 477,-205.65 477,-197.51"/>
<polygon fill="midnightblue" stroke="midnightblue" points="473.5,-224.43 477,-234.43 480.5,-224.43 473.5,-224.43"/>
</g>
<!-- Node20&#45;&gt;Node6 -->
<g id="edge24" class="edge">
<title>Node20&#45;&gt;Node6</title>
<path fill="none" stroke="midnightblue" d="M1301.95,-236.56C1371.09,-223.58 1464.59,-206.04 1531.18,-193.54"/>
<polygon fill="midnightblue" stroke="midnightblue" points="1301.12,-233.15 1291.94,-238.44 1302.41,-240.03 1301.12,-233.15"/>
</g>
<!-- Node20&#45;&gt;Node8 -->
<g id="edge25" class="edge">
<title>Node20&#45;&gt;Node8</title>
<path fill="none" stroke="midnightblue" d="M1149.19,-229.24C1136.73,-221.18 1125.21,-210.89 1118,-198 1108.89,-181.7 1106.47,-170.68 1118,-156 1136.31,-132.69 1207.01,-117.87 1265.25,-109.37"/>
<polygon fill="midnightblue" stroke="midnightblue" points="1147.55,-232.34 1157.93,-234.47 1151.15,-226.33 1147.55,-232.34"/>
</g>
<!-- Node21 -->
<g id="node21" class="node">
<title>Node21</title>
<g id="a_node21"><a xlink:href="MatrixElements_8cpp.html" target="_top" xlink:title=" ">
<polygon fill="none" stroke="black" points="1126.5,-156.5 1126.5,-197.5 1291.5,-197.5 1291.5,-156.5 1126.5,-156.5"/>
<text text-anchor="start" x="1134.5" y="-185.5" font-family="Helvetica,sans-Serif" font-size="10.00">/__w/pairinteraction</text>
<text text-anchor="start" x="1134.5" y="-174.5" font-family="Helvetica,sans-Serif" font-size="10.00">/pairinteraction/pairinteraction</text>
<text text-anchor="middle" x="1209" y="-163.5" font-family="Helvetica,sans-Serif" font-size="10.00">/MatrixElements.cpp</text>
</a>
</g>
</g>
<!-- Node20&#45;&gt;Node21 -->
<g id="edge26" class="edge">
<title>Node20&#45;&gt;Node21</title>
<path fill="none" stroke="midnightblue" d="M1209,-224.3C1209,-215.3 1209,-205.65 1209,-197.51"/>
<polygon fill="midnightblue" stroke="midnightblue" points="1205.5,-224.43 1209,-234.43 1212.5,-224.43 1205.5,-224.43"/>
</g>
</g>
</svg>
