<?xml version="1.0" encoding="UTF-8" standalone="no"?>
<!DOCTYPE svg PUBLIC "-//W3C//DTD SVG 1.1//EN"
 "http://www.w3.org/Graphics/SVG/1.1/DTD/svg11.dtd">
<!-- Generated by graphviz version 2.43.0 (0)
 -->
<!-- Title: /__w/pairinteraction/pairinteraction/pairinteraction/EigenCompat.hpp Pages: 1 -->
<!--zoomable 440 -->
<svg id="main" version="1.1" xmlns="http://www.w3.org/2000/svg" xmlns:xlink="http://www.w3.org/1999/xlink" xml:space="preserve" onload="init(evt)">
<style type="text/css"><![CDATA[
.edge:hover path { stroke: red; }
.edge:hover polygon { stroke: red; fill: red; }
]]></style>
<script type="text/javascript"><![CDATA[
var edges = document.getElementsByTagName('g');
if (edges && edges.length) {
  for (var i=0;i<edges.length;i++) {
    if (edges[i].id.substr(0,4)=='edge') {
      edges[i].setAttribute('class','edge');
    }
  }
}
]]></script>
        <defs>
                <circle id="rim" cx="0" cy="0" r="7"/>
                <circle id="rim2" cx="0" cy="0" r="3.5"/>
                <g id="zoomPlus">
                        <use xlink:href="#rim" fill="#404040">
                                <set attributeName="fill" to="#808080" begin="zoomplus.mouseover" end="zoomplus.mouseout"/>
                        </use>
                        <path d="M-4,0h8M0,-4v8" fill="none" stroke="white" stroke-width="1.5" pointer-events="none"/>
                </g>
                <g id="zoomMin">
                        <use xlink:href="#rim" fill="#404040">
                                <set attributeName="fill" to="#808080" begin="zoomminus.mouseover" end="zoomminus.mouseout"/>
                        </use>
                        <path d="M-4,0h8" fill="none" stroke="white" stroke-width="1.5" pointer-events="none"/>
                </g>
                <g id="dirArrow">
                        <path fill="none" stroke="white" stroke-width="1.5" d="M0,-3.0v7 M-2.5,-0.5L0,-3.0L2.5,-0.5"/>
                </g>
               <g id="resetDef">
                       <use xlink:href="#rim2" fill="#404040">
                               <set attributeName="fill" to="#808080" begin="reset.mouseover" end="reset.mouseout"/>
                       </use>
               </g>
        </defs>

<script type="text/javascript">
var viewWidth = 1708;
var viewHeight = 440;
var sectionId = 'dynsection-1';
</script>
<script xlink:href="svgpan.js"/>
<svg id="graph" class="graph">
<g id="viewport">
<title>/__w/pairinteraction/pairinteraction/pairinteraction/EigenCompat.hpp</title>
<!-- Node1 -->
<g id="node1" class="node">
<title>Node1</title>
<g id="a_node1"><a xlink:title=" ">
<polygon fill="#bfbfbf" stroke="black" points="665,-390.5 665,-431.5 830,-431.5 830,-390.5 665,-390.5"/>
<text text-anchor="start" x="673" y="-419.5" font-family="Helvetica,sans-Serif" font-size="10.00">/__w/pairinteraction</text>
<text text-anchor="start" x="673" y="-408.5" font-family="Helvetica,sans-Serif" font-size="10.00">/pairinteraction/pairinteraction</text>
<text text-anchor="middle" x="747.5" y="-397.5" font-family="Helvetica,sans-Serif" font-size="10.00">/EigenCompat.hpp</text>
</a>
</g>
</g>
<!-- Node2 -->
<g id="node2" class="node">
<title>Node2</title>
<g id="a_node2"><a xlink:href="GreenTensor_8cpp.html" target="_top" xlink:title=" ">
<polygon fill="none" stroke="black" points="0,-234.5 0,-275.5 165,-275.5 165,-234.5 0,-234.5"/>
<text text-anchor="start" x="8" y="-263.5" font-family="Helvetica,sans-Serif" font-size="10.00">/__w/pairinteraction</text>
<text text-anchor="start" x="8" y="-252.5" font-family="Helvetica,sans-Serif" font-size="10.00">/pairinteraction/pairinteraction</text>
<text text-anchor="middle" x="82.5" y="-241.5" font-family="Helvetica,sans-Serif" font-size="10.00">/GreenTensor.cpp</text>
</a>
</g>
</g>
<!-- Node1&#45;&gt;Node2 -->
<g id="edge1" class="edge">
<title>Node1&#45;&gt;Node2</title>
<path fill="none" stroke="midnightblue" d="M654.62,-408.04C485.67,-403.6 141.7,-390.19 101.5,-354 79.86,-334.52 78.44,-298.4 80.02,-275.87"/>
<polygon fill="midnightblue" stroke="midnightblue" points="654.66,-411.54 664.75,-408.3 654.84,-404.55 654.66,-411.54"/>
</g>
<!-- Node3 -->
<g id="node3" class="node">
<title>Node3</title>
<g id="a_node3"><a xlink:href="GreenTensor_8hpp.html" target="_top" xlink:title=" ">
<polygon fill="none" stroke="black" points="111,-312.5 111,-353.5 276,-353.5 276,-312.5 111,-312.5"/>
<text text-anchor="start" x="119" y="-341.5" font-family="Helvetica,sans-Serif" font-size="10.00">/__w/pairinteraction</text>
<text text-anchor="start" x="119" y="-330.5" font-family="Helvetica,sans-Serif" font-size="10.00">/pairinteraction/pairinteraction</text>
<text text-anchor="middle" x="193.5" y="-319.5" font-family="Helvetica,sans-Serif" font-size="10.00">/GreenTensor.hpp</text>
</a>
</g>
</g>
<!-- Node1&#45;&gt;Node3 -->
<g id="edge2" class="edge">
<title>Node1&#45;&gt;Node3</title>
<path fill="none" stroke="midnightblue" d="M654.47,-400.84C561.9,-391.21 415.95,-374.58 290.5,-354 285.83,-353.23 281.05,-352.4 276.23,-351.53"/>
<polygon fill="midnightblue" stroke="midnightblue" points="654.35,-404.35 664.65,-401.9 655.07,-397.39 654.35,-404.35"/>
</g>
<!-- Node5 -->
<g id="node5" class="node">
<title>Node5</title>
<g id="a_node5"><a xlink:href="Hamiltonianmatrix_8cpp.html" target="_top" xlink:title=" ">
<polygon fill="none" stroke="black" points="1302,-234.5 1302,-275.5 1467,-275.5 1467,-234.5 1302,-234.5"/>
<text text-anchor="start" x="1310" y="-263.5" font-family="Helvetica,sans-Serif" font-size="10.00">/__w/pairinteraction</text>
<text text-anchor="start" x="1310" y="-252.5" font-family="Helvetica,sans-Serif" font-size="10.00">/pairinteraction/pairinteraction</text>
<text text-anchor="middle" x="1384.5" y="-241.5" font-family="Helvetica,sans-Serif" font-size="10.00">/Hamiltonianmatrix.cpp</text>
</a>
</g>
</g>
<!-- Node1&#45;&gt;Node5 -->
<g id="edge5" class="edge">
<title>Node1&#45;&gt;Node5</title>
<path fill="none" stroke="midnightblue" d="M840.27,-400.12C912.88,-391.27 1016.02,-376.23 1104.5,-354 1188.17,-332.98 1282.22,-297.51 1337.24,-275.5"/>
<polygon fill="midnightblue" stroke="midnightblue" points="839.74,-396.66 830.23,-401.33 840.58,-403.61 839.74,-396.66"/>
</g>
<!-- Node6 -->
<g id="node6" class="node">
<title>Node6</title>
<g id="a_node6"><a xlink:href="Hamiltonianmatrix_8hpp.html" target="_top" xlink:title=" ">
<polygon fill="none" stroke="black" points="1265,-312.5 1265,-353.5 1430,-353.5 1430,-312.5 1265,-312.5"/>
<text text-anchor="start" x="1273" y="-341.5" font-family="Helvetica,sans-Serif" font-size="10.00">/__w/pairinteraction</text>
<text text-anchor="start" x="1273" y="-330.5" font-family="Helvetica,sans-Serif" font-size="10.00">/pairinteraction/pairinteraction</text>
<text text-anchor="middle" x="1347.5" y="-319.5" font-family="Helvetica,sans-Serif" font-size="10.00">/Hamiltonianmatrix.hpp</text>
</a>
</g>
</g>
<!-- Node1&#45;&gt;Node6 -->
<g id="edge6" class="edge">
<title>Node1&#45;&gt;Node6</title>
<path fill="none" stroke="midnightblue" d="M840.35,-399.69C934.66,-389.03 1084.89,-371.51 1214.5,-354 1230.81,-351.8 1248.23,-349.29 1264.9,-346.81"/>
<polygon fill="midnightblue" stroke="midnightblue" points="839.81,-396.23 830.27,-400.83 840.6,-403.19 839.81,-396.23"/>
</g>
<!-- Node13 -->
<g id="node13" class="node">
<title>Node13</title>
<g id="a_node13"><a xlink:href="NumpyUtils_8hpp.html" target="_top" xlink:title=" ">
<polygon fill="none" stroke="black" points="1448,-312.5 1448,-353.5 1613,-353.5 1613,-312.5 1448,-312.5"/>
<text text-anchor="start" x="1456" y="-341.5" font-family="Helvetica,sans-Serif" font-size="10.00">/__w/pairinteraction</text>
<text text-anchor="start" x="1456" y="-330.5" font-family="Helvetica,sans-Serif" font-size="10.00">/pairinteraction/pairinteraction</text>
<text text-anchor="middle" x="1530.5" y="-319.5" font-family="Helvetica,sans-Serif" font-size="10.00">/NumpyUtils.hpp</text>
</a>
</g>
</g>
<!-- Node1&#45;&gt;Node13 -->
<g id="edge16" class="edge">
<title>Node1&#45;&gt;Node13</title>
<path fill="none" stroke="midnightblue" d="M840.37,-406.49C973.61,-400.54 1226.46,-385.88 1439.5,-354 1442.22,-353.59 1444.98,-353.15 1447.76,-352.68"/>
<polygon fill="midnightblue" stroke="midnightblue" points="840.04,-403 830.2,-406.93 840.35,-409.99 840.04,-403"/>
</g>
<!-- Node14 -->
<g id="node14" class="node">
<title>Node14</title>
<g id="a_node14"><a xlink:href="PerturbativeInteraction_8cpp.html" target="_top" xlink:title=" ">
<polygon fill="none" stroke="black" points="1092,-0.5 1092,-41.5 1257,-41.5 1257,-0.5 1092,-0.5"/>
<text text-anchor="start" x="1100" y="-29.5" font-family="Helvetica,sans-Serif" font-size="10.00">/__w/pairinteraction</text>
<text text-anchor="start" x="1100" y="-18.5" font-family="Helvetica,sans-Serif" font-size="10.00">/pairinteraction/pairinteraction</text>
<text text-anchor="middle" x="1174.5" y="-7.5" font-family="Helvetica,sans-Serif" font-size="10.00">/PerturbativeInteraction.cpp</text>
</a>
</g>
</g>
<!-- Node1&#45;&gt;Node14 -->
<g id="edge17" class="edge">
<title>Node1&#45;&gt;Node14</title>
<path fill="none" stroke="midnightblue" d="M840.19,-397.17C914.76,-381.71 1015.96,-348.12 1071.5,-276 1105.72,-231.57 1069.8,-194.58 1110.5,-156 1155.57,-113.28 1207.67,-169.24 1245.5,-120 1256.87,-105.2 1253.64,-94.8 1245.5,-78 1238.24,-63.03 1224.82,-50.85 1211.58,-41.73"/>
<polygon fill="midnightblue" stroke="midnightblue" points="839.43,-393.75 830.31,-399.14 840.8,-400.62 839.43,-393.75"/>
</g>
<!-- Node15 -->
<g id="node15" class="node">
<title>Node15</title>
<g id="a_node15"><a xlink:href="serialization__eigen_8hpp.html" target="_top" xlink:title=" ">
<polygon fill="none" stroke="black" points="407,-312.5 407,-353.5 572,-353.5 572,-312.5 407,-312.5"/>
<text text-anchor="start" x="415" y="-341.5" font-family="Helvetica,sans-Serif" font-size="10.00">/__w/pairinteraction</text>
<text text-anchor="start" x="415" y="-330.5" font-family="Helvetica,sans-Serif" font-size="10.00">/pairinteraction/pairinteraction</text>
<text text-anchor="middle" x="489.5" y="-319.5" font-family="Helvetica,sans-Serif" font-size="10.00">/serialization_eigen.hpp</text>
</a>
</g>
</g>
<!-- Node1&#45;&gt;Node15 -->
<g id="edge18" class="edge">
<title>Node1&#45;&gt;Node15</title>
<path fill="none" stroke="midnightblue" d="M671.39,-387.58C634.67,-376.76 591.04,-363.91 555.72,-353.51"/>
<polygon fill="midnightblue" stroke="midnightblue" points="670.48,-390.96 681.06,-390.43 672.46,-384.24 670.48,-390.96"/>
</g>
<!-- Node17 -->
<g id="node17" class="node">
<title>Node17</title>
<g id="a_node17"><a xlink:href="SystemBase_8cpp.html" target="_top" xlink:title=" ">
<polygon fill="none" stroke="black" points="554,-156.5 554,-197.5 719,-197.5 719,-156.5 554,-156.5"/>
<text text-anchor="start" x="562" y="-185.5" font-family="Helvetica,sans-Serif" font-size="10.00">/__w/pairinteraction</text>
<text text-anchor="start" x="562" y="-174.5" font-family="Helvetica,sans-Serif" font-size="10.00">/pairinteraction/pairinteraction</text>
<text text-anchor="middle" x="636.5" y="-163.5" font-family="Helvetica,sans-Serif" font-size="10.00">/SystemBase.cpp</text>
</a>
</g>
</g>
<!-- Node1&#45;&gt;Node17 -->
<g id="edge28" class="edge">
<title>Node1&#45;&gt;Node17</title>
<path fill="none" stroke="midnightblue" d="M723.81,-382.29C702.95,-356.45 673.36,-315.98 656.5,-276 645.64,-250.24 640.53,-218.12 638.23,-197.83"/>
<polygon fill="midnightblue" stroke="midnightblue" points="721.2,-384.63 730.24,-390.15 726.61,-380.19 721.2,-384.63"/>
</g>
<!-- Node20 -->
<g id="node20" class="node">
<title>Node20</title>
<g id="a_node20"><a xlink:href="SystemTwo_8hpp.html" target="_top" xlink:title=" ">
<polygon fill="none" stroke="black" points="222,-78.5 222,-119.5 387,-119.5 387,-78.5 222,-78.5"/>
<text text-anchor="start" x="230" y="-107.5" font-family="Helvetica,sans-Serif" font-size="10.00">/__w/pairinteraction</text>
<text text-anchor="start" x="230" y="-96.5" font-family="Helvetica,sans-Serif" font-size="10.00">/pairinteraction/pairinteraction</text>
<text text-anchor="middle" x="304.5" y="-85.5" font-family="Helvetica,sans-Serif" font-size="10.00">/SystemTwo.hpp</text>
</a>
</g>
</g>
<!-- Node1&#45;&gt;Node20 -->
<g id="edge29" class="edge">
<title>Node1&#45;&gt;Node20</title>
<path fill="none" stroke="midnightblue" d="M654.52,-404.86C565.06,-398.22 437.76,-383.77 398.5,-354 321.88,-295.9 307.69,-168.54 305.08,-119.65"/>
<polygon fill="midnightblue" stroke="midnightblue" points="654.46,-408.37 664.69,-405.6 654.96,-401.39 654.46,-408.37"/>
</g>
<!-- Node22 -->
<g id="node22" class="node">
<title>Node22</title>
<g id="a_node22"><a xlink:href="Wavefunction_8cpp.html" target="_top" xlink:title=" ">
<polygon fill="none" stroke="black" points="665,-234.5 665,-275.5 830,-275.5 830,-234.5 665,-234.5"/>
<text text-anchor="start" x="673" y="-263.5" font-family="Helvetica,sans-Serif" font-size="10.00">/__w/pairinteraction</text>
<text text-anchor="start" x="673" y="-252.5" font-family="Helvetica,sans-Serif" font-size="10.00">/pairinteraction/pairinteraction</text>
<text text-anchor="middle" x="747.5" y="-241.5" font-family="Helvetica,sans-Serif" font-size="10.00">/Wavefunction.cpp</text>
</a>
</g>
</g>
<!-- Node1&#45;&gt;Node22 -->
<g id="edge30" class="edge">
<title>Node1&#45;&gt;Node22</title>
<path fill="none" stroke="midnightblue" d="M747.5,-380.36C747.5,-349.61 747.5,-302.36 747.5,-275.83"/>
<polygon fill="midnightblue" stroke="midnightblue" points="744,-380.5 747.5,-390.5 751,-380.5 744,-380.5"/>
</g>
<!-- Node23 -->
<g id="node23" class="node">
<title>Node23</title>
<g id="a_node23"><a xlink:href="Wavefunction_8hpp.html" target="_top" xlink:title=" ">
<polygon fill="none" stroke="black" points="776,-312.5 776,-353.5 941,-353.5 941,-312.5 776,-312.5"/>
<text text-anchor="start" x="784" y="-341.5" font-family="Helvetica,sans-Serif" font-size="10.00">/__w/pairinteraction</text>
<text text-anchor="start" x="784" y="-330.5" font-family="Helvetica,sans-Serif" font-size="10.00">/pairinteraction/pairinteraction</text>
<text text-anchor="middle" x="858.5" y="-319.5" font-family="Helvetica,sans-Serif" font-size="10.00">/Wavefunction.hpp</text>
</a>
</g>
</g>
<!-- Node1&#45;&gt;Node23 -->
<g id="edge31" class="edge">
<title>Node1&#45;&gt;Node23</title>
<path fill="none" stroke="midnightblue" d="M784.55,-384.64C799.37,-374.49 816.17,-362.98 830.01,-353.51"/>
<polygon fill="midnightblue" stroke="midnightblue" points="782.36,-381.89 776.09,-390.43 786.31,-387.67 782.36,-381.89"/>
</g>
<!-- Node3&#45;&gt;Node2 -->
<g id="edge3" class="edge">
<title>Node3&#45;&gt;Node2</title>
<path fill="none" stroke="midnightblue" d="M156.45,-306.64C141.63,-296.49 124.83,-284.98 110.99,-275.51"/>
<polygon fill="midnightblue" stroke="midnightblue" points="154.69,-309.67 164.91,-312.43 158.64,-303.89 154.69,-309.67"/>
</g>
<!-- Node4 -->
<g id="node4" class="node">
<title>Node4</title>
<g id="a_node4"><a xlink:href="SystemTwo_8cpp.html" target="_top" xlink:title=" ">
<polygon fill="none" stroke="black" points="186,-0.5 186,-41.5 351,-41.5 351,-0.5 186,-0.5"/>
<text text-anchor="start" x="194" y="-29.5" font-family="Helvetica,sans-Serif" font-size="10.00">/__w/pairinteraction</text>
<text text-anchor="start" x="194" y="-18.5" font-family="Helvetica,sans-Serif" font-size="10.00">/pairinteraction/pairinteraction</text>
<text text-anchor="middle" x="268.5" y="-7.5" font-family="Helvetica,sans-Serif" font-size="10.00">/SystemTwo.cpp</text>
</a>
</g>
</g>
<!-- Node3&#45;&gt;Node4 -->
<g id="edge4" class="edge">
<title>Node3&#45;&gt;Node4</title>
<path fill="none" stroke="midnightblue" d="M189.32,-302.44C183.74,-253.32 178.15,-152.89 212.5,-78 218.98,-63.88 230.65,-51.31 241.66,-41.68"/>
<polygon fill="midnightblue" stroke="midnightblue" points="185.85,-302.89 190.54,-312.39 192.8,-302.04 185.85,-302.89"/>
</g>
<!-- Node6&#45;&gt;Node5 -->
<g id="edge15" class="edge">
<title>Node6&#45;&gt;Node5</title>
<path fill="none" stroke="midnightblue" d="M1361.53,-303.17C1366.03,-293.93 1370.91,-283.92 1375,-275.51"/>
<polygon fill="midnightblue" stroke="midnightblue" points="1358.26,-301.9 1357.03,-312.43 1364.55,-304.97 1358.26,-301.9"/>
</g>
<!-- Node7 -->
<g id="node7" class="node">
<title>Node7</title>
<g id="a_node7"><a xlink:href="Hamiltonian_8hpp.html" target="_top" xlink:title=" ">
<polygon fill="none" stroke="black" points="1485,-234.5 1485,-275.5 1650,-275.5 1650,-234.5 1485,-234.5"/>
<text text-anchor="start" x="1493" y="-263.5" font-family="Helvetica,sans-Serif" font-size="10.00">/__w/pairinteraction</text>
<text text-anchor="start" x="1493" y="-252.5" font-family="Helvetica,sans-Serif" font-size="10.00">/pairinteraction/pairinteraction</text>
<text text-anchor="middle" x="1567.5" y="-241.5" font-family="Helvetica,sans-Serif" font-size="10.00">/Hamiltonian.hpp</text>
</a>
</g>
</g>
<!-- Node6&#45;&gt;Node7 -->
<g id="edge7" class="edge">
<title>Node6&#45;&gt;Node7</title>
<path fill="none" stroke="midnightblue" d="M1414,-309.03C1444.97,-298.33 1481.43,-285.73 1511.04,-275.51"/>
<polygon fill="midnightblue" stroke="midnightblue" points="1412.46,-305.85 1404.16,-312.43 1414.75,-312.47 1412.46,-305.85"/>
</g>
<!-- Node8 -->
<g id="node8" class="node">
<title>Node8</title>
<g id="a_node8"><a xlink:href="HamiltonianOne_8hpp.html" target="_top" xlink:title=" ">
<polygon fill="none" stroke="black" points="1480,-156.5 1480,-197.5 1645,-197.5 1645,-156.5 1480,-156.5"/>
<text text-anchor="start" x="1488" y="-185.5" font-family="Helvetica,sans-Serif" font-size="10.00">/__w/pairinteraction</text>
<text text-anchor="start" x="1488" y="-174.5" font-family="Helvetica,sans-Serif" font-size="10.00">/pairinteraction/pairinteraction</text>
<text text-anchor="middle" x="1562.5" y="-163.5" font-family="Helvetica,sans-Serif" font-size="10.00">/HamiltonianOne.hpp</text>
</a>
</g>
</g>
<!-- Node7&#45;&gt;Node8 -->
<g id="edge8" class="edge">
<title>Node7&#45;&gt;Node8</title>
<path fill="none" stroke="midnightblue" d="M1565.55,-224.3C1564.95,-215.3 1564.32,-205.65 1563.78,-197.51"/>
<polygon fill="midnightblue" stroke="midnightblue" points="1562.06,-224.68 1566.21,-234.43 1569.05,-224.22 1562.06,-224.68"/>
</g>
<!-- Node10 -->
<g id="node10" class="node">
<title>Node10</title>
<g id="a_node10"><a xlink:href="HamiltonianTwo_8hpp.html" target="_top" xlink:title=" ">
<polygon fill="none" stroke="black" points="1297,-78.5 1297,-119.5 1462,-119.5 1462,-78.5 1297,-78.5"/>
<text text-anchor="start" x="1305" y="-107.5" font-family="Helvetica,sans-Serif" font-size="10.00">/__w/pairinteraction</text>
<text text-anchor="start" x="1305" y="-96.5" font-family="Helvetica,sans-Serif" font-size="10.00">/pairinteraction/pairinteraction</text>
<text text-anchor="middle" x="1379.5" y="-85.5" font-family="Helvetica,sans-Serif" font-size="10.00">/HamiltonianTwo.hpp</text>
</a>
</g>
</g>
<!-- Node7&#45;&gt;Node10 -->
<g id="edge14" class="edge">
<title>Node7&#45;&gt;Node10</title>
<path fill="none" stroke="midnightblue" d="M1518.92,-229.28C1503.16,-220.33 1486.01,-209.56 1471.5,-198 1441.56,-174.16 1412.23,-140.64 1395.01,-119.64"/>
<polygon fill="midnightblue" stroke="midnightblue" points="1517.57,-232.53 1528.01,-234.33 1520.97,-226.41 1517.57,-232.53"/>
</g>
<!-- Node9 -->
<g id="node9" class="node">
<title>Node9</title>
<g id="a_node9"><a xlink:href="HamiltonianOne_8cpp.html" target="_top" xlink:title=" ">
<polygon fill="none" stroke="black" points="1480,-78.5 1480,-119.5 1645,-119.5 1645,-78.5 1480,-78.5"/>
<text text-anchor="start" x="1488" y="-107.5" font-family="Helvetica,sans-Serif" font-size="10.00">/__w/pairinteraction</text>
<text text-anchor="start" x="1488" y="-96.5" font-family="Helvetica,sans-Serif" font-size="10.00">/pairinteraction/pairinteraction</text>
<text text-anchor="middle" x="1562.5" y="-85.5" font-family="Helvetica,sans-Serif" font-size="10.00">/HamiltonianOne.cpp</text>
</a>
</g>
</g>
<!-- Node8&#45;&gt;Node9 -->
<g id="edge9" class="edge">
<title>Node8&#45;&gt;Node9</title>
<path fill="none" stroke="midnightblue" d="M1562.5,-146.3C1562.5,-137.3 1562.5,-127.65 1562.5,-119.51"/>
<polygon fill="midnightblue" stroke="midnightblue" points="1559,-146.43 1562.5,-156.43 1566,-146.43 1559,-146.43"/>
</g>
<!-- Node8&#45;&gt;Node10 -->
<g id="edge10" class="edge">
<title>Node8&#45;&gt;Node10</title>
<path fill="none" stroke="midnightblue" d="M1505.84,-152.47C1480.37,-141.89 1450.67,-129.56 1426.47,-119.51"/>
<polygon fill="midnightblue" stroke="midnightblue" points="1504.8,-155.82 1515.37,-156.43 1507.48,-149.36 1504.8,-155.82"/>
</g>
<!-- Node12 -->
<g id="node12" class="node">
<title>Node12</title>
<g id="a_node12"><a xlink:href="Interface_8cpp.html" target="_top" xlink:title=" ">
<polygon fill="none" stroke="black" points="1535,-0.5 1535,-41.5 1700,-41.5 1700,-0.5 1535,-0.5"/>
<text text-anchor="start" x="1543" y="-29.5" font-family="Helvetica,sans-Serif" font-size="10.00">/__w/pairinteraction</text>
<text text-anchor="start" x="1543" y="-18.5" font-family="Helvetica,sans-Serif" font-size="10.00">/pairinteraction/pairinteraction</text>
<text text-anchor="middle" x="1617.5" y="-7.5" font-family="Helvetica,sans-Serif" font-size="10.00">/Interface.cpp</text>
</a>
</g>
</g>
<!-- Node8&#45;&gt;Node12 -->
<g id="edge13" class="edge">
<title>Node8&#45;&gt;Node12</title>
<path fill="none" stroke="midnightblue" d="M1623.33,-151.12C1635.79,-143.09 1647.28,-132.85 1654.5,-120 1668.93,-94.32 1650.28,-61.89 1634.64,-41.55"/>
<polygon fill="midnightblue" stroke="midnightblue" points="1621.4,-148.2 1614.6,-156.33 1624.98,-154.21 1621.4,-148.2"/>
</g>
<!-- Node11 -->
<g id="node11" class="node">
<title>Node11</title>
<g id="a_node11"><a xlink:href="HamiltonianTwo_8cpp.html" target="_top" xlink:title=" ">
<polygon fill="none" stroke="black" points="1297,-0.5 1297,-41.5 1462,-41.5 1462,-0.5 1297,-0.5"/>
<text text-anchor="start" x="1305" y="-29.5" font-family="Helvetica,sans-Serif" font-size="10.00">/__w/pairinteraction</text>
<text text-anchor="start" x="1305" y="-18.5" font-family="Helvetica,sans-Serif" font-size="10.00">/pairinteraction/pairinteraction</text>
<text text-anchor="middle" x="1379.5" y="-7.5" font-family="Helvetica,sans-Serif" font-size="10.00">/HamiltonianTwo.cpp</text>
</a>
</g>
</g>
<!-- Node10&#45;&gt;Node11 -->
<g id="edge11" class="edge">
<title>Node10&#45;&gt;Node11</title>
<path fill="none" stroke="midnightblue" d="M1379.5,-68.3C1379.5,-59.3 1379.5,-49.65 1379.5,-41.51"/>
<polygon fill="midnightblue" stroke="midnightblue" points="1376,-68.43 1379.5,-78.43 1383,-68.43 1376,-68.43"/>
</g>
<!-- Node10&#45;&gt;Node12 -->
<g id="edge12" class="edge">
<title>Node10&#45;&gt;Node12</title>
<path fill="none" stroke="midnightblue" d="M1450.57,-75.3C1484.26,-64.55 1524.11,-51.82 1556.42,-41.51"/>
<polygon fill="midnightblue" stroke="midnightblue" points="1449.25,-72.05 1440.79,-78.43 1451.38,-78.72 1449.25,-72.05"/>
</g>
<!-- Node16 -->
<g id="node16" class="node">
<title>Node16</title>
<g id="a_node16"><a xlink:href="SystemBase_8hpp.html" target="_top" xlink:title=" ">
<polygon fill="none" stroke="black" points="389,-234.5 389,-275.5 554,-275.5 554,-234.5 389,-234.5"/>
<text text-anchor="start" x="397" y="-263.5" font-family="Helvetica,sans-Serif" font-size="10.00">/__w/pairinteraction</text>
<text text-anchor="start" x="397" y="-252.5" font-family="Helvetica,sans-Serif" font-size="10.00">/pairinteraction/pairinteraction</text>
<text text-anchor="middle" x="471.5" y="-241.5" font-family="Helvetica,sans-Serif" font-size="10.00">/SystemBase.hpp</text>
</a>
</g>
</g>
<!-- Node15&#45;&gt;Node16 -->
<g id="edge19" class="edge">
<title>Node15&#45;&gt;Node16</title>
<path fill="none" stroke="midnightblue" d="M482.53,-302.59C480.38,-293.51 478.07,-283.74 476.12,-275.51"/>
<polygon fill="midnightblue" stroke="midnightblue" points="479.15,-303.5 484.86,-312.43 485.97,-301.89 479.15,-303.5"/>
</g>
<!-- Node16&#45;&gt;Node17 -->
<g id="edge20" class="edge">
<title>Node16&#45;&gt;Node17</title>
<path fill="none" stroke="midnightblue" d="M523.19,-230.19C546.02,-219.67 572.52,-207.47 594.15,-197.51"/>
<polygon fill="midnightblue" stroke="midnightblue" points="521.61,-227.07 513.99,-234.43 524.54,-233.42 521.61,-227.07"/>
</g>
<!-- Node18 -->
<g id="node18" class="node">
<title>Node18</title>
<g id="a_node18"><a xlink:href="SystemOne_8hpp.html" target="_top" xlink:title=" ">
<polygon fill="none" stroke="black" points="371,-156.5 371,-197.5 536,-197.5 536,-156.5 371,-156.5"/>
<text text-anchor="start" x="379" y="-185.5" font-family="Helvetica,sans-Serif" font-size="10.00">/__w/pairinteraction</text>
<text text-anchor="start" x="379" y="-174.5" font-family="Helvetica,sans-Serif" font-size="10.00">/pairinteraction/pairinteraction</text>
<text text-anchor="middle" x="453.5" y="-163.5" font-family="Helvetica,sans-Serif" font-size="10.00">/SystemOne.hpp</text>
</a>
</g>
</g>
<!-- Node16&#45;&gt;Node18 -->
<g id="edge21" class="edge">
<title>Node16&#45;&gt;Node18</title>
<path fill="none" stroke="midnightblue" d="M464.53,-224.59C462.38,-215.51 460.07,-205.74 458.12,-197.51"/>
<polygon fill="midnightblue" stroke="midnightblue" points="461.15,-225.5 466.86,-234.43 467.97,-223.89 461.15,-225.5"/>
</g>
<!-- Node16&#45;&gt;Node20 -->
<g id="edge27" class="edge">
<title>Node16&#45;&gt;Node20</title>
<path fill="none" stroke="midnightblue" d="M409.99,-229.94C393.33,-221.51 376.15,-210.86 362.5,-198 338.75,-175.63 321.52,-141.39 312.27,-119.87"/>
<polygon fill="midnightblue" stroke="midnightblue" points="408.64,-233.17 419.16,-234.39 411.7,-226.87 408.64,-233.17"/>
</g>
<!-- Node19 -->
<g id="node19" class="node">
<title>Node19</title>
<g id="a_node19"><a xlink:href="SystemOne_8cpp.html" target="_top" xlink:title=" ">
<polygon fill="none" stroke="black" points="444,-78.5 444,-119.5 609,-119.5 609,-78.5 444,-78.5"/>
<text text-anchor="start" x="452" y="-107.5" font-family="Helvetica,sans-Serif" font-size="10.00">/__w/pairinteraction</text>
<text text-anchor="start" x="452" y="-96.5" font-family="Helvetica,sans-Serif" font-size="10.00">/pairinteraction/pairinteraction</text>
<text text-anchor="middle" x="526.5" y="-85.5" font-family="Helvetica,sans-Serif" font-size="10.00">/SystemOne.cpp</text>
</a>
</g>
</g>
<!-- Node18&#45;&gt;Node19 -->
<g id="edge22" class="edge">
<title>Node18&#45;&gt;Node19</title>
<path fill="none" stroke="midnightblue" d="M479.24,-149.2C488.64,-139.42 499.09,-128.54 507.76,-119.51"/>
<polygon fill="midnightblue" stroke="midnightblue" points="476.7,-146.79 472.3,-156.43 481.75,-151.64 476.7,-146.79"/>
</g>
<!-- Node18&#45;&gt;Node20 -->
<g id="edge23" class="edge">
<title>Node18&#45;&gt;Node20</title>
<path fill="none" stroke="midnightblue" d="M405.99,-151.77C385.57,-141.35 362.01,-129.34 342.74,-119.51"/>
<polygon fill="midnightblue" stroke="midnightblue" points="404.63,-155 415.13,-156.43 407.81,-148.77 404.63,-155"/>
</g>
<!-- Node21 -->
<g id="node21" class="node">
<title>Node21</title>
<g id="a_node21"><a xlink:href="integration__test_8cpp.html" target="_top" xlink:title=" ">
<polygon fill="none" stroke="black" points="369,-0.5 369,-41.5 534,-41.5 534,-0.5 369,-0.5"/>
<text text-anchor="start" x="377" y="-29.5" font-family="Helvetica,sans-Serif" font-size="10.00">/__w/pairinteraction</text>
<text text-anchor="start" x="377" y="-18.5" font-family="Helvetica,sans-Serif" font-size="10.00">/pairinteraction/pairinteraction</text>
<text text-anchor="middle" x="451.5" y="-7.5" font-family="Helvetica,sans-Serif" font-size="10.00">/unit_test/integration_test.cpp</text>
</a>
</g>
</g>
<!-- Node18&#45;&gt;Node21 -->
<g id="edge26" class="edge">
<title>Node18&#45;&gt;Node21</title>
<path fill="none" stroke="midnightblue" d="M442.26,-146.89C439.48,-138.36 436.9,-128.92 435.5,-120 432.61,-101.56 432.91,-96.49 435.5,-78 437.23,-65.68 440.99,-52.27 444.43,-41.67"/>
<polygon fill="midnightblue" stroke="midnightblue" points="438.97,-148.1 445.55,-156.41 445.59,-145.81 438.97,-148.1"/>
</g>
<!-- Node20&#45;&gt;Node4 -->
<g id="edge24" class="edge">
<title>Node20&#45;&gt;Node4</title>
<path fill="none" stroke="midnightblue" d="M290.85,-69.17C286.47,-59.93 281.72,-49.92 277.74,-41.51"/>
<polygon fill="midnightblue" stroke="midnightblue" points="287.79,-70.89 295.23,-78.43 294.11,-67.89 287.79,-70.89"/>
</g>
<!-- Node20&#45;&gt;Node21 -->
<g id="edge25" class="edge">
<title>Node20&#45;&gt;Node21</title>
<path fill="none" stroke="midnightblue" d="M351.37,-73.77C371.52,-63.35 394.76,-51.34 413.77,-41.51"/>
<polygon fill="midnightblue" stroke="midnightblue" points="349.63,-70.73 342.36,-78.43 352.85,-76.94 349.63,-70.73"/>
</g>
<!-- Node23&#45;&gt;Node22 -->
<g id="edge45" class="edge">
<title>Node23&#45;&gt;Node22</title>
<path fill="none" stroke="midnightblue" d="M821.45,-306.64C806.63,-296.49 789.83,-284.98 775.99,-275.51"/>
<polygon fill="midnightblue" stroke="midnightblue" points="819.69,-309.67 829.91,-312.43 823.64,-303.89 819.69,-309.67"/>
</g>
<!-- Node24 -->
<g id="node24" class="node">
<title>Node24</title>
<g id="a_node24"><a xlink:href="MatrixElementCache_8hpp.html" target="_top" xlink:title=" ">
<polygon fill="none" stroke="black" points="776,-156.5 776,-197.5 941,-197.5 941,-156.5 776,-156.5"/>
<text text-anchor="start" x="784" y="-185.5" font-family="Helvetica,sans-Serif" font-size="10.00">/__w/pairinteraction</text>
<text text-anchor="start" x="784" y="-174.5" font-family="Helvetica,sans-Serif" font-size="10.00">/pairinteraction/pairinteraction</text>
<text text-anchor="middle" x="858.5" y="-163.5" font-family="Helvetica,sans-Serif" font-size="10.00">/MatrixElementCache.hpp</text>
</a>
</g>
</g>
<!-- Node23&#45;&gt;Node24 -->
<g id="edge32" class="edge">
<title>Node23&#45;&gt;Node24</title>
<path fill="none" stroke="midnightblue" d="M858.5,-302.36C858.5,-271.61 858.5,-224.36 858.5,-197.83"/>
<polygon fill="midnightblue" stroke="midnightblue" points="855,-302.5 858.5,-312.5 862,-302.5 855,-302.5"/>
</g>
<!-- Node28 -->
<g id="node28" class="node">
<title>Node28</title>
<g id="a_node28"><a xlink:href="MatrixElements_8hpp.html" target="_top" xlink:title=" ">
<polygon fill="none" stroke="black" points="1119,-234.5 1119,-275.5 1284,-275.5 1284,-234.5 1119,-234.5"/>
<text text-anchor="start" x="1127" y="-263.5" font-family="Helvetica,sans-Serif" font-size="10.00">/__w/pairinteraction</text>
<text text-anchor="start" x="1127" y="-252.5" font-family="Helvetica,sans-Serif" font-size="10.00">/pairinteraction/pairinteraction</text>
<text text-anchor="middle" x="1201.5" y="-241.5" font-family="Helvetica,sans-Serif" font-size="10.00">/MatrixElements.hpp</text>
</a>
</g>
</g>
<!-- Node23&#45;&gt;Node28 -->
<g id="edge40" class="edge">
<title>Node23&#45;&gt;Node28</title>
<path fill="none" stroke="midnightblue" d="M951.04,-311.5C1003.33,-299.91 1068.14,-285.55 1118.73,-274.34"/>
<polygon fill="midnightblue" stroke="midnightblue" points="950.1,-308.12 941.09,-313.7 951.61,-314.95 950.1,-308.12"/>
</g>
<!-- Node30 -->
<g id="node30" class="node">
<title>Node30</title>
<g id="a_node30"><a xlink:href="wavefunction__test_8cpp.html" target="_top" xlink:title=" ">
<polygon fill="none" stroke="black" points="886.5,-234.5 886.5,-275.5 1062.5,-275.5 1062.5,-234.5 886.5,-234.5"/>
<text text-anchor="start" x="894.5" y="-263.5" font-family="Helvetica,sans-Serif" font-size="10.00">/__w/pairinteraction</text>
<text text-anchor="start" x="894.5" y="-252.5" font-family="Helvetica,sans-Serif" font-size="10.00">/pairinteraction/pairinteraction</text>
<text text-anchor="middle" x="974.5" y="-241.5" font-family="Helvetica,sans-Serif" font-size="10.00">/unit_test/wavefunction_test.cpp</text>
</a>
</g>
</g>
<!-- Node23&#45;&gt;Node30 -->
<g id="edge44" class="edge">
<title>Node23&#45;&gt;Node30</title>
<path fill="none" stroke="midnightblue" d="M896.78,-306.92C912.38,-296.7 930.13,-285.07 944.73,-275.51"/>
<polygon fill="midnightblue" stroke="midnightblue" points="894.82,-304.02 888.37,-312.43 898.66,-309.88 894.82,-304.02"/>
</g>
<!-- Node24&#45;&gt;Node4 -->
<g id="edge38" class="edge">
<title>Node24&#45;&gt;Node4</title>
<path fill="none" stroke="midnightblue" d="M765.69,-161.32C730.07,-152.9 690.16,-139.89 657.5,-120 635.74,-106.75 641.09,-89.77 618.5,-78 515.83,-24.48 474.48,-62.31 360.5,-42 357.44,-41.46 354.33,-40.88 351.19,-40.28"/>
<polygon fill="midnightblue" stroke="midnightblue" points="765.09,-164.78 775.62,-163.58 766.64,-157.95 765.09,-164.78"/>
</g>
<!-- Node24&#45;&gt;Node19 -->
<g id="edge37" class="edge">
<title>Node24&#45;&gt;Node19</title>
<path fill="none" stroke="midnightblue" d="M765.59,-154.73C716.49,-143.49 656.72,-129.81 609.23,-118.94"/>
<polygon fill="midnightblue" stroke="midnightblue" points="765.05,-158.2 775.58,-157.02 766.61,-151.37 765.05,-158.2"/>
</g>
<!-- Node24&#45;&gt;Node21 -->
<g id="edge39" class="edge">
<title>Node24&#45;&gt;Node21</title>
<path fill="none" stroke="midnightblue" d="M861.48,-146.23C861.92,-124.27 858.5,-95.32 840.5,-78 797.97,-37.08 635.27,-25.89 534.24,-22.94"/>
<polygon fill="midnightblue" stroke="midnightblue" points="857.98,-146.21 861.01,-156.36 864.97,-146.54 857.98,-146.21"/>
</g>
<!-- Node25 -->
<g id="node25" class="node">
<title>Node25</title>
<g id="a_node25"><a xlink:href="MatrixElementCache_8cpp.html" target="_top" xlink:title=" ">
<polygon fill="none" stroke="black" points="888,-78.5 888,-119.5 1053,-119.5 1053,-78.5 888,-78.5"/>
<text text-anchor="start" x="896" y="-107.5" font-family="Helvetica,sans-Serif" font-size="10.00">/__w/pairinteraction</text>
<text text-anchor="start" x="896" y="-96.5" font-family="Helvetica,sans-Serif" font-size="10.00">/pairinteraction/pairinteraction</text>
<text text-anchor="middle" x="970.5" y="-85.5" font-family="Helvetica,sans-Serif" font-size="10.00">/MatrixElementCache.cpp</text>
</a>
</g>
</g>
<!-- Node24&#45;&gt;Node25 -->
<g id="edge33" class="edge">
<title>Node24&#45;&gt;Node25</title>
<path fill="none" stroke="midnightblue" d="M895.88,-150.64C910.84,-140.49 927.79,-128.98 941.75,-119.51"/>
<polygon fill="midnightblue" stroke="midnightblue" points="893.65,-147.92 887.34,-156.43 897.58,-153.71 893.65,-147.92"/>
</g>
<!-- Node26 -->
<g id="node26" class="node">
<title>Node26</title>
<g id="a_node26"><a xlink:href="PerturbativeInteraction_8hpp.html" target="_top" xlink:title=" ">
<polygon fill="none" stroke="black" points="1071,-78.5 1071,-119.5 1236,-119.5 1236,-78.5 1071,-78.5"/>
<text text-anchor="start" x="1079" y="-107.5" font-family="Helvetica,sans-Serif" font-size="10.00">/__w/pairinteraction</text>
<text text-anchor="start" x="1079" y="-96.5" font-family="Helvetica,sans-Serif" font-size="10.00">/pairinteraction/pairinteraction</text>
<text text-anchor="middle" x="1153.5" y="-85.5" font-family="Helvetica,sans-Serif" font-size="10.00">/PerturbativeInteraction.hpp</text>
</a>
</g>
</g>
<!-- Node24&#45;&gt;Node26 -->
<g id="edge34" class="edge">
<title>Node24&#45;&gt;Node26</title>
<path fill="none" stroke="midnightblue" d="M944.19,-153.92C986.44,-143.04 1036.97,-130.02 1077.79,-119.51"/>
<polygon fill="midnightblue" stroke="midnightblue" points="943.28,-150.54 934.47,-156.43 945.03,-157.32 943.28,-150.54"/>
</g>
<!-- Node27 -->
<g id="node27" class="node">
<title>Node27</title>
<g id="a_node27"><a xlink:href="State_8cpp.html" target="_top" xlink:title=" ">
<polygon fill="none" stroke="black" points="666,-78.5 666,-119.5 831,-119.5 831,-78.5 666,-78.5"/>
<text text-anchor="start" x="674" y="-107.5" font-family="Helvetica,sans-Serif" font-size="10.00">/__w/pairinteraction</text>
<text text-anchor="start" x="674" y="-96.5" font-family="Helvetica,sans-Serif" font-size="10.00">/pairinteraction/pairinteraction</text>
<text text-anchor="middle" x="748.5" y="-85.5" font-family="Helvetica,sans-Serif" font-size="10.00">/State.cpp</text>
</a>
</g>
</g>
<!-- Node24&#45;&gt;Node27 -->
<g id="edge36" class="edge">
<title>Node24&#45;&gt;Node27</title>
<path fill="none" stroke="midnightblue" d="M821.79,-150.64C807.1,-140.49 790.45,-128.98 776.73,-119.51"/>
<polygon fill="midnightblue" stroke="midnightblue" points="819.96,-153.62 830.17,-156.43 823.93,-147.86 819.96,-153.62"/>
</g>
<!-- Node26&#45;&gt;Node14 -->
<g id="edge35" class="edge">
<title>Node26&#45;&gt;Node14</title>
<path fill="none" stroke="midnightblue" d="M1161.63,-68.59C1164.14,-59.51 1166.83,-49.74 1169.11,-41.51"/>
<polygon fill="midnightblue" stroke="midnightblue" points="1158.2,-67.86 1158.91,-78.43 1164.95,-69.72 1158.2,-67.86"/>
</g>
<!-- Node28&#45;&gt;Node8 -->
<g id="edge41" class="edge">
<title>Node28&#45;&gt;Node8</title>
<path fill="none" stroke="midnightblue" d="M1294.31,-233.83C1362.49,-219.35 1429.02,-205.52 1479.75,-195.03"/>
<polygon fill="midnightblue" stroke="midnightblue" points="1293.3,-230.47 1284.24,-235.98 1294.75,-237.32 1293.3,-230.47"/>
</g>
<!-- Node28&#45;&gt;Node10 -->
<g id="edge42" class="edge">
<title>Node28&#45;&gt;Node10</title>
<path fill="none" stroke="midnightblue" d="M1248.22,-229.29C1263.34,-220.34 1279.74,-209.56 1293.5,-198 1321.93,-174.12 1349.23,-140.62 1365.18,-119.62"/>
<polygon fill="midnightblue" stroke="midnightblue" points="1246.4,-226.3 1239.5,-234.34 1249.91,-232.35 1246.4,-226.3"/>
</g>
<!-- Node29 -->
<g id="node29" class="node">
<title>Node29</title>
<g id="a_node29"><a xlink:href="MatrixElements_8cpp.html" target="_top" xlink:title=" ">
<polygon fill="none" stroke="black" points="1119,-156.5 1119,-197.5 1284,-197.5 1284,-156.5 1119,-156.5"/>
<text text-anchor="start" x="1127" y="-185.5" font-family="Helvetica,sans-Serif" font-size="10.00">/__w/pairinteraction</text>
<text text-anchor="start" x="1127" y="-174.5" font-family="Helvetica,sans-Serif" font-size="10.00">/pairinteraction/pairinteraction</text>
<text text-anchor="middle" x="1201.5" y="-163.5" font-family="Helvetica,sans-Serif" font-size="10.00">/MatrixElements.cpp</text>
</a>
</g>
</g>
<!-- Node28&#45;&gt;Node29 -->
<g id="edge43" class="edge">
<title>Node28&#45;&gt;Node29</title>
<path fill="none" stroke="midnightblue" d="M1201.5,-224.3C1201.5,-215.3 1201.5,-205.65 1201.5,-197.51"/>
<polygon fill="midnightblue" stroke="midnightblue" points="1198,-224.43 1201.5,-234.43 1205,-224.43 1198,-224.43"/>
</g>
</g>
</svg>
        <g id="navigator" transform="translate(0 0)" fill="#404254">
                <rect fill="#f2f5e9" fill-opacity="0.5" stroke="#606060" stroke-width=".5" x="0" y="0" width="60" height="60"/>
                <use id="zoomplus" xlink:href="#zoomPlus" x="17" y="9" onmousedown="handleZoom(evt,'in')"/>
                <use id="zoomminus" xlink:href="#zoomMin" x="42" y="9" onmousedown="handleZoom(evt,'out')"/>
                <use id="reset" xlink:href="#resetDef" x="30" y="36" onmousedown="handleReset()"/>
                <g id="arrowUp" xlink:href="#dirArrow" transform="translate(30 24)" onmousedown="handlePan(0,-1)">
                  <use xlink:href="#rim" fill="#404040">
                        <set attributeName="fill" to="#808080" begin="arrowUp.mouseover" end="arrowUp.mouseout"/>
                  </use>
                  <path fill="none" stroke="white" stroke-width="1.5" d="M0,-3.0v7 M-2.5,-0.5L0,-3.0L2.5,-0.5"/>
                </g>
                <g id="arrowRight" xlink:href="#dirArrow" transform="rotate(90) translate(36 -43)" onmousedown="handlePan(1,0)">
                  <use xlink:href="#rim" fill="#404040">
                        <set attributeName="fill" to="#808080" begin="arrowRight.mouseover" end="arrowRight.mouseout"/>
                  </use>
                  <path fill="none" stroke="white" stroke-width="1.5" d="M0,-3.0v7 M-2.5,-0.5L0,-3.0L2.5,-0.5"/>
                </g>
                <g id="arrowDown" xlink:href="#dirArrow" transform="rotate(180) translate(-30 -48)" onmousedown="handlePan(0,1)">
                  <use xlink:href="#rim" fill="#404040">
                        <set attributeName="fill" to="#808080" begin="arrowDown.mouseover" end="arrowDown.mouseout"/>
                  </use>
                  <path fill="none" stroke="white" stroke-width="1.5" d="M0,-3.0v7 M-2.5,-0.5L0,-3.0L2.5,-0.5"/>
                </g>
                <g id="arrowLeft" xlink:href="#dirArrow" transform="rotate(270) translate(-36 17)" onmousedown="handlePan(-1,0)">
                  <use xlink:href="#rim" fill="#404040">
                        <set attributeName="fill" to="#808080" begin="arrowLeft.mouseover" end="arrowLeft.mouseout"/>
                  </use>
                  <path fill="none" stroke="white" stroke-width="1.5" d="M0,-3.0v7 M-2.5,-0.5L0,-3.0L2.5,-0.5"/>
                </g>
        </g>
        <svg viewBox="0 0 15 15" width="100%" height="30px" preserveAspectRatio="xMaxYMin meet">
         <g id="arrow_out" transform="scale(0.3 0.3)">
          <a xlink:href="EigenCompat_8hpp__dep__incl_org.svg" target="_base">
           <rect id="button" ry="5" rx="5" y="6" x="6" height="38" width="38"
                fill="#f2f5e9" fill-opacity="0.5" stroke="#606060" stroke-width="1.0"/>
           <path id="arrow"
             d="M 11.500037,31.436501 C 11.940474,20.09759 22.043105,11.32322 32.158766,21.979434 L 37.068811,17.246167 C 37.068811,17.246167 37.088388,32 37.088388,32 L 22.160133,31.978069 C 22.160133,31.978069 26.997745,27.140456 26.997745,27.140456 C 18.528582,18.264221 13.291696,25.230495 11.500037,31.436501 z"
             style="fill:#404040;"/>
          </a>
         </g>
        </svg>
</svg>
