<?xml version="1.0" encoding="UTF-8" standalone="no"?>
<!DOCTYPE svg PUBLIC "-//W3C//DTD SVG 1.1//EN"
 "http://www.w3.org/Graphics/SVG/1.1/DTD/svg11.dtd">
<!-- Generated by graphviz version 2.43.0 (0)
 -->
<!-- Title: model_potential::g Pages: 1 -->
<svg width="465pt" height="104pt"
 viewBox="0.00 0.00 465.00 104.00" xmlns="http://www.w3.org/2000/svg" xmlns:xlink="http://www.w3.org/1999/xlink">
<g id="graph0" class="graph" transform="scale(1 1) rotate(0) translate(4 100)">
<title>model_potential::g</title>
<!-- Node1 -->
<g id="node1" class="node">
<title>Node1</title>
<g id="a_node1"><a xlink:title="Helper function for Numerov&#39;s method.s.">
<polygon fill="#bfbfbf" stroke="black" points="349,-38.5 349,-57.5 457,-57.5 457,-38.5 349,-38.5"/>
<text text-anchor="middle" x="403" y="-45.5" font-family="Helvetica,sans-Serif" font-size="10.00">model_potential::g</text>
</a>
</g>
</g>
<!-- Node2 -->
<g id="node2" class="node">
<title>Node2</title>
<g id="a_node2"><a xlink:href="classSystemTwo.html#aa5adef2b4ad7cf4376f49dd527583275" target="_top" xlink:title="Method that allows base class to construct Hamiltonian /////////.">
<polygon fill="none" stroke="black" points="164,-76.5 164,-95.5 313,-95.5 313,-76.5 164,-76.5"/>
<text text-anchor="middle" x="238.5" y="-83.5" font-family="Helvetica,sans-Serif" font-size="10.00">SystemTwo::addInteraction</text>
</a>
</g>
</g>
<!-- Node1&#45;&gt;Node2 -->
<g id="edge1" class="edge">
<title>Node1&#45;&gt;Node2</title>
<path fill="none" stroke="midnightblue" d="M351.13,-59.9C328.29,-65.24 301.7,-71.45 280.21,-76.48"/>
<polygon fill="midnightblue" stroke="midnightblue" points="352.05,-63.27 360.99,-57.59 350.46,-56.46 352.05,-63.27"/>
</g>
<!-- Node3 -->
<g id="node3" class="node">
<title>Node3</title>
<g id="a_node3"><a xlink:href="classNumerov.html#a89dacd4efc7ce15b24083e783d87db32" target="_top" xlink:title="Perform the integration.">
<polygon fill="none" stroke="black" points="182.5,-38.5 182.5,-57.5 294.5,-57.5 294.5,-38.5 182.5,-38.5"/>
<text text-anchor="middle" x="238.5" y="-45.5" font-family="Helvetica,sans-Serif" font-size="10.00">Numerov::integrate</text>
</a>
</g>
</g>
<!-- Node1&#45;&gt;Node3 -->
<g id="edge2" class="edge">
<title>Node1&#45;&gt;Node3</title>
<path fill="none" stroke="midnightblue" d="M338.4,-48C323.9,-48 308.61,-48 294.5,-48"/>
<polygon fill="midnightblue" stroke="midnightblue" points="338.79,-51.5 348.79,-48 338.79,-44.5 338.79,-51.5"/>
</g>
<!-- Node5 -->
<g id="node5" class="node">
<title>Node5</title>
<g id="a_node5"><a xlink:href="wavefunction__test_8cpp.html#aec3db20915a08cbe4f72b02e7b5485df" target="_top" xlink:title=" ">
<polygon fill="none" stroke="black" points="174.5,-0.5 174.5,-19.5 302.5,-19.5 302.5,-0.5 174.5,-0.5"/>
<text text-anchor="middle" x="238.5" y="-7.5" font-family="Helvetica,sans-Serif" font-size="10.00">TEST_CASE_TEMPLATE</text>
</a>
</g>
</g>
<!-- Node1&#45;&gt;Node5 -->
<g id="edge4" class="edge">
<title>Node1&#45;&gt;Node5</title>
<path fill="none" stroke="midnightblue" d="M351.13,-36.1C328.29,-30.76 301.7,-24.55 280.21,-19.52"/>
<polygon fill="midnightblue" stroke="midnightblue" points="350.46,-39.54 360.99,-38.41 352.05,-32.73 350.46,-39.54"/>
</g>
<!-- Node4 -->
<g id="node4" class="node">
<title>Node4</title>
<g id="a_node4"><a xlink:href="wavefunction__test_8cpp.html#ada0cbf19aa8fe9fd7c84638b8dbe0878" target="_top" xlink:title=" ">
<polygon fill="none" stroke="black" points="0,-38.5 0,-57.5 128,-57.5 128,-38.5 0,-38.5"/>
<text text-anchor="middle" x="64" y="-45.5" font-family="Helvetica,sans-Serif" font-size="10.00">TEST_CASE_TEMPLATE</text>
</a>
</g>
</g>
<!-- Node3&#45;&gt;Node4 -->
<g id="edge3" class="edge">
<title>Node3&#45;&gt;Node4</title>
<path fill="none" stroke="midnightblue" d="M172.14,-48C157.75,-48 142.54,-48 128.24,-48"/>
<polygon fill="midnightblue" stroke="midnightblue" points="172.45,-51.5 182.45,-48 172.45,-44.5 172.45,-51.5"/>
</g>
</g>
</svg>
