<?xml version="1.0" encoding="UTF-8" standalone="no"?>
<!DOCTYPE svg PUBLIC "-//W3C//DTD SVG 1.1//EN"
 "http://www.w3.org/Graphics/SVG/1.1/DTD/svg11.dtd">
<!-- Generated by graphviz version 2.43.0 (0)
 -->
<!-- Title: /__w/pairinteraction/pairinteraction/pairinteraction/QuantumDefect.hpp Pages: 1 -->
<!--zoomable 440 -->
<svg id="main" version="1.1" xmlns="http://www.w3.org/2000/svg" xmlns:xlink="http://www.w3.org/1999/xlink" xml:space="preserve" onload="init(evt)">
<style type="text/css"><![CDATA[
.edge:hover path { stroke: red; }
.edge:hover polygon { stroke: red; fill: red; }
]]></style>
<script type="text/javascript"><![CDATA[
var edges = document.getElementsByTagName('g');
if (edges && edges.length) {
  for (var i=0;i<edges.length;i++) {
    if (edges[i].id.substr(0,4)=='edge') {
      edges[i].setAttribute('class','edge');
    }
  }
}
]]></script>
        <defs>
                <circle id="rim" cx="0" cy="0" r="7"/>
                <circle id="rim2" cx="0" cy="0" r="3.5"/>
                <g id="zoomPlus">
                        <use xlink:href="#rim" fill="#404040">
                                <set attributeName="fill" to="#808080" begin="zoomplus.mouseover" end="zoomplus.mouseout"/>
                        </use>
                        <path d="M-4,0h8M0,-4v8" fill="none" stroke="white" stroke-width="1.5" pointer-events="none"/>
                </g>
                <g id="zoomMin">
                        <use xlink:href="#rim" fill="#404040">
                                <set attributeName="fill" to="#808080" begin="zoomminus.mouseover" end="zoomminus.mouseout"/>
                        </use>
                        <path d="M-4,0h8" fill="none" stroke="white" stroke-width="1.5" pointer-events="none"/>
                </g>
                <g id="dirArrow">
                        <path fill="none" stroke="white" stroke-width="1.5" d="M0,-3.0v7 M-2.5,-0.5L0,-3.0L2.5,-0.5"/>
                </g>
               <g id="resetDef">
                       <use xlink:href="#rim2" fill="#404040">
                               <set attributeName="fill" to="#808080" begin="reset.mouseover" end="reset.mouseout"/>
                       </use>
               </g>
        </defs>

<script type="text/javascript">
var viewWidth = 1754;
var viewHeight = 440;
var sectionId = 'dynsection-1';
</script>
<script xlink:href="svgpan.js"/>
<svg id="graph" class="graph">
<g id="viewport">
<title>/__w/pairinteraction/pairinteraction/pairinteraction/QuantumDefect.hpp</title>
<!-- Node1 -->
<g id="node1" class="node">
<title>Node1</title>
<g id="a_node1"><a xlink:title=" ">
<polygon fill="#bfbfbf" stroke="black" points="1006,-390.5 1006,-431.5 1171,-431.5 1171,-390.5 1006,-390.5"/>
<text text-anchor="start" x="1014" y="-419.5" font-family="Helvetica,sans-Serif" font-size="10.00">/__w/pairinteraction</text>
<text text-anchor="start" x="1014" y="-408.5" font-family="Helvetica,sans-Serif" font-size="10.00">/pairinteraction/pairinteraction</text>
<text text-anchor="middle" x="1088.5" y="-397.5" font-family="Helvetica,sans-Serif" font-size="10.00">/QuantumDefect.hpp</text>
</a>
</g>
</g>
<!-- Node2 -->
<g id="node2" class="node">
<title>Node2</title>
<g id="a_node2"><a xlink:href="MatrixElementCache_8cpp.html" target="_top" xlink:title=" ">
<polygon fill="none" stroke="black" points="0,-156.5 0,-197.5 165,-197.5 165,-156.5 0,-156.5"/>
<text text-anchor="start" x="8" y="-185.5" font-family="Helvetica,sans-Serif" font-size="10.00">/__w/pairinteraction</text>
<text text-anchor="start" x="8" y="-174.5" font-family="Helvetica,sans-Serif" font-size="10.00">/pairinteraction/pairinteraction</text>
<text text-anchor="middle" x="82.5" y="-163.5" font-family="Helvetica,sans-Serif" font-size="10.00">/MatrixElementCache.cpp</text>
</a>
</g>
</g>
<!-- Node1&#45;&gt;Node2 -->
<g id="edge1" class="edge">
<title>Node1&#45;&gt;Node2</title>
<path fill="none" stroke="midnightblue" d="M995.72,-408.79C882.48,-405.5 685.91,-393.91 522.5,-354 367.85,-316.23 195.6,-235 120.72,-197.59"/>
<polygon fill="midnightblue" stroke="midnightblue" points="995.64,-412.29 1005.74,-409.07 995.84,-405.29 995.64,-412.29"/>
</g>
<!-- Node3 -->
<g id="node3" class="node">
<title>Node3</title>
<g id="a_node3"><a xlink:href="MatrixElements_8cpp.html" target="_top" xlink:title=" ">
<polygon fill="none" stroke="black" points="1320,-156.5 1320,-197.5 1485,-197.5 1485,-156.5 1320,-156.5"/>
<text text-anchor="start" x="1328" y="-185.5" font-family="Helvetica,sans-Serif" font-size="10.00">/__w/pairinteraction</text>
<text text-anchor="start" x="1328" y="-174.5" font-family="Helvetica,sans-Serif" font-size="10.00">/pairinteraction/pairinteraction</text>
<text text-anchor="middle" x="1402.5" y="-163.5" font-family="Helvetica,sans-Serif" font-size="10.00">/MatrixElements.cpp</text>
</a>
</g>
</g>
<!-- Node1&#45;&gt;Node3 -->
<g id="edge2" class="edge">
<title>Node1&#45;&gt;Node3</title>
<path fill="none" stroke="midnightblue" d="M1111.57,-382.3C1129.63,-361.57 1156.05,-333.24 1182.5,-312 1241.43,-264.67 1318.43,-221.43 1363.96,-197.51"/>
<polygon fill="midnightblue" stroke="midnightblue" points="1108.71,-380.26 1104.84,-390.12 1114.02,-384.83 1108.71,-380.26"/>
</g>
<!-- Node4 -->
<g id="node4" class="node">
<title>Node4</title>
<g id="a_node4"><a xlink:href="QuantumDefect_8cpp.html" target="_top" xlink:title=" ">
<polygon fill="none" stroke="black" points="1191,-312.5 1191,-353.5 1356,-353.5 1356,-312.5 1191,-312.5"/>
<text text-anchor="start" x="1199" y="-341.5" font-family="Helvetica,sans-Serif" font-size="10.00">/__w/pairinteraction</text>
<text text-anchor="start" x="1199" y="-330.5" font-family="Helvetica,sans-Serif" font-size="10.00">/pairinteraction/pairinteraction</text>
<text text-anchor="middle" x="1273.5" y="-319.5" font-family="Helvetica,sans-Serif" font-size="10.00">/QuantumDefect.cpp</text>
</a>
</g>
</g>
<!-- Node1&#45;&gt;Node4 -->
<g id="edge3" class="edge">
<title>Node1&#45;&gt;Node4</title>
<path fill="none" stroke="midnightblue" d="M1145.44,-386.61C1171.26,-376 1201.44,-363.6 1226.02,-353.51"/>
<polygon fill="midnightblue" stroke="midnightblue" points="1144.06,-383.39 1136.14,-390.43 1146.72,-389.87 1144.06,-383.39"/>
</g>
<!-- Node5 -->
<g id="node5" class="node">
<title>Node5</title>
<g id="a_node5"><a xlink:href="State_8cpp.html" target="_top" xlink:title=" ">
<polygon fill="none" stroke="black" points="183,-156.5 183,-197.5 348,-197.5 348,-156.5 183,-156.5"/>
<text text-anchor="start" x="191" y="-185.5" font-family="Helvetica,sans-Serif" font-size="10.00">/__w/pairinteraction</text>
<text text-anchor="start" x="191" y="-174.5" font-family="Helvetica,sans-Serif" font-size="10.00">/pairinteraction/pairinteraction</text>
<text text-anchor="middle" x="265.5" y="-163.5" font-family="Helvetica,sans-Serif" font-size="10.00">/State.cpp</text>
</a>
</g>
</g>
<!-- Node1&#45;&gt;Node5 -->
<g id="edge4" class="edge">
<title>Node1&#45;&gt;Node5</title>
<path fill="none" stroke="midnightblue" d="M995.68,-402.03C912.03,-393.73 786.03,-378.47 678.5,-354 568.31,-328.92 539.86,-321.68 436.5,-276 384.7,-253.11 328.41,-218.86 295.08,-197.5"/>
<polygon fill="midnightblue" stroke="midnightblue" points="995.37,-405.51 1005.67,-403 996.05,-398.55 995.37,-405.51"/>
</g>
<!-- Node6 -->
<g id="node6" class="node">
<title>Node6</title>
<g id="a_node6"><a xlink:href="StateOld_8cpp.html" target="_top" xlink:title=" ">
<polygon fill="none" stroke="black" points="1374,-312.5 1374,-353.5 1539,-353.5 1539,-312.5 1374,-312.5"/>
<text text-anchor="start" x="1382" y="-341.5" font-family="Helvetica,sans-Serif" font-size="10.00">/__w/pairinteraction</text>
<text text-anchor="start" x="1382" y="-330.5" font-family="Helvetica,sans-Serif" font-size="10.00">/pairinteraction/pairinteraction</text>
<text text-anchor="middle" x="1456.5" y="-319.5" font-family="Helvetica,sans-Serif" font-size="10.00">/StateOld.cpp</text>
</a>
</g>
</g>
<!-- Node1&#45;&gt;Node6 -->
<g id="edge5" class="edge">
<title>Node1&#45;&gt;Node6</title>
<path fill="none" stroke="midnightblue" d="M1181.17,-391.67C1235.02,-380.92 1304.15,-366.94 1365.5,-354 1368.19,-353.43 1370.93,-352.85 1373.69,-352.26"/>
<polygon fill="midnightblue" stroke="midnightblue" points="1180.42,-388.25 1171.3,-393.64 1181.79,-395.12 1180.42,-388.25"/>
</g>
<!-- Node7 -->
<g id="node7" class="node">
<title>Node7</title>
<g id="a_node7"><a xlink:href="quantum__defect__test_8cpp.html" target="_top" xlink:title=" ">
<polygon fill="none" stroke="black" points="1557,-312.5 1557,-353.5 1746,-353.5 1746,-312.5 1557,-312.5"/>
<text text-anchor="start" x="1565" y="-341.5" font-family="Helvetica,sans-Serif" font-size="10.00">/__w/pairinteraction</text>
<text text-anchor="start" x="1565" y="-330.5" font-family="Helvetica,sans-Serif" font-size="10.00">/pairinteraction/pairinteraction</text>
<text text-anchor="middle" x="1651.5" y="-319.5" font-family="Helvetica,sans-Serif" font-size="10.00">/unit_test/quantum_defect_test.cpp</text>
</a>
</g>
</g>
<!-- Node1&#45;&gt;Node7 -->
<g id="edge6" class="edge">
<title>Node1&#45;&gt;Node7</title>
<path fill="none" stroke="midnightblue" d="M1180.96,-400.68C1274.04,-390.85 1421.6,-374.02 1548.5,-354 1551.29,-353.56 1554.12,-353.1 1556.97,-352.62"/>
<polygon fill="midnightblue" stroke="midnightblue" points="1180.59,-397.2 1171.01,-401.73 1181.32,-404.17 1180.59,-397.2"/>
</g>
<!-- Node8 -->
<g id="node8" class="node">
<title>Node8</title>
<g id="a_node8"><a xlink:href="wavefunction__test_8cpp.html" target="_top" xlink:title=" ">
<polygon fill="none" stroke="black" points="445.5,-234.5 445.5,-275.5 621.5,-275.5 621.5,-234.5 445.5,-234.5"/>
<text text-anchor="start" x="453.5" y="-263.5" font-family="Helvetica,sans-Serif" font-size="10.00">/__w/pairinteraction</text>
<text text-anchor="start" x="453.5" y="-252.5" font-family="Helvetica,sans-Serif" font-size="10.00">/pairinteraction/pairinteraction</text>
<text text-anchor="middle" x="533.5" y="-241.5" font-family="Helvetica,sans-Serif" font-size="10.00">/unit_test/wavefunction_test.cpp</text>
</a>
</g>
</g>
<!-- Node1&#45;&gt;Node8 -->
<g id="edge7" class="edge">
<title>Node1&#45;&gt;Node8</title>
<path fill="none" stroke="midnightblue" d="M996.13,-394.43C942.41,-384.57 873.64,-370.57 813.5,-354 731.32,-331.36 638.38,-297.04 582.93,-275.6"/>
<polygon fill="midnightblue" stroke="midnightblue" points="995.52,-397.87 1005.98,-396.22 996.77,-390.99 995.52,-397.87"/>
</g>
<!-- Node9 -->
<g id="node9" class="node">
<title>Node9</title>
<g id="a_node9"><a xlink:href="Wavefunction_8cpp.html" target="_top" xlink:title=" ">
<polygon fill="none" stroke="black" points="1006,-234.5 1006,-275.5 1171,-275.5 1171,-234.5 1006,-234.5"/>
<text text-anchor="start" x="1014" y="-263.5" font-family="Helvetica,sans-Serif" font-size="10.00">/__w/pairinteraction</text>
<text text-anchor="start" x="1014" y="-252.5" font-family="Helvetica,sans-Serif" font-size="10.00">/pairinteraction/pairinteraction</text>
<text text-anchor="middle" x="1088.5" y="-241.5" font-family="Helvetica,sans-Serif" font-size="10.00">/Wavefunction.cpp</text>
</a>
</g>
</g>
<!-- Node1&#45;&gt;Node9 -->
<g id="edge8" class="edge">
<title>Node1&#45;&gt;Node9</title>
<path fill="none" stroke="midnightblue" d="M1088.5,-380.36C1088.5,-349.61 1088.5,-302.36 1088.5,-275.83"/>
<polygon fill="midnightblue" stroke="midnightblue" points="1085,-380.5 1088.5,-390.5 1092,-380.5 1085,-380.5"/>
</g>
<!-- Node10 -->
<g id="node10" class="node">
<title>Node10</title>
<g id="a_node10"><a xlink:href="Wavefunction_8hpp.html" target="_top" xlink:title=" ">
<polygon fill="none" stroke="black" points="823,-312.5 823,-353.5 988,-353.5 988,-312.5 823,-312.5"/>
<text text-anchor="start" x="831" y="-341.5" font-family="Helvetica,sans-Serif" font-size="10.00">/__w/pairinteraction</text>
<text text-anchor="start" x="831" y="-330.5" font-family="Helvetica,sans-Serif" font-size="10.00">/pairinteraction/pairinteraction</text>
<text text-anchor="middle" x="905.5" y="-319.5" font-family="Helvetica,sans-Serif" font-size="10.00">/Wavefunction.hpp</text>
</a>
</g>
</g>
<!-- Node1&#45;&gt;Node10 -->
<g id="edge9" class="edge">
<title>Node1&#45;&gt;Node10</title>
<path fill="none" stroke="midnightblue" d="M1031.84,-386.47C1006.37,-375.89 976.67,-363.56 952.47,-353.51"/>
<polygon fill="midnightblue" stroke="midnightblue" points="1030.8,-389.82 1041.37,-390.43 1033.48,-383.36 1030.8,-389.82"/>
</g>
<!-- Node10&#45;&gt;Node8 -->
<g id="edge27" class="edge">
<title>Node10&#45;&gt;Node8</title>
<path fill="none" stroke="midnightblue" d="M812.64,-313.15C759.34,-302.31 691.15,-288.43 630.5,-276 627.55,-275.4 624.55,-274.78 621.53,-274.16"/>
<polygon fill="midnightblue" stroke="midnightblue" points="812.26,-316.64 822.76,-315.21 813.65,-309.78 812.26,-316.64"/>
</g>
<!-- Node10&#45;&gt;Node9 -->
<g id="edge28" class="edge">
<title>Node10&#45;&gt;Node9</title>
<path fill="none" stroke="midnightblue" d="M962.16,-308.47C987.63,-297.89 1017.33,-285.56 1041.53,-275.51"/>
<polygon fill="midnightblue" stroke="midnightblue" points="960.52,-305.36 952.63,-312.43 963.2,-311.82 960.52,-305.36"/>
</g>
<!-- Node11 -->
<g id="node11" class="node">
<title>Node11</title>
<g id="a_node11"><a xlink:href="MatrixElementCache_8hpp.html" target="_top" xlink:title=" ">
<polygon fill="none" stroke="black" points="640,-234.5 640,-275.5 805,-275.5 805,-234.5 640,-234.5"/>
<text text-anchor="start" x="648" y="-263.5" font-family="Helvetica,sans-Serif" font-size="10.00">/__w/pairinteraction</text>
<text text-anchor="start" x="648" y="-252.5" font-family="Helvetica,sans-Serif" font-size="10.00">/pairinteraction/pairinteraction</text>
<text text-anchor="middle" x="722.5" y="-241.5" font-family="Helvetica,sans-Serif" font-size="10.00">/MatrixElementCache.hpp</text>
</a>
</g>
</g>
<!-- Node10&#45;&gt;Node11 -->
<g id="edge10" class="edge">
<title>Node10&#45;&gt;Node11</title>
<path fill="none" stroke="midnightblue" d="M848.84,-308.47C823.37,-297.89 793.67,-285.56 769.47,-275.51"/>
<polygon fill="midnightblue" stroke="midnightblue" points="847.8,-311.82 858.37,-312.43 850.48,-305.36 847.8,-311.82"/>
</g>
<!-- Node17 -->
<g id="node17" class="node">
<title>Node17</title>
<g id="a_node17"><a xlink:href="MatrixElements_8hpp.html" target="_top" xlink:title=" ">
<polygon fill="none" stroke="black" points="823,-234.5 823,-275.5 988,-275.5 988,-234.5 823,-234.5"/>
<text text-anchor="start" x="831" y="-263.5" font-family="Helvetica,sans-Serif" font-size="10.00">/__w/pairinteraction</text>
<text text-anchor="start" x="831" y="-252.5" font-family="Helvetica,sans-Serif" font-size="10.00">/pairinteraction/pairinteraction</text>
<text text-anchor="middle" x="905.5" y="-241.5" font-family="Helvetica,sans-Serif" font-size="10.00">/MatrixElements.hpp</text>
</a>
</g>
</g>
<!-- Node10&#45;&gt;Node17 -->
<g id="edge18" class="edge">
<title>Node10&#45;&gt;Node17</title>
<path fill="none" stroke="midnightblue" d="M905.5,-302.3C905.5,-293.3 905.5,-283.65 905.5,-275.51"/>
<polygon fill="midnightblue" stroke="midnightblue" points="902,-302.43 905.5,-312.43 909,-302.43 902,-302.43"/>
</g>
<!-- Node11&#45;&gt;Node2 -->
<g id="edge11" class="edge">
<title>Node11&#45;&gt;Node2</title>
<path fill="none" stroke="midnightblue" d="M629.77,-234.01C427.16,-205.04 371.78,-227.46 173.5,-198 170.78,-197.6 168.02,-197.16 165.24,-196.69"/>
<polygon fill="midnightblue" stroke="midnightblue" points="629.45,-237.5 639.84,-235.48 630.45,-230.58 629.45,-237.5"/>
</g>
<!-- Node11&#45;&gt;Node5 -->
<g id="edge14" class="edge">
<title>Node11&#45;&gt;Node5</title>
<path fill="none" stroke="midnightblue" d="M629.71,-233.94C507.75,-213.25 474.29,-218.64 356.5,-198 353.79,-197.53 351.04,-197.03 348.27,-196.51"/>
<polygon fill="midnightblue" stroke="midnightblue" points="629.36,-237.44 639.81,-235.68 630.55,-230.54 629.36,-237.44"/>
</g>
<!-- Node12 -->
<g id="node12" class="node">
<title>Node12</title>
<g id="a_node12"><a xlink:href="PerturbativeInteraction_8hpp.html" target="_top" xlink:title=" ">
<polygon fill="none" stroke="black" points="549,-156.5 549,-197.5 714,-197.5 714,-156.5 549,-156.5"/>
<text text-anchor="start" x="557" y="-185.5" font-family="Helvetica,sans-Serif" font-size="10.00">/__w/pairinteraction</text>
<text text-anchor="start" x="557" y="-174.5" font-family="Helvetica,sans-Serif" font-size="10.00">/pairinteraction/pairinteraction</text>
<text text-anchor="middle" x="631.5" y="-163.5" font-family="Helvetica,sans-Serif" font-size="10.00">/PerturbativeInteraction.hpp</text>
</a>
</g>
</g>
<!-- Node11&#45;&gt;Node12 -->
<g id="edge12" class="edge">
<title>Node11&#45;&gt;Node12</title>
<path fill="none" stroke="midnightblue" d="M691.1,-227.78C679.21,-217.84 665.88,-206.72 654.86,-197.51"/>
<polygon fill="midnightblue" stroke="midnightblue" points="689.15,-230.7 699.07,-234.43 693.63,-225.33 689.15,-230.7"/>
</g>
<!-- Node14 -->
<g id="node14" class="node">
<title>Node14</title>
<g id="a_node14"><a xlink:href="SystemOne_8cpp.html" target="_top" xlink:title=" ">
<polygon fill="none" stroke="black" points="732,-156.5 732,-197.5 897,-197.5 897,-156.5 732,-156.5"/>
<text text-anchor="start" x="740" y="-185.5" font-family="Helvetica,sans-Serif" font-size="10.00">/__w/pairinteraction</text>
<text text-anchor="start" x="740" y="-174.5" font-family="Helvetica,sans-Serif" font-size="10.00">/pairinteraction/pairinteraction</text>
<text text-anchor="middle" x="814.5" y="-163.5" font-family="Helvetica,sans-Serif" font-size="10.00">/SystemOne.cpp</text>
</a>
</g>
</g>
<!-- Node11&#45;&gt;Node14 -->
<g id="edge15" class="edge">
<title>Node11&#45;&gt;Node14</title>
<path fill="none" stroke="midnightblue" d="M754.24,-227.78C766.27,-217.84 779.74,-206.72 790.89,-197.51"/>
<polygon fill="midnightblue" stroke="midnightblue" points="751.67,-225.36 746.19,-234.43 756.13,-230.76 751.67,-225.36"/>
</g>
<!-- Node15 -->
<g id="node15" class="node">
<title>Node15</title>
<g id="a_node15"><a xlink:href="SystemTwo_8cpp.html" target="_top" xlink:title=" ">
<polygon fill="none" stroke="black" points="915,-156.5 915,-197.5 1080,-197.5 1080,-156.5 915,-156.5"/>
<text text-anchor="start" x="923" y="-185.5" font-family="Helvetica,sans-Serif" font-size="10.00">/__w/pairinteraction</text>
<text text-anchor="start" x="923" y="-174.5" font-family="Helvetica,sans-Serif" font-size="10.00">/pairinteraction/pairinteraction</text>
<text text-anchor="middle" x="997.5" y="-163.5" font-family="Helvetica,sans-Serif" font-size="10.00">/SystemTwo.cpp</text>
</a>
</g>
</g>
<!-- Node11&#45;&gt;Node15 -->
<g id="edge16" class="edge">
<title>Node11&#45;&gt;Node15</title>
<path fill="none" stroke="midnightblue" d="M803.12,-231.72C842.36,-220.87 889.11,-207.96 926.92,-197.51"/>
<polygon fill="midnightblue" stroke="midnightblue" points="802.03,-228.39 793.32,-234.43 803.89,-235.14 802.03,-228.39"/>
</g>
<!-- Node16 -->
<g id="node16" class="node">
<title>Node16</title>
<g id="a_node16"><a xlink:href="integration__test_8cpp.html" target="_top" xlink:title=" ">
<polygon fill="none" stroke="black" points="366,-156.5 366,-197.5 531,-197.5 531,-156.5 366,-156.5"/>
<text text-anchor="start" x="374" y="-185.5" font-family="Helvetica,sans-Serif" font-size="10.00">/__w/pairinteraction</text>
<text text-anchor="start" x="374" y="-174.5" font-family="Helvetica,sans-Serif" font-size="10.00">/pairinteraction/pairinteraction</text>
<text text-anchor="middle" x="448.5" y="-163.5" font-family="Helvetica,sans-Serif" font-size="10.00">/unit_test/integration_test.cpp</text>
</a>
</g>
</g>
<!-- Node11&#45;&gt;Node16 -->
<g id="edge17" class="edge">
<title>Node11&#45;&gt;Node16</title>
<path fill="none" stroke="midnightblue" d="M642.17,-231.72C603.07,-220.87 556.5,-207.96 518.82,-197.51"/>
<polygon fill="midnightblue" stroke="midnightblue" points="641.37,-235.13 651.94,-234.43 643.24,-228.38 641.37,-235.13"/>
</g>
<!-- Node13 -->
<g id="node13" class="node">
<title>Node13</title>
<g id="a_node13"><a xlink:href="PerturbativeInteraction_8cpp.html" target="_top" xlink:title=" ">
<polygon fill="none" stroke="black" points="549,-78.5 549,-119.5 714,-119.5 714,-78.5 549,-78.5"/>
<text text-anchor="start" x="557" y="-107.5" font-family="Helvetica,sans-Serif" font-size="10.00">/__w/pairinteraction</text>
<text text-anchor="start" x="557" y="-96.5" font-family="Helvetica,sans-Serif" font-size="10.00">/pairinteraction/pairinteraction</text>
<text text-anchor="middle" x="631.5" y="-85.5" font-family="Helvetica,sans-Serif" font-size="10.00">/PerturbativeInteraction.cpp</text>
</a>
</g>
</g>
<!-- Node12&#45;&gt;Node13 -->
<g id="edge13" class="edge">
<title>Node12&#45;&gt;Node13</title>
<path fill="none" stroke="midnightblue" d="M631.5,-146.3C631.5,-137.3 631.5,-127.65 631.5,-119.51"/>
<polygon fill="midnightblue" stroke="midnightblue" points="628,-146.43 631.5,-156.43 635,-146.43 628,-146.43"/>
</g>
<!-- Node17&#45;&gt;Node3 -->
<g id="edge26" class="edge">
<title>Node17&#45;&gt;Node3</title>
<path fill="none" stroke="midnightblue" d="M998.22,-233.97C1135.19,-211.72 1172.63,-219.42 1305.5,-198 1310.17,-197.25 1314.95,-196.43 1319.77,-195.56"/>
<polygon fill="midnightblue" stroke="midnightblue" points="997.48,-230.55 988.18,-235.63 998.61,-237.45 997.48,-230.55"/>
</g>
<!-- Node18 -->
<g id="node18" class="node">
<title>Node18</title>
<g id="a_node18"><a xlink:href="HamiltonianOne_8hpp.html" target="_top" xlink:title=" ">
<polygon fill="none" stroke="black" points="1098,-156.5 1098,-197.5 1263,-197.5 1263,-156.5 1098,-156.5"/>
<text text-anchor="start" x="1106" y="-185.5" font-family="Helvetica,sans-Serif" font-size="10.00">/__w/pairinteraction</text>
<text text-anchor="start" x="1106" y="-174.5" font-family="Helvetica,sans-Serif" font-size="10.00">/pairinteraction/pairinteraction</text>
<text text-anchor="middle" x="1180.5" y="-163.5" font-family="Helvetica,sans-Serif" font-size="10.00">/HamiltonianOne.hpp</text>
</a>
</g>
</g>
<!-- Node17&#45;&gt;Node18 -->
<g id="edge19" class="edge">
<title>Node17&#45;&gt;Node18</title>
<path fill="none" stroke="midnightblue" d="M986.12,-231.72C1025.36,-220.87 1072.11,-207.96 1109.92,-197.51"/>
<polygon fill="midnightblue" stroke="midnightblue" points="985.03,-228.39 976.32,-234.43 986.89,-235.14 985.03,-228.39"/>
</g>
<!-- Node20 -->
<g id="node20" class="node">
<title>Node20</title>
<g id="a_node20"><a xlink:href="HamiltonianTwo_8hpp.html" target="_top" xlink:title=" ">
<polygon fill="none" stroke="black" points="1245,-78.5 1245,-119.5 1410,-119.5 1410,-78.5 1245,-78.5"/>
<text text-anchor="start" x="1253" y="-107.5" font-family="Helvetica,sans-Serif" font-size="10.00">/__w/pairinteraction</text>
<text text-anchor="start" x="1253" y="-96.5" font-family="Helvetica,sans-Serif" font-size="10.00">/pairinteraction/pairinteraction</text>
<text text-anchor="middle" x="1327.5" y="-85.5" font-family="Helvetica,sans-Serif" font-size="10.00">/HamiltonianTwo.hpp</text>
</a>
</g>
</g>
<!-- Node17&#45;&gt;Node20 -->
<g id="edge25" class="edge">
<title>Node17&#45;&gt;Node20</title>
<path fill="none" stroke="midnightblue" d="M998.17,-234.16C1072.66,-224.17 1223.74,-230.98 1272.5,-198 1299.81,-179.52 1315.03,-142.73 1322.22,-119.86"/>
<polygon fill="midnightblue" stroke="midnightblue" points="997.54,-230.71 988.19,-235.68 998.6,-237.63 997.54,-230.71"/>
</g>
<!-- Node19 -->
<g id="node19" class="node">
<title>Node19</title>
<g id="a_node19"><a xlink:href="HamiltonianOne_8cpp.html" target="_top" xlink:title=" ">
<polygon fill="none" stroke="black" points="1062,-78.5 1062,-119.5 1227,-119.5 1227,-78.5 1062,-78.5"/>
<text text-anchor="start" x="1070" y="-107.5" font-family="Helvetica,sans-Serif" font-size="10.00">/__w/pairinteraction</text>
<text text-anchor="start" x="1070" y="-96.5" font-family="Helvetica,sans-Serif" font-size="10.00">/pairinteraction/pairinteraction</text>
<text text-anchor="middle" x="1144.5" y="-85.5" font-family="Helvetica,sans-Serif" font-size="10.00">/HamiltonianOne.cpp</text>
</a>
</g>
</g>
<!-- Node18&#45;&gt;Node19 -->
<g id="edge20" class="edge">
<title>Node18&#45;&gt;Node19</title>
<path fill="none" stroke="midnightblue" d="M1166.85,-147.17C1162.47,-137.93 1157.72,-127.92 1153.74,-119.51"/>
<polygon fill="midnightblue" stroke="midnightblue" points="1163.79,-148.89 1171.23,-156.43 1170.11,-145.89 1163.79,-148.89"/>
</g>
<!-- Node18&#45;&gt;Node20 -->
<g id="edge21" class="edge">
<title>Node18&#45;&gt;Node20</title>
<path fill="none" stroke="midnightblue" d="M1227.37,-151.77C1247.52,-141.35 1270.76,-129.34 1289.77,-119.51"/>
<polygon fill="midnightblue" stroke="midnightblue" points="1225.63,-148.73 1218.36,-156.43 1228.85,-154.94 1225.63,-148.73"/>
</g>
<!-- Node22 -->
<g id="node22" class="node">
<title>Node22</title>
<g id="a_node22"><a xlink:href="Interface_8cpp.html" target="_top" xlink:title=" ">
<polygon fill="none" stroke="black" points="1007,-0.5 1007,-41.5 1172,-41.5 1172,-0.5 1007,-0.5"/>
<text text-anchor="start" x="1015" y="-29.5" font-family="Helvetica,sans-Serif" font-size="10.00">/__w/pairinteraction</text>
<text text-anchor="start" x="1015" y="-18.5" font-family="Helvetica,sans-Serif" font-size="10.00">/pairinteraction/pairinteraction</text>
<text text-anchor="middle" x="1089.5" y="-7.5" font-family="Helvetica,sans-Serif" font-size="10.00">/Interface.cpp</text>
</a>
</g>
</g>
<!-- Node18&#45;&gt;Node22 -->
<g id="edge24" class="edge">
<title>Node18&#45;&gt;Node22</title>
<path fill="none" stroke="midnightblue" d="M1090.04,-151.93C1075.57,-144.08 1062.44,-133.71 1053.5,-120 1037.36,-95.25 1056.37,-62.29 1072.31,-41.6"/>
<polygon fill="midnightblue" stroke="midnightblue" points="1088.69,-155.17 1099.2,-156.5 1091.81,-148.9 1088.69,-155.17"/>
</g>
<!-- Node21 -->
<g id="node21" class="node">
<title>Node21</title>
<g id="a_node21"><a xlink:href="HamiltonianTwo_8cpp.html" target="_top" xlink:title=" ">
<polygon fill="none" stroke="black" points="1245,-0.5 1245,-41.5 1410,-41.5 1410,-0.5 1245,-0.5"/>
<text text-anchor="start" x="1253" y="-29.5" font-family="Helvetica,sans-Serif" font-size="10.00">/__w/pairinteraction</text>
<text text-anchor="start" x="1253" y="-18.5" font-family="Helvetica,sans-Serif" font-size="10.00">/pairinteraction/pairinteraction</text>
<text text-anchor="middle" x="1327.5" y="-7.5" font-family="Helvetica,sans-Serif" font-size="10.00">/HamiltonianTwo.cpp</text>
</a>
</g>
</g>
<!-- Node20&#45;&gt;Node21 -->
<g id="edge22" class="edge">
<title>Node20&#45;&gt;Node21</title>
<path fill="none" stroke="midnightblue" d="M1327.5,-68.3C1327.5,-59.3 1327.5,-49.65 1327.5,-41.51"/>
<polygon fill="midnightblue" stroke="midnightblue" points="1324,-68.43 1327.5,-78.43 1331,-68.43 1324,-68.43"/>
</g>
<!-- Node20&#45;&gt;Node22 -->
<g id="edge23" class="edge">
<title>Node20&#45;&gt;Node22</title>
<path fill="none" stroke="midnightblue" d="M1256.43,-75.3C1222.74,-64.55 1182.89,-51.82 1150.58,-41.51"/>
<polygon fill="midnightblue" stroke="midnightblue" points="1255.62,-78.72 1266.21,-78.43 1257.75,-72.05 1255.62,-78.72"/>
</g>
</g>
</svg>
        <g id="navigator" transform="translate(0 0)" fill="#404254">
                <rect fill="#f2f5e9" fill-opacity="0.5" stroke="#606060" stroke-width=".5" x="0" y="0" width="60" height="60"/>
                <use id="zoomplus" xlink:href="#zoomPlus" x="17" y="9" onmousedown="handleZoom(evt,'in')"/>
                <use id="zoomminus" xlink:href="#zoomMin" x="42" y="9" onmousedown="handleZoom(evt,'out')"/>
                <use id="reset" xlink:href="#resetDef" x="30" y="36" onmousedown="handleReset()"/>
                <g id="arrowUp" xlink:href="#dirArrow" transform="translate(30 24)" onmousedown="handlePan(0,-1)">
                  <use xlink:href="#rim" fill="#404040">
                        <set attributeName="fill" to="#808080" begin="arrowUp.mouseover" end="arrowUp.mouseout"/>
                  </use>
                  <path fill="none" stroke="white" stroke-width="1.5" d="M0,-3.0v7 M-2.5,-0.5L0,-3.0L2.5,-0.5"/>
                </g>
                <g id="arrowRight" xlink:href="#dirArrow" transform="rotate(90) translate(36 -43)" onmousedown="handlePan(1,0)">
                  <use xlink:href="#rim" fill="#404040">
                        <set attributeName="fill" to="#808080" begin="arrowRight.mouseover" end="arrowRight.mouseout"/>
                  </use>
                  <path fill="none" stroke="white" stroke-width="1.5" d="M0,-3.0v7 M-2.5,-0.5L0,-3.0L2.5,-0.5"/>
                </g>
                <g id="arrowDown" xlink:href="#dirArrow" transform="rotate(180) translate(-30 -48)" onmousedown="handlePan(0,1)">
                  <use xlink:href="#rim" fill="#404040">
                        <set attributeName="fill" to="#808080" begin="arrowDown.mouseover" end="arrowDown.mouseout"/>
                  </use>
                  <path fill="none" stroke="white" stroke-width="1.5" d="M0,-3.0v7 M-2.5,-0.5L0,-3.0L2.5,-0.5"/>
                </g>
                <g id="arrowLeft" xlink:href="#dirArrow" transform="rotate(270) translate(-36 17)" onmousedown="handlePan(-1,0)">
                  <use xlink:href="#rim" fill="#404040">
                        <set attributeName="fill" to="#808080" begin="arrowLeft.mouseover" end="arrowLeft.mouseout"/>
                  </use>
                  <path fill="none" stroke="white" stroke-width="1.5" d="M0,-3.0v7 M-2.5,-0.5L0,-3.0L2.5,-0.5"/>
                </g>
        </g>
        <svg viewBox="0 0 15 15" width="100%" height="30px" preserveAspectRatio="xMaxYMin meet">
         <g id="arrow_out" transform="scale(0.3 0.3)">
          <a xlink:href="QuantumDefect_8hpp__dep__incl_org.svg" target="_base">
           <rect id="button" ry="5" rx="5" y="6" x="6" height="38" width="38"
                fill="#f2f5e9" fill-opacity="0.5" stroke="#606060" stroke-width="1.0"/>
           <path id="arrow"
             d="M 11.500037,31.436501 C 11.940474,20.09759 22.043105,11.32322 32.158766,21.979434 L 37.068811,17.246167 C 37.068811,17.246167 37.088388,32 37.088388,32 L 22.160133,31.978069 C 22.160133,31.978069 26.997745,27.140456 26.997745,27.140456 C 18.528582,18.264221 13.291696,25.230495 11.500037,31.436501 z"
             style="fill:#404040;"/>
          </a>
         </g>
        </svg>
</svg>
