<?xml version="1.0" encoding="UTF-8" standalone="no"?>
<!DOCTYPE svg PUBLIC "-//W3C//DTD SVG 1.1//EN"
 "http://www.w3.org/Graphics/SVG/1.1/DTD/svg11.dtd">
<!-- Generated by graphviz version 2.43.0 (0)
 -->
<!-- Title: /__w/pairinteraction/pairinteraction/pairinteraction/SQLite.hpp Pages: 1 -->
<!--zoomable 518 -->
<svg id="main" version="1.1" xmlns="http://www.w3.org/2000/svg" xmlns:xlink="http://www.w3.org/1999/xlink" xml:space="preserve" onload="init(evt)">
<style type="text/css"><![CDATA[
.edge:hover path { stroke: red; }
.edge:hover polygon { stroke: red; fill: red; }
]]></style>
<script type="text/javascript"><![CDATA[
var edges = document.getElementsByTagName('g');
if (edges && edges.length) {
  for (var i=0;i<edges.length;i++) {
    if (edges[i].id.substr(0,4)=='edge') {
      edges[i].setAttribute('class','edge');
    }
  }
}
]]></script>
        <defs>
                <circle id="rim" cx="0" cy="0" r="7"/>
                <circle id="rim2" cx="0" cy="0" r="3.5"/>
                <g id="zoomPlus">
                        <use xlink:href="#rim" fill="#404040">
                                <set attributeName="fill" to="#808080" begin="zoomplus.mouseover" end="zoomplus.mouseout"/>
                        </use>
                        <path d="M-4,0h8M0,-4v8" fill="none" stroke="white" stroke-width="1.5" pointer-events="none"/>
                </g>
                <g id="zoomMin">
                        <use xlink:href="#rim" fill="#404040">
                                <set attributeName="fill" to="#808080" begin="zoomminus.mouseover" end="zoomminus.mouseout"/>
                        </use>
                        <path d="M-4,0h8" fill="none" stroke="white" stroke-width="1.5" pointer-events="none"/>
                </g>
                <g id="dirArrow">
                        <path fill="none" stroke="white" stroke-width="1.5" d="M0,-3.0v7 M-2.5,-0.5L0,-3.0L2.5,-0.5"/>
                </g>
               <g id="resetDef">
                       <use xlink:href="#rim2" fill="#404040">
                               <set attributeName="fill" to="#808080" begin="reset.mouseover" end="reset.mouseout"/>
                       </use>
               </g>
        </defs>

<script type="text/javascript">
var viewWidth = 1532;
var viewHeight = 518;
var sectionId = 'dynsection-1';
</script>
<script xlink:href="svgpan.js"/>
<svg id="graph" class="graph">
<g id="viewport">
<title>/__w/pairinteraction/pairinteraction/pairinteraction/SQLite.hpp</title>
<!-- Node1 -->
<g id="node1" class="node">
<title>Node1</title>
<g id="a_node1"><a xlink:title=" ">
<polygon fill="#bfbfbf" stroke="black" points="481,-468.5 481,-509.5 646,-509.5 646,-468.5 481,-468.5"/>
<text text-anchor="start" x="489" y="-497.5" font-family="Helvetica,sans-Serif" font-size="10.00">/__w/pairinteraction</text>
<text text-anchor="start" x="489" y="-486.5" font-family="Helvetica,sans-Serif" font-size="10.00">/pairinteraction/pairinteraction</text>
<text text-anchor="middle" x="563.5" y="-475.5" font-family="Helvetica,sans-Serif" font-size="10.00">/SQLite.hpp</text>
</a>
</g>
</g>
<!-- Node2 -->
<g id="node2" class="node">
<title>Node2</title>
<g id="a_node2"><a xlink:href="HamiltonianOne_8hpp.html" target="_top" xlink:title=" ">
<polygon fill="none" stroke="black" points="0,-156.5 0,-197.5 165,-197.5 165,-156.5 0,-156.5"/>
<text text-anchor="start" x="8" y="-185.5" font-family="Helvetica,sans-Serif" font-size="10.00">/__w/pairinteraction</text>
<text text-anchor="start" x="8" y="-174.5" font-family="Helvetica,sans-Serif" font-size="10.00">/pairinteraction/pairinteraction</text>
<text text-anchor="middle" x="82.5" y="-163.5" font-family="Helvetica,sans-Serif" font-size="10.00">/HamiltonianOne.hpp</text>
</a>
</g>
</g>
<!-- Node1&#45;&gt;Node2 -->
<g id="edge1" class="edge">
<title>Node1&#45;&gt;Node2</title>
<path fill="none" stroke="midnightblue" d="M470.69,-480.45C388.63,-472.27 276.39,-456.92 239.5,-432 151.87,-372.8 104.2,-246.66 88.45,-197.85"/>
<polygon fill="midnightblue" stroke="midnightblue" points="470.5,-483.95 480.79,-481.44 471.18,-476.98 470.5,-483.95"/>
</g>
<!-- Node4 -->
<g id="node4" class="node">
<title>Node4</title>
<g id="a_node4"><a xlink:href="HamiltonianTwo_8hpp.html" target="_top" xlink:title=" ">
<polygon fill="none" stroke="black" points="404,-78.5 404,-119.5 569,-119.5 569,-78.5 404,-78.5"/>
<text text-anchor="start" x="412" y="-107.5" font-family="Helvetica,sans-Serif" font-size="10.00">/__w/pairinteraction</text>
<text text-anchor="start" x="412" y="-96.5" font-family="Helvetica,sans-Serif" font-size="10.00">/pairinteraction/pairinteraction</text>
<text text-anchor="middle" x="486.5" y="-85.5" font-family="Helvetica,sans-Serif" font-size="10.00">/HamiltonianTwo.hpp</text>
</a>
</g>
</g>
<!-- Node1&#45;&gt;Node4 -->
<g id="edge7" class="edge">
<title>Node1&#45;&gt;Node4</title>
<path fill="none" stroke="midnightblue" d="M656.42,-488.62C860.64,-487.48 1330.5,-470.07 1330.5,-334 1330.5,-334 1330.5,-334 1330.5,-254 1330.5,-209.63 1344.75,-185.37 1311.5,-156 1256.73,-107.62 767.13,-100.77 569.09,-100"/>
<polygon fill="midnightblue" stroke="midnightblue" points="656.3,-485.12 646.31,-488.66 656.33,-492.12 656.3,-485.12"/>
</g>
<!-- Node7 -->
<g id="node7" class="node">
<title>Node7</title>
<g id="a_node7"><a xlink:href="MatrixElementCache_8cpp.html" target="_top" xlink:title=" ">
<polygon fill="none" stroke="black" points="183,-156.5 183,-197.5 348,-197.5 348,-156.5 183,-156.5"/>
<text text-anchor="start" x="191" y="-185.5" font-family="Helvetica,sans-Serif" font-size="10.00">/__w/pairinteraction</text>
<text text-anchor="start" x="191" y="-174.5" font-family="Helvetica,sans-Serif" font-size="10.00">/pairinteraction/pairinteraction</text>
<text text-anchor="middle" x="265.5" y="-163.5" font-family="Helvetica,sans-Serif" font-size="10.00">/MatrixElementCache.cpp</text>
</a>
</g>
</g>
<!-- Node1&#45;&gt;Node7 -->
<g id="edge8" class="edge">
<title>Node1&#45;&gt;Node7</title>
<path fill="none" stroke="midnightblue" d="M470.97,-478.66C398.9,-469.82 306.11,-454.53 275.5,-432 243.79,-408.66 243.13,-392.18 233.5,-354 219.38,-297.99 242.67,-230.46 256.46,-197.72"/>
<polygon fill="midnightblue" stroke="midnightblue" points="470.65,-482.14 481,-479.86 471.48,-475.19 470.65,-482.14"/>
</g>
<!-- Node8 -->
<g id="node8" class="node">
<title>Node8</title>
<g id="a_node8"><a xlink:href="MatrixElements_8cpp.html" target="_top" xlink:title=" ">
<polygon fill="none" stroke="black" points="366,-156.5 366,-197.5 531,-197.5 531,-156.5 366,-156.5"/>
<text text-anchor="start" x="374" y="-185.5" font-family="Helvetica,sans-Serif" font-size="10.00">/__w/pairinteraction</text>
<text text-anchor="start" x="374" y="-174.5" font-family="Helvetica,sans-Serif" font-size="10.00">/pairinteraction/pairinteraction</text>
<text text-anchor="middle" x="448.5" y="-163.5" font-family="Helvetica,sans-Serif" font-size="10.00">/MatrixElements.cpp</text>
</a>
</g>
</g>
<!-- Node1&#45;&gt;Node8 -->
<g id="edge9" class="edge">
<title>Node1&#45;&gt;Node8</title>
<path fill="none" stroke="midnightblue" d="M470.73,-477.27C395.49,-463.06 294.34,-430.13 246.5,-354 202.45,-283.9 317.31,-226.19 391.4,-197.54"/>
<polygon fill="midnightblue" stroke="midnightblue" points="470.24,-480.74 480.7,-479.08 471.48,-473.85 470.24,-480.74"/>
</g>
<!-- Node9 -->
<g id="node9" class="node">
<title>Node9</title>
<g id="a_node9"><a xlink:href="QuantumDefect_8cpp.html" target="_top" xlink:title=" ">
<polygon fill="none" stroke="black" points="256,-312.5 256,-353.5 421,-353.5 421,-312.5 256,-312.5"/>
<text text-anchor="start" x="264" y="-341.5" font-family="Helvetica,sans-Serif" font-size="10.00">/__w/pairinteraction</text>
<text text-anchor="start" x="264" y="-330.5" font-family="Helvetica,sans-Serif" font-size="10.00">/pairinteraction/pairinteraction</text>
<text text-anchor="middle" x="338.5" y="-319.5" font-family="Helvetica,sans-Serif" font-size="10.00">/QuantumDefect.cpp</text>
</a>
</g>
</g>
<!-- Node1&#45;&gt;Node9 -->
<g id="edge10" class="edge">
<title>Node1&#45;&gt;Node9</title>
<path fill="none" stroke="midnightblue" d="M520.86,-463.12C505.16,-453.67 487.34,-442.62 471.5,-432 433.15,-406.27 390.43,-374.15 364.01,-353.84"/>
<polygon fill="midnightblue" stroke="midnightblue" points="519.46,-466.35 529.84,-468.48 523.05,-460.35 519.46,-466.35"/>
</g>
<!-- Node10 -->
<g id="node10" class="node">
<title>Node10</title>
<g id="a_node10"><a xlink:href="QuantumDefect_8hpp.html" target="_top" xlink:title=" ">
<polygon fill="none" stroke="black" points="481,-390.5 481,-431.5 646,-431.5 646,-390.5 481,-390.5"/>
<text text-anchor="start" x="489" y="-419.5" font-family="Helvetica,sans-Serif" font-size="10.00">/__w/pairinteraction</text>
<text text-anchor="start" x="489" y="-408.5" font-family="Helvetica,sans-Serif" font-size="10.00">/pairinteraction/pairinteraction</text>
<text text-anchor="middle" x="563.5" y="-397.5" font-family="Helvetica,sans-Serif" font-size="10.00">/QuantumDefect.hpp</text>
</a>
</g>
</g>
<!-- Node1&#45;&gt;Node10 -->
<g id="edge11" class="edge">
<title>Node1&#45;&gt;Node10</title>
<path fill="none" stroke="midnightblue" d="M563.5,-458.3C563.5,-449.3 563.5,-439.65 563.5,-431.51"/>
<polygon fill="midnightblue" stroke="midnightblue" points="560,-458.43 563.5,-468.43 567,-458.43 560,-458.43"/>
</g>
<!-- Node13 -->
<g id="node13" class="node">
<title>Node13</title>
<g id="a_node13"><a xlink:href="quantum__defect__test_8cpp.html" target="_top" xlink:title=" ">
<polygon fill="none" stroke="black" points="997,-312.5 997,-353.5 1186,-353.5 1186,-312.5 997,-312.5"/>
<text text-anchor="start" x="1005" y="-341.5" font-family="Helvetica,sans-Serif" font-size="10.00">/__w/pairinteraction</text>
<text text-anchor="start" x="1005" y="-330.5" font-family="Helvetica,sans-Serif" font-size="10.00">/pairinteraction/pairinteraction</text>
<text text-anchor="middle" x="1091.5" y="-319.5" font-family="Helvetica,sans-Serif" font-size="10.00">/unit_test/quantum_defect_test.cpp</text>
</a>
</g>
</g>
<!-- Node1&#45;&gt;Node13 -->
<g id="edge35" class="edge">
<title>Node1&#45;&gt;Node13</title>
<path fill="none" stroke="midnightblue" d="M640.13,-465.65C743.52,-435.49 926.05,-382.26 1024.34,-353.59"/>
<polygon fill="midnightblue" stroke="midnightblue" points="638.99,-462.34 630.37,-468.5 640.95,-469.06 638.99,-462.34"/>
</g>
<!-- Node14 -->
<g id="node14" class="node">
<title>Node14</title>
<g id="a_node14"><a xlink:href="wavefunction__test_8cpp.html" target="_top" xlink:title=" ">
<polygon fill="none" stroke="black" points="958.5,-234.5 958.5,-275.5 1134.5,-275.5 1134.5,-234.5 958.5,-234.5"/>
<text text-anchor="start" x="966.5" y="-263.5" font-family="Helvetica,sans-Serif" font-size="10.00">/__w/pairinteraction</text>
<text text-anchor="start" x="966.5" y="-252.5" font-family="Helvetica,sans-Serif" font-size="10.00">/pairinteraction/pairinteraction</text>
<text text-anchor="middle" x="1046.5" y="-241.5" font-family="Helvetica,sans-Serif" font-size="10.00">/unit_test/wavefunction_test.cpp</text>
</a>
</g>
</g>
<!-- Node1&#45;&gt;Node14 -->
<g id="edge37" class="edge">
<title>Node1&#45;&gt;Node14</title>
<path fill="none" stroke="midnightblue" d="M656.51,-482.29C815.54,-470.36 1129.03,-436.72 1195.5,-354 1207.19,-339.45 1206.13,-327.35 1195.5,-312 1181.18,-291.33 1158.22,-278.27 1134.56,-270.04"/>
<polygon fill="midnightblue" stroke="midnightblue" points="655.98,-478.82 646.26,-483.04 656.49,-485.8 655.98,-478.82"/>
</g>
<!-- Node24 -->
<g id="node24" class="node">
<title>Node24</title>
<g id="a_node24"><a xlink:href="sqlite__test_8cpp.html" target="_top" xlink:title=" ">
<polygon fill="none" stroke="black" points="1359,-390.5 1359,-431.5 1524,-431.5 1524,-390.5 1359,-390.5"/>
<text text-anchor="start" x="1367" y="-419.5" font-family="Helvetica,sans-Serif" font-size="10.00">/__w/pairinteraction</text>
<text text-anchor="start" x="1367" y="-408.5" font-family="Helvetica,sans-Serif" font-size="10.00">/pairinteraction/pairinteraction</text>
<text text-anchor="middle" x="1441.5" y="-397.5" font-family="Helvetica,sans-Serif" font-size="10.00">/unit_test/sqlite_test.cpp</text>
</a>
</g>
</g>
<!-- Node1&#45;&gt;Node24 -->
<g id="edge36" class="edge">
<title>Node1&#45;&gt;Node24</title>
<path fill="none" stroke="midnightblue" d="M656.55,-485.29C803.36,-480.13 1097.44,-466.18 1344.5,-432 1349.18,-431.35 1353.98,-430.61 1358.81,-429.81"/>
<polygon fill="midnightblue" stroke="midnightblue" points="656.11,-481.8 646.24,-485.65 656.36,-488.8 656.11,-481.8"/>
</g>
<!-- Node3 -->
<g id="node3" class="node">
<title>Node3</title>
<g id="a_node3"><a xlink:href="HamiltonianOne_8cpp.html" target="_top" xlink:title=" ">
<polygon fill="none" stroke="black" points="111,-78.5 111,-119.5 276,-119.5 276,-78.5 111,-78.5"/>
<text text-anchor="start" x="119" y="-107.5" font-family="Helvetica,sans-Serif" font-size="10.00">/__w/pairinteraction</text>
<text text-anchor="start" x="119" y="-96.5" font-family="Helvetica,sans-Serif" font-size="10.00">/pairinteraction/pairinteraction</text>
<text text-anchor="middle" x="193.5" y="-85.5" font-family="Helvetica,sans-Serif" font-size="10.00">/HamiltonianOne.cpp</text>
</a>
</g>
</g>
<!-- Node2&#45;&gt;Node3 -->
<g id="edge2" class="edge">
<title>Node2&#45;&gt;Node3</title>
<path fill="none" stroke="midnightblue" d="M119.55,-150.64C134.37,-140.49 151.17,-128.98 165.01,-119.51"/>
<polygon fill="midnightblue" stroke="midnightblue" points="117.36,-147.89 111.09,-156.43 121.31,-153.67 117.36,-147.89"/>
</g>
<!-- Node2&#45;&gt;Node4 -->
<g id="edge3" class="edge">
<title>Node2&#45;&gt;Node4</title>
<path fill="none" stroke="midnightblue" d="M175.15,-155.7C258.22,-139.27 343.16,-124.28 403.96,-113.86"/>
<polygon fill="midnightblue" stroke="midnightblue" points="174.42,-152.28 165.3,-157.66 175.79,-159.14 174.42,-152.28"/>
</g>
<!-- Node6 -->
<g id="node6" class="node">
<title>Node6</title>
<g id="a_node6"><a xlink:href="Interface_8cpp.html" target="_top" xlink:title=" ">
<polygon fill="none" stroke="black" points="74,-0.5 74,-41.5 239,-41.5 239,-0.5 74,-0.5"/>
<text text-anchor="start" x="82" y="-29.5" font-family="Helvetica,sans-Serif" font-size="10.00">/__w/pairinteraction</text>
<text text-anchor="start" x="82" y="-18.5" font-family="Helvetica,sans-Serif" font-size="10.00">/pairinteraction/pairinteraction</text>
<text text-anchor="middle" x="156.5" y="-7.5" font-family="Helvetica,sans-Serif" font-size="10.00">/Interface.cpp</text>
</a>
</g>
</g>
<!-- Node2&#45;&gt;Node6 -->
<g id="edge6" class="edge">
<title>Node2&#45;&gt;Node6</title>
<path fill="none" stroke="midnightblue" d="M83.79,-146.3C85.71,-126.06 90.36,-99.2 101.5,-78 108.79,-64.13 120.63,-51.42 131.46,-41.63"/>
<polygon fill="midnightblue" stroke="midnightblue" points="80.28,-146.26 83,-156.5 87.26,-146.8 80.28,-146.26"/>
</g>
<!-- Node5 -->
<g id="node5" class="node">
<title>Node5</title>
<g id="a_node5"><a xlink:href="HamiltonianTwo_8cpp.html" target="_top" xlink:title=" ">
<polygon fill="none" stroke="black" points="404,-0.5 404,-41.5 569,-41.5 569,-0.5 404,-0.5"/>
<text text-anchor="start" x="412" y="-29.5" font-family="Helvetica,sans-Serif" font-size="10.00">/__w/pairinteraction</text>
<text text-anchor="start" x="412" y="-18.5" font-family="Helvetica,sans-Serif" font-size="10.00">/pairinteraction/pairinteraction</text>
<text text-anchor="middle" x="486.5" y="-7.5" font-family="Helvetica,sans-Serif" font-size="10.00">/HamiltonianTwo.cpp</text>
</a>
</g>
</g>
<!-- Node4&#45;&gt;Node5 -->
<g id="edge4" class="edge">
<title>Node4&#45;&gt;Node5</title>
<path fill="none" stroke="midnightblue" d="M486.5,-68.3C486.5,-59.3 486.5,-49.65 486.5,-41.51"/>
<polygon fill="midnightblue" stroke="midnightblue" points="483,-68.43 486.5,-78.43 490,-68.43 483,-68.43"/>
</g>
<!-- Node4&#45;&gt;Node6 -->
<g id="edge5" class="edge">
<title>Node4&#45;&gt;Node6</title>
<path fill="none" stroke="midnightblue" d="M393.76,-76.64C345.15,-65.45 286.12,-51.85 239.09,-41.02"/>
<polygon fill="midnightblue" stroke="midnightblue" points="393.12,-80.09 403.65,-78.92 394.69,-73.27 393.12,-80.09"/>
</g>
<!-- Node10&#45;&gt;Node7 -->
<g id="edge12" class="edge">
<title>Node10&#45;&gt;Node7</title>
<path fill="none" stroke="midnightblue" d="M511.48,-385.73C495.27,-376.92 477.88,-366.12 463.5,-354 445.14,-338.52 448.52,-326.66 429.5,-312 398.62,-288.2 380.71,-299.36 349.5,-276 319.72,-253.71 293.24,-219.12 278.3,-197.56"/>
<polygon fill="midnightblue" stroke="midnightblue" points="509.87,-388.83 520.35,-390.41 513.14,-382.65 509.87,-388.83"/>
</g>
<!-- Node10&#45;&gt;Node8 -->
<g id="edge13" class="edge">
<title>Node10&#45;&gt;Node8</title>
<path fill="none" stroke="midnightblue" d="M533.05,-383.6C522.82,-374.44 511.48,-363.97 501.5,-354 483.69,-336.21 484.48,-325.92 463.5,-312 423.09,-285.19 388.57,-315.54 360.5,-276 349.7,-260.78 351.52,-250.36 360.5,-234 369.13,-218.28 384.24,-206.35 399.54,-197.62"/>
<polygon fill="midnightblue" stroke="midnightblue" points="530.81,-386.29 540.61,-390.31 535.46,-381.06 530.81,-386.29"/>
</g>
<!-- Node10&#45;&gt;Node9 -->
<g id="edge14" class="edge">
<title>Node10&#45;&gt;Node9</title>
<path fill="none" stroke="midnightblue" d="M495.9,-387.17C464.13,-376.44 426.66,-363.78 396.25,-353.51"/>
<polygon fill="midnightblue" stroke="midnightblue" points="494.96,-390.54 505.56,-390.43 497.2,-383.91 494.96,-390.54"/>
</g>
<!-- Node11 -->
<g id="node11" class="node">
<title>Node11</title>
<g id="a_node11"><a xlink:href="State_8cpp.html" target="_top" xlink:title=" ">
<polygon fill="none" stroke="black" points="588,-156.5 588,-197.5 753,-197.5 753,-156.5 588,-156.5"/>
<text text-anchor="start" x="596" y="-185.5" font-family="Helvetica,sans-Serif" font-size="10.00">/__w/pairinteraction</text>
<text text-anchor="start" x="596" y="-174.5" font-family="Helvetica,sans-Serif" font-size="10.00">/pairinteraction/pairinteraction</text>
<text text-anchor="middle" x="670.5" y="-163.5" font-family="Helvetica,sans-Serif" font-size="10.00">/State.cpp</text>
</a>
</g>
</g>
<!-- Node10&#45;&gt;Node11 -->
<g id="edge15" class="edge">
<title>Node10&#45;&gt;Node11</title>
<path fill="none" stroke="midnightblue" d="M561.36,-380.31C561.48,-358.65 565.37,-330.04 582.5,-312 628.22,-263.85 686.59,-328.3 727.5,-276 739,-261.3 734.72,-251.21 727.5,-234 721.49,-219.67 709.83,-207.16 698.61,-197.62"/>
<polygon fill="midnightblue" stroke="midnightblue" points="557.86,-380.39 561.57,-390.31 564.86,-380.24 557.86,-380.39"/>
</g>
<!-- Node12 -->
<g id="node12" class="node">
<title>Node12</title>
<g id="a_node12"><a xlink:href="StateOld_8cpp.html" target="_top" xlink:title=" ">
<polygon fill="none" stroke="black" points="592,-312.5 592,-353.5 757,-353.5 757,-312.5 592,-312.5"/>
<text text-anchor="start" x="600" y="-341.5" font-family="Helvetica,sans-Serif" font-size="10.00">/__w/pairinteraction</text>
<text text-anchor="start" x="600" y="-330.5" font-family="Helvetica,sans-Serif" font-size="10.00">/pairinteraction/pairinteraction</text>
<text text-anchor="middle" x="674.5" y="-319.5" font-family="Helvetica,sans-Serif" font-size="10.00">/StateOld.cpp</text>
</a>
</g>
</g>
<!-- Node10&#45;&gt;Node12 -->
<g id="edge16" class="edge">
<title>Node10&#45;&gt;Node12</title>
<path fill="none" stroke="midnightblue" d="M600.55,-384.64C615.37,-374.49 632.17,-362.98 646.01,-353.51"/>
<polygon fill="midnightblue" stroke="midnightblue" points="598.36,-381.89 592.09,-390.43 602.31,-387.67 598.36,-381.89"/>
</g>
<!-- Node10&#45;&gt;Node13 -->
<g id="edge17" class="edge">
<title>Node10&#45;&gt;Node13</title>
<path fill="none" stroke="midnightblue" d="M656.5,-398.89C741.53,-388.41 870.71,-371.72 982.5,-354 987.16,-353.26 991.92,-352.48 996.73,-351.68"/>
<polygon fill="midnightblue" stroke="midnightblue" points="655.85,-395.44 646.35,-400.13 656.71,-402.39 655.85,-395.44"/>
</g>
<!-- Node10&#45;&gt;Node14 -->
<g id="edge18" class="edge">
<title>Node10&#45;&gt;Node14</title>
<path fill="none" stroke="midnightblue" d="M656.55,-403.63C754.13,-395.7 900.06,-379.94 949.5,-354 972.06,-342.16 970.66,-330.19 988.5,-312 1000.55,-299.71 1014.41,-286.3 1025.56,-275.69"/>
<polygon fill="midnightblue" stroke="midnightblue" points="656.07,-400.16 646.38,-404.44 656.62,-407.14 656.07,-400.16"/>
</g>
<!-- Node15 -->
<g id="node15" class="node">
<title>Node15</title>
<g id="a_node15"><a xlink:href="Wavefunction_8cpp.html" target="_top" xlink:title=" ">
<polygon fill="none" stroke="black" points="370,-234.5 370,-275.5 535,-275.5 535,-234.5 370,-234.5"/>
<text text-anchor="start" x="378" y="-263.5" font-family="Helvetica,sans-Serif" font-size="10.00">/__w/pairinteraction</text>
<text text-anchor="start" x="378" y="-252.5" font-family="Helvetica,sans-Serif" font-size="10.00">/pairinteraction/pairinteraction</text>
<text text-anchor="middle" x="452.5" y="-241.5" font-family="Helvetica,sans-Serif" font-size="10.00">/Wavefunction.cpp</text>
</a>
</g>
</g>
<!-- Node10&#45;&gt;Node15 -->
<g id="edge19" class="edge">
<title>Node10&#45;&gt;Node15</title>
<path fill="none" stroke="midnightblue" d="M547.14,-381.62C535.23,-361.63 518.32,-334.52 501.5,-312 492.07,-299.37 480.5,-286.06 470.97,-275.59"/>
<polygon fill="midnightblue" stroke="midnightblue" points="544.14,-383.42 552.24,-390.26 550.17,-379.87 544.14,-383.42"/>
</g>
<!-- Node16 -->
<g id="node16" class="node">
<title>Node16</title>
<g id="a_node16"><a xlink:href="Wavefunction_8hpp.html" target="_top" xlink:title=" ">
<polygon fill="none" stroke="black" points="775,-312.5 775,-353.5 940,-353.5 940,-312.5 775,-312.5"/>
<text text-anchor="start" x="783" y="-341.5" font-family="Helvetica,sans-Serif" font-size="10.00">/__w/pairinteraction</text>
<text text-anchor="start" x="783" y="-330.5" font-family="Helvetica,sans-Serif" font-size="10.00">/pairinteraction/pairinteraction</text>
<text text-anchor="middle" x="857.5" y="-319.5" font-family="Helvetica,sans-Serif" font-size="10.00">/Wavefunction.hpp</text>
</a>
</g>
</g>
<!-- Node10&#45;&gt;Node16 -->
<g id="edge20" class="edge">
<title>Node10&#45;&gt;Node16</title>
<path fill="none" stroke="midnightblue" d="M648.9,-387.92C691.01,-377.04 741.36,-364.02 782.04,-353.51"/>
<polygon fill="midnightblue" stroke="midnightblue" points="648.02,-384.54 639.21,-390.43 649.77,-391.31 648.02,-384.54"/>
</g>
<!-- Node16&#45;&gt;Node14 -->
<g id="edge33" class="edge">
<title>Node16&#45;&gt;Node14</title>
<path fill="none" stroke="midnightblue" d="M915.67,-308.61C942.05,-298 972.89,-285.6 997.99,-275.51"/>
<polygon fill="midnightblue" stroke="midnightblue" points="914.14,-305.45 906.17,-312.43 916.76,-311.94 914.14,-305.45"/>
</g>
<!-- Node16&#45;&gt;Node15 -->
<g id="edge34" class="edge">
<title>Node16&#45;&gt;Node15</title>
<path fill="none" stroke="midnightblue" d="M764.63,-311.69C666.14,-293.3 638.94,-294.18 543.5,-276 540.8,-275.49 538.05,-274.95 535.29,-274.4"/>
<polygon fill="midnightblue" stroke="midnightblue" points="764.24,-315.18 774.71,-313.6 765.54,-308.3 764.24,-315.18"/>
</g>
<!-- Node17 -->
<g id="node17" class="node">
<title>Node17</title>
<g id="a_node17"><a xlink:href="MatrixElementCache_8hpp.html" target="_top" xlink:title=" ">
<polygon fill="none" stroke="black" points="775,-234.5 775,-275.5 940,-275.5 940,-234.5 775,-234.5"/>
<text text-anchor="start" x="783" y="-263.5" font-family="Helvetica,sans-Serif" font-size="10.00">/__w/pairinteraction</text>
<text text-anchor="start" x="783" y="-252.5" font-family="Helvetica,sans-Serif" font-size="10.00">/pairinteraction/pairinteraction</text>
<text text-anchor="middle" x="857.5" y="-241.5" font-family="Helvetica,sans-Serif" font-size="10.00">/MatrixElementCache.hpp</text>
</a>
</g>
</g>
<!-- Node16&#45;&gt;Node17 -->
<g id="edge21" class="edge">
<title>Node16&#45;&gt;Node17</title>
<path fill="none" stroke="midnightblue" d="M857.5,-302.3C857.5,-293.3 857.5,-283.65 857.5,-275.51"/>
<polygon fill="midnightblue" stroke="midnightblue" points="854,-302.43 857.5,-312.43 861,-302.43 854,-302.43"/>
</g>
<!-- Node23 -->
<g id="node23" class="node">
<title>Node23</title>
<g id="a_node23"><a xlink:href="MatrixElements_8hpp.html" target="_top" xlink:title=" ">
<polygon fill="none" stroke="black" points="553,-234.5 553,-275.5 718,-275.5 718,-234.5 553,-234.5"/>
<text text-anchor="start" x="561" y="-263.5" font-family="Helvetica,sans-Serif" font-size="10.00">/__w/pairinteraction</text>
<text text-anchor="start" x="561" y="-252.5" font-family="Helvetica,sans-Serif" font-size="10.00">/pairinteraction/pairinteraction</text>
<text text-anchor="middle" x="635.5" y="-241.5" font-family="Helvetica,sans-Serif" font-size="10.00">/MatrixElements.hpp</text>
</a>
</g>
</g>
<!-- Node16&#45;&gt;Node23 -->
<g id="edge29" class="edge">
<title>Node16&#45;&gt;Node23</title>
<path fill="none" stroke="midnightblue" d="M790.8,-309.17C759.46,-298.44 722.48,-285.78 692.48,-275.51"/>
<polygon fill="midnightblue" stroke="midnightblue" points="789.73,-312.5 800.33,-312.43 792,-305.88 789.73,-312.5"/>
</g>
<!-- Node17&#45;&gt;Node7 -->
<g id="edge22" class="edge">
<title>Node17&#45;&gt;Node7</title>
<path fill="none" stroke="midnightblue" d="M764.75,-239.08C752.24,-237.26 739.57,-235.51 727.5,-234 563.12,-213.4 520.14,-223.83 356.5,-198 353.78,-197.57 351.03,-197.11 348.25,-196.63"/>
<polygon fill="midnightblue" stroke="midnightblue" points="764.32,-242.56 774.72,-240.56 765.34,-235.63 764.32,-242.56"/>
</g>
<!-- Node17&#45;&gt;Node11 -->
<g id="edge25" class="edge">
<title>Node17&#45;&gt;Node11</title>
<path fill="none" stroke="midnightblue" d="M799.94,-230.61C773.84,-220 743.34,-207.6 718.49,-197.51"/>
<polygon fill="midnightblue" stroke="midnightblue" points="798.76,-233.91 809.34,-234.43 801.4,-227.42 798.76,-233.91"/>
</g>
<!-- Node18 -->
<g id="node18" class="node">
<title>Node18</title>
<g id="a_node18"><a xlink:href="PerturbativeInteraction_8hpp.html" target="_top" xlink:title=" ">
<polygon fill="none" stroke="black" points="1359,-156.5 1359,-197.5 1524,-197.5 1524,-156.5 1359,-156.5"/>
<text text-anchor="start" x="1367" y="-185.5" font-family="Helvetica,sans-Serif" font-size="10.00">/__w/pairinteraction</text>
<text text-anchor="start" x="1367" y="-174.5" font-family="Helvetica,sans-Serif" font-size="10.00">/pairinteraction/pairinteraction</text>
<text text-anchor="middle" x="1441.5" y="-163.5" font-family="Helvetica,sans-Serif" font-size="10.00">/PerturbativeInteraction.hpp</text>
</a>
</g>
</g>
<!-- Node17&#45;&gt;Node18 -->
<g id="edge23" class="edge">
<title>Node17&#45;&gt;Node18</title>
<path fill="none" stroke="midnightblue" d="M950.41,-233.96C1110.97,-209.16 1154.39,-217.88 1311.5,-198 1326.79,-196.06 1343.06,-193.76 1358.72,-191.41"/>
<polygon fill="midnightblue" stroke="midnightblue" points="949.51,-230.56 940.17,-235.56 950.59,-237.47 949.51,-230.56"/>
</g>
<!-- Node20 -->
<g id="node20" class="node">
<title>Node20</title>
<g id="a_node20"><a xlink:href="SystemOne_8cpp.html" target="_top" xlink:title=" ">
<polygon fill="none" stroke="black" points="954,-156.5 954,-197.5 1119,-197.5 1119,-156.5 954,-156.5"/>
<text text-anchor="start" x="962" y="-185.5" font-family="Helvetica,sans-Serif" font-size="10.00">/__w/pairinteraction</text>
<text text-anchor="start" x="962" y="-174.5" font-family="Helvetica,sans-Serif" font-size="10.00">/pairinteraction/pairinteraction</text>
<text text-anchor="middle" x="1036.5" y="-163.5" font-family="Helvetica,sans-Serif" font-size="10.00">/SystemOne.cpp</text>
</a>
</g>
</g>
<!-- Node17&#45;&gt;Node20 -->
<g id="edge26" class="edge">
<title>Node17&#45;&gt;Node20</title>
<path fill="none" stroke="midnightblue" d="M912.92,-230.47C937.83,-219.89 966.88,-207.56 990.56,-197.51"/>
<polygon fill="midnightblue" stroke="midnightblue" points="911.43,-227.3 903.6,-234.43 914.17,-233.74 911.43,-227.3"/>
</g>
<!-- Node21 -->
<g id="node21" class="node">
<title>Node21</title>
<g id="a_node21"><a xlink:href="SystemTwo_8cpp.html" target="_top" xlink:title=" ">
<polygon fill="none" stroke="black" points="1137,-156.5 1137,-197.5 1302,-197.5 1302,-156.5 1137,-156.5"/>
<text text-anchor="start" x="1145" y="-185.5" font-family="Helvetica,sans-Serif" font-size="10.00">/__w/pairinteraction</text>
<text text-anchor="start" x="1145" y="-174.5" font-family="Helvetica,sans-Serif" font-size="10.00">/pairinteraction/pairinteraction</text>
<text text-anchor="middle" x="1219.5" y="-163.5" font-family="Helvetica,sans-Serif" font-size="10.00">/SystemTwo.cpp</text>
</a>
</g>
</g>
<!-- Node17&#45;&gt;Node21 -->
<g id="edge27" class="edge">
<title>Node17&#45;&gt;Node21</title>
<path fill="none" stroke="midnightblue" d="M950.33,-233.84C1030.59,-217.15 1052.19,-214.06 1128.5,-198 1131.19,-197.43 1133.93,-196.85 1136.69,-196.27"/>
<polygon fill="midnightblue" stroke="midnightblue" points="949.31,-230.48 940.24,-235.95 950.74,-237.33 949.31,-230.48"/>
</g>
<!-- Node22 -->
<g id="node22" class="node">
<title>Node22</title>
<g id="a_node22"><a xlink:href="integration__test_8cpp.html" target="_top" xlink:title=" ">
<polygon fill="none" stroke="black" points="771,-156.5 771,-197.5 936,-197.5 936,-156.5 771,-156.5"/>
<text text-anchor="start" x="779" y="-185.5" font-family="Helvetica,sans-Serif" font-size="10.00">/__w/pairinteraction</text>
<text text-anchor="start" x="779" y="-174.5" font-family="Helvetica,sans-Serif" font-size="10.00">/pairinteraction/pairinteraction</text>
<text text-anchor="middle" x="853.5" y="-163.5" font-family="Helvetica,sans-Serif" font-size="10.00">/unit_test/integration_test.cpp</text>
</a>
</g>
</g>
<!-- Node17&#45;&gt;Node22 -->
<g id="edge28" class="edge">
<title>Node17&#45;&gt;Node22</title>
<path fill="none" stroke="midnightblue" d="M855.94,-224.3C855.46,-215.3 854.96,-205.65 854.53,-197.51"/>
<polygon fill="midnightblue" stroke="midnightblue" points="852.45,-224.63 856.47,-234.43 859.44,-224.26 852.45,-224.63"/>
</g>
<!-- Node19 -->
<g id="node19" class="node">
<title>Node19</title>
<g id="a_node19"><a xlink:href="PerturbativeInteraction_8cpp.html" target="_top" xlink:title=" ">
<polygon fill="none" stroke="black" points="1359,-78.5 1359,-119.5 1524,-119.5 1524,-78.5 1359,-78.5"/>
<text text-anchor="start" x="1367" y="-107.5" font-family="Helvetica,sans-Serif" font-size="10.00">/__w/pairinteraction</text>
<text text-anchor="start" x="1367" y="-96.5" font-family="Helvetica,sans-Serif" font-size="10.00">/pairinteraction/pairinteraction</text>
<text text-anchor="middle" x="1441.5" y="-85.5" font-family="Helvetica,sans-Serif" font-size="10.00">/PerturbativeInteraction.cpp</text>
</a>
</g>
</g>
<!-- Node18&#45;&gt;Node19 -->
<g id="edge24" class="edge">
<title>Node18&#45;&gt;Node19</title>
<path fill="none" stroke="midnightblue" d="M1441.5,-146.3C1441.5,-137.3 1441.5,-127.65 1441.5,-119.51"/>
<polygon fill="midnightblue" stroke="midnightblue" points="1438,-146.43 1441.5,-156.43 1445,-146.43 1438,-146.43"/>
</g>
<!-- Node23&#45;&gt;Node2 -->
<g id="edge30" class="edge">
<title>Node23&#45;&gt;Node2</title>
<path fill="none" stroke="midnightblue" d="M542.87,-234.01C378.53,-208.99 333.51,-223.28 173.5,-198 170.78,-197.57 168.03,-197.11 165.25,-196.63"/>
<polygon fill="midnightblue" stroke="midnightblue" points="542.42,-237.48 552.83,-235.55 543.49,-230.56 542.42,-237.48"/>
</g>
<!-- Node23&#45;&gt;Node4 -->
<g id="edge31" class="edge">
<title>Node23&#45;&gt;Node4</title>
<path fill="none" stroke="midnightblue" d="M607.72,-227.21C598.35,-218.04 587.89,-207.65 578.5,-198 560.74,-179.74 556.92,-174.58 539.5,-156 528.15,-143.89 515.36,-130.37 505.19,-119.65"/>
<polygon fill="midnightblue" stroke="midnightblue" points="605.36,-229.79 614.96,-234.27 610.24,-224.78 605.36,-229.79"/>
</g>
<!-- Node23&#45;&gt;Node8 -->
<g id="edge32" class="edge">
<title>Node23&#45;&gt;Node8</title>
<path fill="none" stroke="midnightblue" d="M577.94,-230.61C551.84,-220 521.34,-207.6 496.49,-197.51"/>
<polygon fill="midnightblue" stroke="midnightblue" points="576.76,-233.91 587.34,-234.43 579.4,-227.42 576.76,-233.91"/>
</g>
</g>
</svg>
        <g id="navigator" transform="translate(0 0)" fill="#404254">
                <rect fill="#f2f5e9" fill-opacity="0.5" stroke="#606060" stroke-width=".5" x="0" y="0" width="60" height="60"/>
                <use id="zoomplus" xlink:href="#zoomPlus" x="17" y="9" onmousedown="handleZoom(evt,'in')"/>
                <use id="zoomminus" xlink:href="#zoomMin" x="42" y="9" onmousedown="handleZoom(evt,'out')"/>
                <use id="reset" xlink:href="#resetDef" x="30" y="36" onmousedown="handleReset()"/>
                <g id="arrowUp" xlink:href="#dirArrow" transform="translate(30 24)" onmousedown="handlePan(0,-1)">
                  <use xlink:href="#rim" fill="#404040">
                        <set attributeName="fill" to="#808080" begin="arrowUp.mouseover" end="arrowUp.mouseout"/>
                  </use>
                  <path fill="none" stroke="white" stroke-width="1.5" d="M0,-3.0v7 M-2.5,-0.5L0,-3.0L2.5,-0.5"/>
                </g>
                <g id="arrowRight" xlink:href="#dirArrow" transform="rotate(90) translate(36 -43)" onmousedown="handlePan(1,0)">
                  <use xlink:href="#rim" fill="#404040">
                        <set attributeName="fill" to="#808080" begin="arrowRight.mouseover" end="arrowRight.mouseout"/>
                  </use>
                  <path fill="none" stroke="white" stroke-width="1.5" d="M0,-3.0v7 M-2.5,-0.5L0,-3.0L2.5,-0.5"/>
                </g>
                <g id="arrowDown" xlink:href="#dirArrow" transform="rotate(180) translate(-30 -48)" onmousedown="handlePan(0,1)">
                  <use xlink:href="#rim" fill="#404040">
                        <set attributeName="fill" to="#808080" begin="arrowDown.mouseover" end="arrowDown.mouseout"/>
                  </use>
                  <path fill="none" stroke="white" stroke-width="1.5" d="M0,-3.0v7 M-2.5,-0.5L0,-3.0L2.5,-0.5"/>
                </g>
                <g id="arrowLeft" xlink:href="#dirArrow" transform="rotate(270) translate(-36 17)" onmousedown="handlePan(-1,0)">
                  <use xlink:href="#rim" fill="#404040">
                        <set attributeName="fill" to="#808080" begin="arrowLeft.mouseover" end="arrowLeft.mouseout"/>
                  </use>
                  <path fill="none" stroke="white" stroke-width="1.5" d="M0,-3.0v7 M-2.5,-0.5L0,-3.0L2.5,-0.5"/>
                </g>
        </g>
        <svg viewBox="0 0 15 15" width="100%" height="30px" preserveAspectRatio="xMaxYMin meet">
         <g id="arrow_out" transform="scale(0.3 0.3)">
          <a xlink:href="SQLite_8hpp__dep__incl_org.svg" target="_base">
           <rect id="button" ry="5" rx="5" y="6" x="6" height="38" width="38"
                fill="#f2f5e9" fill-opacity="0.5" stroke="#606060" stroke-width="1.0"/>
           <path id="arrow"
             d="M 11.500037,31.436501 C 11.940474,20.09759 22.043105,11.32322 32.158766,21.979434 L 37.068811,17.246167 C 37.068811,17.246167 37.088388,32 37.088388,32 L 22.160133,31.978069 C 22.160133,31.978069 26.997745,27.140456 26.997745,27.140456 C 18.528582,18.264221 13.291696,25.230495 11.500037,31.436501 z"
             style="fill:#404040;"/>
          </a>
         </g>
        </svg>
</svg>
