<?xml version="1.0" encoding="UTF-8" standalone="no"?>
<!DOCTYPE svg PUBLIC "-//W3C//DTD SVG 1.1//EN"
 "http://www.w3.org/Graphics/SVG/1.1/DTD/svg11.dtd">
<!-- Generated by graphviz version 2.43.0 (0)
 -->
<!-- Title: /__w/pairinteraction/pairinteraction/pairinteraction/State.hpp Pages: 1 -->
<!--zoomable 362 -->
<svg id="main" version="1.1" xmlns="http://www.w3.org/2000/svg" xmlns:xlink="http://www.w3.org/1999/xlink" xml:space="preserve" onload="init(evt)">
<style type="text/css"><![CDATA[
.edge:hover path { stroke: red; }
.edge:hover polygon { stroke: red; fill: red; }
]]></style>
<script type="text/javascript"><![CDATA[
var edges = document.getElementsByTagName('g');
if (edges && edges.length) {
  for (var i=0;i<edges.length;i++) {
    if (edges[i].id.substr(0,4)=='edge') {
      edges[i].setAttribute('class','edge');
    }
  }
}
]]></script>
        <defs>
                <circle id="rim" cx="0" cy="0" r="7"/>
                <circle id="rim2" cx="0" cy="0" r="3.5"/>
                <g id="zoomPlus">
                        <use xlink:href="#rim" fill="#404040">
                                <set attributeName="fill" to="#808080" begin="zoomplus.mouseover" end="zoomplus.mouseout"/>
                        </use>
                        <path d="M-4,0h8M0,-4v8" fill="none" stroke="white" stroke-width="1.5" pointer-events="none"/>
                </g>
                <g id="zoomMin">
                        <use xlink:href="#rim" fill="#404040">
                                <set attributeName="fill" to="#808080" begin="zoomminus.mouseover" end="zoomminus.mouseout"/>
                        </use>
                        <path d="M-4,0h8" fill="none" stroke="white" stroke-width="1.5" pointer-events="none"/>
                </g>
                <g id="dirArrow">
                        <path fill="none" stroke="white" stroke-width="1.5" d="M0,-3.0v7 M-2.5,-0.5L0,-3.0L2.5,-0.5"/>
                </g>
               <g id="resetDef">
                       <use xlink:href="#rim2" fill="#404040">
                               <set attributeName="fill" to="#808080" begin="reset.mouseover" end="reset.mouseout"/>
                       </use>
               </g>
        </defs>

<script type="text/javascript">
var viewWidth = 1115;
var viewHeight = 362;
var sectionId = 'dynsection-1';
</script>
<script xlink:href="svgpan.js"/>
<svg id="graph" class="graph">
<g id="viewport">
<title>/__w/pairinteraction/pairinteraction/pairinteraction/State.hpp</title>
<!-- Node1 -->
<g id="node1" class="node">
<title>Node1</title>
<g id="a_node1"><a xlink:title=" ">
<polygon fill="#bfbfbf" stroke="black" points="591,-312.5 591,-353.5 756,-353.5 756,-312.5 591,-312.5"/>
<text text-anchor="start" x="599" y="-341.5" font-family="Helvetica,sans-Serif" font-size="10.00">/__w/pairinteraction</text>
<text text-anchor="start" x="599" y="-330.5" font-family="Helvetica,sans-Serif" font-size="10.00">/pairinteraction/pairinteraction</text>
<text text-anchor="middle" x="673.5" y="-319.5" font-family="Helvetica,sans-Serif" font-size="10.00">/State.hpp</text>
</a>
</g>
</g>
<!-- Node2 -->
<g id="node2" class="node">
<title>Node2</title>
<g id="a_node2"><a xlink:href="MatrixElementCache_8hpp.html" target="_top" xlink:title=" ">
<polygon fill="none" stroke="black" points="477,-234.5 477,-275.5 642,-275.5 642,-234.5 477,-234.5"/>
<text text-anchor="start" x="485" y="-263.5" font-family="Helvetica,sans-Serif" font-size="10.00">/__w/pairinteraction</text>
<text text-anchor="start" x="485" y="-252.5" font-family="Helvetica,sans-Serif" font-size="10.00">/pairinteraction/pairinteraction</text>
<text text-anchor="middle" x="559.5" y="-241.5" font-family="Helvetica,sans-Serif" font-size="10.00">/MatrixElementCache.hpp</text>
</a>
</g>
</g>
<!-- Node1&#45;&gt;Node2 -->
<g id="edge1" class="edge">
<title>Node1&#45;&gt;Node2</title>
<path fill="none" stroke="midnightblue" d="M635.45,-306.64C620.23,-296.49 602.97,-284.98 588.76,-275.51"/>
<polygon fill="midnightblue" stroke="midnightblue" points="633.88,-309.79 644.14,-312.43 637.76,-303.97 633.88,-309.79"/>
</g>
<!-- Node4 -->
<g id="node4" class="node">
<title>Node4</title>
<g id="a_node4"><a xlink:href="PerturbativeInteraction_8hpp.html" target="_top" xlink:title=" ">
<polygon fill="none" stroke="black" points="0,-156.5 0,-197.5 165,-197.5 165,-156.5 0,-156.5"/>
<text text-anchor="start" x="8" y="-185.5" font-family="Helvetica,sans-Serif" font-size="10.00">/__w/pairinteraction</text>
<text text-anchor="start" x="8" y="-174.5" font-family="Helvetica,sans-Serif" font-size="10.00">/pairinteraction/pairinteraction</text>
<text text-anchor="middle" x="82.5" y="-163.5" font-family="Helvetica,sans-Serif" font-size="10.00">/PerturbativeInteraction.hpp</text>
</a>
</g>
</g>
<!-- Node1&#45;&gt;Node4 -->
<g id="edge9" class="edge">
<title>Node1&#45;&gt;Node4</title>
<path fill="none" stroke="midnightblue" d="M580.92,-318.67C520.05,-309.01 438.93,-294.42 368.5,-276 284.08,-253.92 188.69,-219.19 132.18,-197.55"/>
<polygon fill="midnightblue" stroke="midnightblue" points="580.47,-322.14 590.89,-320.24 581.56,-315.23 580.47,-322.14"/>
</g>
<!-- Node6 -->
<g id="node6" class="node">
<title>Node6</title>
<g id="a_node6"><a xlink:href="State_8cpp.html" target="_top" xlink:title=" ">
<polygon fill="none" stroke="black" points="183,-156.5 183,-197.5 348,-197.5 348,-156.5 183,-156.5"/>
<text text-anchor="start" x="191" y="-185.5" font-family="Helvetica,sans-Serif" font-size="10.00">/__w/pairinteraction</text>
<text text-anchor="start" x="191" y="-174.5" font-family="Helvetica,sans-Serif" font-size="10.00">/pairinteraction/pairinteraction</text>
<text text-anchor="middle" x="265.5" y="-163.5" font-family="Helvetica,sans-Serif" font-size="10.00">/State.cpp</text>
</a>
</g>
</g>
<!-- Node1&#45;&gt;Node6 -->
<g id="edge10" class="edge">
<title>Node1&#45;&gt;Node6</title>
<path fill="none" stroke="midnightblue" d="M580.72,-310.7C544.88,-301.45 503.82,-289.61 467.5,-276 407.09,-253.36 340.37,-219.04 300.74,-197.6"/>
<polygon fill="midnightblue" stroke="midnightblue" points="580.13,-314.16 590.69,-313.24 581.86,-307.38 580.13,-314.16"/>
</g>
<!-- Node9 -->
<g id="node9" class="node">
<title>Node9</title>
<g id="a_node9"><a xlink:href="integration__test_8cpp.html" target="_top" xlink:title=" ">
<polygon fill="none" stroke="black" points="865,-0.5 865,-41.5 1030,-41.5 1030,-0.5 865,-0.5"/>
<text text-anchor="start" x="873" y="-29.5" font-family="Helvetica,sans-Serif" font-size="10.00">/__w/pairinteraction</text>
<text text-anchor="start" x="873" y="-18.5" font-family="Helvetica,sans-Serif" font-size="10.00">/pairinteraction/pairinteraction</text>
<text text-anchor="middle" x="947.5" y="-7.5" font-family="Helvetica,sans-Serif" font-size="10.00">/unit_test/integration_test.cpp</text>
</a>
</g>
</g>
<!-- Node1&#45;&gt;Node9 -->
<g id="edge22" class="edge">
<title>Node1&#45;&gt;Node9</title>
<path fill="none" stroke="midnightblue" d="M766.12,-316.91C879.8,-296.13 1061.93,-254.75 1097.5,-198 1136.52,-135.75 1043.1,-72.56 986.65,-41.59"/>
<polygon fill="midnightblue" stroke="midnightblue" points="765.23,-313.51 756.02,-318.73 766.48,-320.4 765.23,-313.51"/>
</g>
<!-- Node10 -->
<g id="node10" class="node">
<title>Node10</title>
<g id="a_node10"><a xlink:href="SystemBase_8hpp.html" target="_top" xlink:title=" ">
<polygon fill="none" stroke="black" points="721,-234.5 721,-275.5 886,-275.5 886,-234.5 721,-234.5"/>
<text text-anchor="start" x="729" y="-263.5" font-family="Helvetica,sans-Serif" font-size="10.00">/__w/pairinteraction</text>
<text text-anchor="start" x="729" y="-252.5" font-family="Helvetica,sans-Serif" font-size="10.00">/pairinteraction/pairinteraction</text>
<text text-anchor="middle" x="803.5" y="-241.5" font-family="Helvetica,sans-Serif" font-size="10.00">/SystemBase.hpp</text>
</a>
</g>
</g>
<!-- Node1&#45;&gt;Node10 -->
<g id="edge11" class="edge">
<title>Node1&#45;&gt;Node10</title>
<path fill="none" stroke="midnightblue" d="M715.92,-307.2C733.51,-296.92 753.62,-285.16 770.14,-275.51"/>
<polygon fill="midnightblue" stroke="midnightblue" points="713.84,-304.36 706.98,-312.43 717.38,-310.4 713.84,-304.36"/>
</g>
<!-- Node12 -->
<g id="node12" class="node">
<title>Node12</title>
<g id="a_node12"><a xlink:href="SystemOne_8hpp.html" target="_top" xlink:title=" ">
<polygon fill="none" stroke="black" points="923,-156.5 923,-197.5 1088,-197.5 1088,-156.5 923,-156.5"/>
<text text-anchor="start" x="931" y="-185.5" font-family="Helvetica,sans-Serif" font-size="10.00">/__w/pairinteraction</text>
<text text-anchor="start" x="931" y="-174.5" font-family="Helvetica,sans-Serif" font-size="10.00">/pairinteraction/pairinteraction</text>
<text text-anchor="middle" x="1005.5" y="-163.5" font-family="Helvetica,sans-Serif" font-size="10.00">/SystemOne.hpp</text>
</a>
</g>
</g>
<!-- Node1&#45;&gt;Node12 -->
<g id="edge20" class="edge">
<title>Node1&#45;&gt;Node12</title>
<path fill="none" stroke="midnightblue" d="M766.09,-318.93C807.37,-310.56 855.59,-297.15 895.5,-276 933.46,-255.87 968.97,-219.96 988.9,-197.64"/>
<polygon fill="midnightblue" stroke="midnightblue" points="765.16,-315.55 756.02,-320.9 766.51,-322.42 765.16,-315.55"/>
</g>
<!-- Node13 -->
<g id="node13" class="node">
<title>Node13</title>
<g id="a_node13"><a xlink:href="SystemTwo_8hpp.html" target="_top" xlink:title=" ">
<polygon fill="none" stroke="black" points="809,-78.5 809,-119.5 974,-119.5 974,-78.5 809,-78.5"/>
<text text-anchor="start" x="817" y="-107.5" font-family="Helvetica,sans-Serif" font-size="10.00">/__w/pairinteraction</text>
<text text-anchor="start" x="817" y="-96.5" font-family="Helvetica,sans-Serif" font-size="10.00">/pairinteraction/pairinteraction</text>
<text text-anchor="middle" x="891.5" y="-85.5" font-family="Helvetica,sans-Serif" font-size="10.00">/SystemTwo.hpp</text>
</a>
</g>
</g>
<!-- Node1&#45;&gt;Node13 -->
<g id="edge21" class="edge">
<title>Node1&#45;&gt;Node13</title>
<path fill="none" stroke="midnightblue" d="M673.02,-302.4C674.01,-263.73 681.58,-196.23 719.5,-156 732.48,-142.23 771.35,-129.02 808.86,-118.89"/>
<polygon fill="midnightblue" stroke="midnightblue" points="669.51,-302.45 672.89,-312.49 676.51,-302.54 669.51,-302.45"/>
</g>
<!-- Node3 -->
<g id="node3" class="node">
<title>Node3</title>
<g id="a_node3"><a xlink:href="MatrixElementCache_8cpp.html" target="_top" xlink:title=" ">
<polygon fill="none" stroke="black" points="366,-156.5 366,-197.5 531,-197.5 531,-156.5 366,-156.5"/>
<text text-anchor="start" x="374" y="-185.5" font-family="Helvetica,sans-Serif" font-size="10.00">/__w/pairinteraction</text>
<text text-anchor="start" x="374" y="-174.5" font-family="Helvetica,sans-Serif" font-size="10.00">/pairinteraction/pairinteraction</text>
<text text-anchor="middle" x="448.5" y="-163.5" font-family="Helvetica,sans-Serif" font-size="10.00">/MatrixElementCache.cpp</text>
</a>
</g>
</g>
<!-- Node2&#45;&gt;Node3 -->
<g id="edge2" class="edge">
<title>Node2&#45;&gt;Node3</title>
<path fill="none" stroke="midnightblue" d="M522.45,-228.64C507.63,-218.49 490.83,-206.98 476.99,-197.51"/>
<polygon fill="midnightblue" stroke="midnightblue" points="520.69,-231.67 530.91,-234.43 524.64,-225.89 520.69,-231.67"/>
</g>
<!-- Node2&#45;&gt;Node4 -->
<g id="edge3" class="edge">
<title>Node2&#45;&gt;Node4</title>
<path fill="none" stroke="midnightblue" d="M466.44,-242.42C388.06,-232.2 273.12,-216.15 173.5,-198 170.79,-197.51 168.05,-196.99 165.28,-196.46"/>
<polygon fill="midnightblue" stroke="midnightblue" points="466.4,-245.94 476.77,-243.76 467.3,-239 466.4,-245.94"/>
</g>
<!-- Node2&#45;&gt;Node6 -->
<g id="edge5" class="edge">
<title>Node2&#45;&gt;Node6</title>
<path fill="none" stroke="midnightblue" d="M474.1,-231.92C431.99,-221.04 381.64,-208.02 340.96,-197.51"/>
<polygon fill="midnightblue" stroke="midnightblue" points="473.23,-235.31 483.79,-234.43 474.98,-228.54 473.23,-235.31"/>
</g>
<!-- Node7 -->
<g id="node7" class="node">
<title>Node7</title>
<g id="a_node7"><a xlink:href="SystemOne_8cpp.html" target="_top" xlink:title=" ">
<polygon fill="none" stroke="black" points="626,-78.5 626,-119.5 791,-119.5 791,-78.5 626,-78.5"/>
<text text-anchor="start" x="634" y="-107.5" font-family="Helvetica,sans-Serif" font-size="10.00">/__w/pairinteraction</text>
<text text-anchor="start" x="634" y="-96.5" font-family="Helvetica,sans-Serif" font-size="10.00">/pairinteraction/pairinteraction</text>
<text text-anchor="middle" x="708.5" y="-85.5" font-family="Helvetica,sans-Serif" font-size="10.00">/SystemOne.cpp</text>
</a>
</g>
</g>
<!-- Node2&#45;&gt;Node7 -->
<g id="edge6" class="edge">
<title>Node2&#45;&gt;Node7</title>
<path fill="none" stroke="midnightblue" d="M585.49,-227.14C615.12,-196.51 662.86,-147.17 689.31,-119.83"/>
<polygon fill="midnightblue" stroke="midnightblue" points="582.81,-224.88 578.37,-234.5 587.84,-229.74 582.81,-224.88"/>
</g>
<!-- Node8 -->
<g id="node8" class="node">
<title>Node8</title>
<g id="a_node8"><a xlink:href="SystemTwo_8cpp.html" target="_top" xlink:title=" ">
<polygon fill="none" stroke="black" points="608,-0.5 608,-41.5 773,-41.5 773,-0.5 608,-0.5"/>
<text text-anchor="start" x="616" y="-29.5" font-family="Helvetica,sans-Serif" font-size="10.00">/__w/pairinteraction</text>
<text text-anchor="start" x="616" y="-18.5" font-family="Helvetica,sans-Serif" font-size="10.00">/pairinteraction/pairinteraction</text>
<text text-anchor="middle" x="690.5" y="-7.5" font-family="Helvetica,sans-Serif" font-size="10.00">/SystemTwo.cpp</text>
</a>
</g>
</g>
<!-- Node2&#45;&gt;Node8 -->
<g id="edge7" class="edge">
<title>Node2&#45;&gt;Node8</title>
<path fill="none" stroke="midnightblue" d="M555.76,-224.22C552.66,-186.64 552.86,-121.65 583.5,-78 594.82,-61.87 612.26,-50.03 629.79,-41.52"/>
<polygon fill="midnightblue" stroke="midnightblue" points="552.31,-224.88 556.75,-234.5 559.28,-224.21 552.31,-224.88"/>
</g>
<!-- Node2&#45;&gt;Node9 -->
<g id="edge8" class="edge">
<title>Node2&#45;&gt;Node9</title>
<path fill="none" stroke="midnightblue" d="M565.29,-224.14C574.63,-179.17 594.23,-97.25 616.5,-78 635.1,-61.92 773.01,-42.71 864.85,-31.48"/>
<polygon fill="midnightblue" stroke="midnightblue" points="561.81,-223.7 563.25,-234.19 568.67,-225.09 561.81,-223.7"/>
</g>
<!-- Node5 -->
<g id="node5" class="node">
<title>Node5</title>
<g id="a_node5"><a xlink:href="PerturbativeInteraction_8cpp.html" target="_top" xlink:title=" ">
<polygon fill="none" stroke="black" points="0,-78.5 0,-119.5 165,-119.5 165,-78.5 0,-78.5"/>
<text text-anchor="start" x="8" y="-107.5" font-family="Helvetica,sans-Serif" font-size="10.00">/__w/pairinteraction</text>
<text text-anchor="start" x="8" y="-96.5" font-family="Helvetica,sans-Serif" font-size="10.00">/pairinteraction/pairinteraction</text>
<text text-anchor="middle" x="82.5" y="-85.5" font-family="Helvetica,sans-Serif" font-size="10.00">/PerturbativeInteraction.cpp</text>
</a>
</g>
</g>
<!-- Node4&#45;&gt;Node5 -->
<g id="edge4" class="edge">
<title>Node4&#45;&gt;Node5</title>
<path fill="none" stroke="midnightblue" d="M82.5,-146.3C82.5,-137.3 82.5,-127.65 82.5,-119.51"/>
<polygon fill="midnightblue" stroke="midnightblue" points="79,-146.43 82.5,-156.43 86,-146.43 79,-146.43"/>
</g>
<!-- Node11 -->
<g id="node11" class="node">
<title>Node11</title>
<g id="a_node11"><a xlink:href="SystemBase_8cpp.html" target="_top" xlink:title=" ">
<polygon fill="none" stroke="black" points="740,-156.5 740,-197.5 905,-197.5 905,-156.5 740,-156.5"/>
<text text-anchor="start" x="748" y="-185.5" font-family="Helvetica,sans-Serif" font-size="10.00">/__w/pairinteraction</text>
<text text-anchor="start" x="748" y="-174.5" font-family="Helvetica,sans-Serif" font-size="10.00">/pairinteraction/pairinteraction</text>
<text text-anchor="middle" x="822.5" y="-163.5" font-family="Helvetica,sans-Serif" font-size="10.00">/SystemBase.cpp</text>
</a>
</g>
</g>
<!-- Node10&#45;&gt;Node11 -->
<g id="edge12" class="edge">
<title>Node10&#45;&gt;Node11</title>
<path fill="none" stroke="midnightblue" d="M810.85,-224.59C813.12,-215.51 815.56,-205.74 817.62,-197.51"/>
<polygon fill="midnightblue" stroke="midnightblue" points="807.42,-223.88 808.39,-234.43 814.21,-225.58 807.42,-223.88"/>
</g>
<!-- Node10&#45;&gt;Node12 -->
<g id="edge13" class="edge">
<title>Node10&#45;&gt;Node12</title>
<path fill="none" stroke="midnightblue" d="M864.93,-230.89C893.29,-220.22 926.59,-207.69 953.66,-197.51"/>
<polygon fill="midnightblue" stroke="midnightblue" points="863.65,-227.63 855.52,-234.43 866.11,-234.18 863.65,-227.63"/>
</g>
<!-- Node10&#45;&gt;Node13 -->
<g id="edge19" class="edge">
<title>Node10&#45;&gt;Node13</title>
<path fill="none" stroke="midnightblue" d="M757.14,-228.56C746.45,-220.31 736.47,-210.1 730.5,-198 722.24,-181.26 719.68,-171.21 730.5,-156 740.45,-142.01 774.43,-129.2 808.64,-119.37"/>
<polygon fill="midnightblue" stroke="midnightblue" points="755.23,-231.51 765.4,-234.49 759.31,-225.82 755.23,-231.51"/>
</g>
<!-- Node12&#45;&gt;Node7 -->
<g id="edge14" class="edge">
<title>Node12&#45;&gt;Node7</title>
<path fill="none" stroke="midnightblue" d="M919.23,-153.92C876.69,-143.04 825.82,-130.02 784.73,-119.51"/>
<polygon fill="midnightblue" stroke="midnightblue" points="918.46,-157.34 929.02,-156.43 920.19,-150.56 918.46,-157.34"/>
</g>
<!-- Node12&#45;&gt;Node9 -->
<g id="edge18" class="edge">
<title>Node12&#45;&gt;Node9</title>
<path fill="none" stroke="midnightblue" d="M1001.6,-146.22C998.33,-126.35 992.68,-99.95 983.5,-78 978.1,-65.1 969.77,-51.88 962.47,-41.53"/>
<polygon fill="midnightblue" stroke="midnightblue" points="998.16,-146.88 1003.13,-156.23 1005.07,-145.81 998.16,-146.88"/>
</g>
<!-- Node12&#45;&gt;Node13 -->
<g id="edge15" class="edge">
<title>Node12&#45;&gt;Node13</title>
<path fill="none" stroke="midnightblue" d="M967.45,-150.64C952.23,-140.49 934.97,-128.98 920.76,-119.51"/>
<polygon fill="midnightblue" stroke="midnightblue" points="965.88,-153.79 976.14,-156.43 969.76,-147.97 965.88,-153.79"/>
</g>
<!-- Node13&#45;&gt;Node8 -->
<g id="edge16" class="edge">
<title>Node13&#45;&gt;Node8</title>
<path fill="none" stroke="midnightblue" d="M830.37,-74.89C802.16,-64.22 769.02,-51.69 742.09,-41.51"/>
<polygon fill="midnightblue" stroke="midnightblue" points="829.15,-78.17 839.74,-78.43 831.62,-71.62 829.15,-78.17"/>
</g>
<!-- Node13&#45;&gt;Node9 -->
<g id="edge17" class="edge">
<title>Node13&#45;&gt;Node9</title>
<path fill="none" stroke="midnightblue" d="M911.88,-70.34C918.93,-60.78 926.67,-50.27 933.13,-41.51"/>
<polygon fill="midnightblue" stroke="midnightblue" points="909.04,-68.3 905.92,-78.43 914.67,-72.45 909.04,-68.3"/>
</g>
</g>
</svg>
        <g id="navigator" transform="translate(0 0)" fill="#404254">
                <rect fill="#f2f5e9" fill-opacity="0.5" stroke="#606060" stroke-width=".5" x="0" y="0" width="60" height="60"/>
                <use id="zoomplus" xlink:href="#zoomPlus" x="17" y="9" onmousedown="handleZoom(evt,'in')"/>
                <use id="zoomminus" xlink:href="#zoomMin" x="42" y="9" onmousedown="handleZoom(evt,'out')"/>
                <use id="reset" xlink:href="#resetDef" x="30" y="36" onmousedown="handleReset()"/>
                <g id="arrowUp" xlink:href="#dirArrow" transform="translate(30 24)" onmousedown="handlePan(0,-1)">
                  <use xlink:href="#rim" fill="#404040">
                        <set attributeName="fill" to="#808080" begin="arrowUp.mouseover" end="arrowUp.mouseout"/>
                  </use>
                  <path fill="none" stroke="white" stroke-width="1.5" d="M0,-3.0v7 M-2.5,-0.5L0,-3.0L2.5,-0.5"/>
                </g>
                <g id="arrowRight" xlink:href="#dirArrow" transform="rotate(90) translate(36 -43)" onmousedown="handlePan(1,0)">
                  <use xlink:href="#rim" fill="#404040">
                        <set attributeName="fill" to="#808080" begin="arrowRight.mouseover" end="arrowRight.mouseout"/>
                  </use>
                  <path fill="none" stroke="white" stroke-width="1.5" d="M0,-3.0v7 M-2.5,-0.5L0,-3.0L2.5,-0.5"/>
                </g>
                <g id="arrowDown" xlink:href="#dirArrow" transform="rotate(180) translate(-30 -48)" onmousedown="handlePan(0,1)">
                  <use xlink:href="#rim" fill="#404040">
                        <set attributeName="fill" to="#808080" begin="arrowDown.mouseover" end="arrowDown.mouseout"/>
                  </use>
                  <path fill="none" stroke="white" stroke-width="1.5" d="M0,-3.0v7 M-2.5,-0.5L0,-3.0L2.5,-0.5"/>
                </g>
                <g id="arrowLeft" xlink:href="#dirArrow" transform="rotate(270) translate(-36 17)" onmousedown="handlePan(-1,0)">
                  <use xlink:href="#rim" fill="#404040">
                        <set attributeName="fill" to="#808080" begin="arrowLeft.mouseover" end="arrowLeft.mouseout"/>
                  </use>
                  <path fill="none" stroke="white" stroke-width="1.5" d="M0,-3.0v7 M-2.5,-0.5L0,-3.0L2.5,-0.5"/>
                </g>
        </g>
        <svg viewBox="0 0 15 15" width="100%" height="30px" preserveAspectRatio="xMaxYMin meet">
         <g id="arrow_out" transform="scale(0.3 0.3)">
          <a xlink:href="State_8hpp__dep__incl_org.svg" target="_base">
           <rect id="button" ry="5" rx="5" y="6" x="6" height="38" width="38"
                fill="#f2f5e9" fill-opacity="0.5" stroke="#606060" stroke-width="1.0"/>
           <path id="arrow"
             d="M 11.500037,31.436501 C 11.940474,20.09759 22.043105,11.32322 32.158766,21.979434 L 37.068811,17.246167 C 37.068811,17.246167 37.088388,32 37.088388,32 L 22.160133,31.978069 C 22.160133,31.978069 26.997745,27.140456 26.997745,27.140456 C 18.528582,18.264221 13.291696,25.230495 11.500037,31.436501 z"
             style="fill:#404040;"/>
          </a>
         </g>
        </svg>
</svg>
