<?xml version="1.0" encoding="UTF-8" standalone="no"?>
<!DOCTYPE svg PUBLIC "-//W3C//DTD SVG 1.1//EN"
 "http://www.w3.org/Graphics/SVG/1.1/DTD/svg11.dtd">
<!-- Generated by graphviz version 2.43.0 (0)
 -->
<!-- Title: /__w/pairinteraction/pairinteraction/pairinteraction/StateOld.hpp Pages: 1 -->
<!--zoomable 518 -->
<svg id="main" version="1.1" xmlns="http://www.w3.org/2000/svg" xmlns:xlink="http://www.w3.org/1999/xlink" xml:space="preserve" onload="init(evt)">
<style type="text/css"><![CDATA[
.edge:hover path { stroke: red; }
.edge:hover polygon { stroke: red; fill: red; }
]]></style>
<script type="text/javascript"><![CDATA[
var edges = document.getElementsByTagName('g');
if (edges && edges.length) {
  for (var i=0;i<edges.length;i++) {
    if (edges[i].id.substr(0,4)=='edge') {
      edges[i].setAttribute('class','edge');
    }
  }
}
]]></script>
        <defs>
                <circle id="rim" cx="0" cy="0" r="7"/>
                <circle id="rim2" cx="0" cy="0" r="3.5"/>
                <g id="zoomPlus">
                        <use xlink:href="#rim" fill="#404040">
                                <set attributeName="fill" to="#808080" begin="zoomplus.mouseover" end="zoomplus.mouseout"/>
                        </use>
                        <path d="M-4,0h8M0,-4v8" fill="none" stroke="white" stroke-width="1.5" pointer-events="none"/>
                </g>
                <g id="zoomMin">
                        <use xlink:href="#rim" fill="#404040">
                                <set attributeName="fill" to="#808080" begin="zoomminus.mouseover" end="zoomminus.mouseout"/>
                        </use>
                        <path d="M-4,0h8" fill="none" stroke="white" stroke-width="1.5" pointer-events="none"/>
                </g>
                <g id="dirArrow">
                        <path fill="none" stroke="white" stroke-width="1.5" d="M0,-3.0v7 M-2.5,-0.5L0,-3.0L2.5,-0.5"/>
                </g>
               <g id="resetDef">
                       <use xlink:href="#rim2" fill="#404040">
                               <set attributeName="fill" to="#808080" begin="reset.mouseover" end="reset.mouseout"/>
                       </use>
               </g>
        </defs>

<script type="text/javascript">
var viewWidth = 1753;
var viewHeight = 518;
var sectionId = 'dynsection-1';
</script>
<script xlink:href="svgpan.js"/>
<svg id="graph" class="graph">
<g id="viewport">
<title>/__w/pairinteraction/pairinteraction/pairinteraction/StateOld.hpp</title>
<!-- Node1 -->
<g id="node1" class="node">
<title>Node1</title>
<g id="a_node1"><a xlink:title=" ">
<polygon fill="#bfbfbf" stroke="black" points="697,-468.5 697,-509.5 862,-509.5 862,-468.5 697,-468.5"/>
<text text-anchor="start" x="705" y="-497.5" font-family="Helvetica,sans-Serif" font-size="10.00">/__w/pairinteraction</text>
<text text-anchor="start" x="705" y="-486.5" font-family="Helvetica,sans-Serif" font-size="10.00">/pairinteraction/pairinteraction</text>
<text text-anchor="middle" x="779.5" y="-475.5" font-family="Helvetica,sans-Serif" font-size="10.00">/StateOld.hpp</text>
</a>
</g>
</g>
<!-- Node2 -->
<g id="node2" class="node">
<title>Node2</title>
<g id="a_node2"><a xlink:href="Basisnames_8hpp.html" target="_top" xlink:title=" ">
<polygon fill="none" stroke="black" points="642,-390.5 642,-431.5 807,-431.5 807,-390.5 642,-390.5"/>
<text text-anchor="start" x="650" y="-419.5" font-family="Helvetica,sans-Serif" font-size="10.00">/__w/pairinteraction</text>
<text text-anchor="start" x="650" y="-408.5" font-family="Helvetica,sans-Serif" font-size="10.00">/pairinteraction/pairinteraction</text>
<text text-anchor="middle" x="724.5" y="-397.5" font-family="Helvetica,sans-Serif" font-size="10.00">/Basisnames.hpp</text>
</a>
</g>
</g>
<!-- Node1&#45;&gt;Node2 -->
<g id="edge1" class="edge">
<title>Node1&#45;&gt;Node2</title>
<path fill="none" stroke="midnightblue" d="M759.27,-460.05C752.41,-450.57 744.9,-440.18 738.62,-431.51"/>
<polygon fill="midnightblue" stroke="midnightblue" points="756.64,-462.38 765.34,-468.43 762.31,-458.27 756.64,-462.38"/>
</g>
<!-- Node4 -->
<g id="node4" class="node">
<title>Node4</title>
<g id="a_node4"><a xlink:href="Hamiltonianmatrix_8hpp.html" target="_top" xlink:title=" ">
<polygon fill="none" stroke="black" points="1101,-312.5 1101,-353.5 1266,-353.5 1266,-312.5 1101,-312.5"/>
<text text-anchor="start" x="1109" y="-341.5" font-family="Helvetica,sans-Serif" font-size="10.00">/__w/pairinteraction</text>
<text text-anchor="start" x="1109" y="-330.5" font-family="Helvetica,sans-Serif" font-size="10.00">/pairinteraction/pairinteraction</text>
<text text-anchor="middle" x="1183.5" y="-319.5" font-family="Helvetica,sans-Serif" font-size="10.00">/Hamiltonianmatrix.hpp</text>
</a>
</g>
</g>
<!-- Node1&#45;&gt;Node4 -->
<g id="edge27" class="edge">
<title>Node1&#45;&gt;Node4</title>
<path fill="none" stroke="midnightblue" d="M797.87,-459.48C815.02,-433.78 840.06,-398.72 854.5,-390 894.93,-365.6 1017.25,-349.57 1100.79,-341.14"/>
<polygon fill="midnightblue" stroke="midnightblue" points="794.75,-457.85 792.17,-468.12 800.6,-461.71 794.75,-457.85"/>
</g>
<!-- Node20 -->
<g id="node20" class="node">
<title>Node20</title>
<g id="a_node20"><a xlink:href="MatrixElements_8hpp.html" target="_top" xlink:title=" ">
<polygon fill="none" stroke="black" points="17,-312.5 17,-353.5 182,-353.5 182,-312.5 17,-312.5"/>
<text text-anchor="start" x="25" y="-341.5" font-family="Helvetica,sans-Serif" font-size="10.00">/__w/pairinteraction</text>
<text text-anchor="start" x="25" y="-330.5" font-family="Helvetica,sans-Serif" font-size="10.00">/pairinteraction/pairinteraction</text>
<text text-anchor="middle" x="99.5" y="-319.5" font-family="Helvetica,sans-Serif" font-size="10.00">/MatrixElements.hpp</text>
</a>
</g>
</g>
<!-- Node1&#45;&gt;Node20 -->
<g id="edge28" class="edge">
<title>Node1&#45;&gt;Node20</title>
<path fill="none" stroke="midnightblue" d="M687,-467.05C553.73,-436.87 309.72,-381.61 182.16,-352.72"/>
<polygon fill="midnightblue" stroke="midnightblue" points="686.27,-470.48 696.8,-469.27 687.82,-463.65 686.27,-470.48"/>
</g>
<!-- Node22 -->
<g id="node22" class="node">
<title>Node22</title>
<g id="a_node22"><a xlink:href="StateOld_8cpp.html" target="_top" xlink:title=" ">
<polygon fill="none" stroke="black" points="864,-390.5 864,-431.5 1029,-431.5 1029,-390.5 864,-390.5"/>
<text text-anchor="start" x="872" y="-419.5" font-family="Helvetica,sans-Serif" font-size="10.00">/__w/pairinteraction</text>
<text text-anchor="start" x="872" y="-408.5" font-family="Helvetica,sans-Serif" font-size="10.00">/pairinteraction/pairinteraction</text>
<text text-anchor="middle" x="946.5" y="-397.5" font-family="Helvetica,sans-Serif" font-size="10.00">/StateOld.cpp</text>
</a>
</g>
</g>
<!-- Node1&#45;&gt;Node22 -->
<g id="edge29" class="edge">
<title>Node1&#45;&gt;Node22</title>
<path fill="none" stroke="midnightblue" d="M831.82,-464.19C854.92,-453.67 881.75,-441.47 903.64,-431.51"/>
<polygon fill="midnightblue" stroke="midnightblue" points="830.16,-461.1 822.51,-468.43 833.06,-467.47 830.16,-461.1"/>
</g>
<!-- Node3 -->
<g id="node3" class="node">
<title>Node3</title>
<g id="a_node3"><a xlink:href="Basisnames_8cpp.html" target="_top" xlink:title=" ">
<polygon fill="none" stroke="black" points="551,-312.5 551,-353.5 716,-353.5 716,-312.5 551,-312.5"/>
<text text-anchor="start" x="559" y="-341.5" font-family="Helvetica,sans-Serif" font-size="10.00">/__w/pairinteraction</text>
<text text-anchor="start" x="559" y="-330.5" font-family="Helvetica,sans-Serif" font-size="10.00">/pairinteraction/pairinteraction</text>
<text text-anchor="middle" x="633.5" y="-319.5" font-family="Helvetica,sans-Serif" font-size="10.00">/Basisnames.cpp</text>
</a>
</g>
</g>
<!-- Node2&#45;&gt;Node3 -->
<g id="edge2" class="edge">
<title>Node2&#45;&gt;Node3</title>
<path fill="none" stroke="midnightblue" d="M693.1,-383.78C681.21,-373.84 667.88,-362.72 656.86,-353.51"/>
<polygon fill="midnightblue" stroke="midnightblue" points="691.15,-386.7 701.07,-390.43 695.63,-381.33 691.15,-386.7"/>
</g>
<!-- Node2&#45;&gt;Node4 -->
<g id="edge3" class="edge">
<title>Node2&#45;&gt;Node4</title>
<path fill="none" stroke="midnightblue" d="M817.1,-390.8C818.58,-390.53 820.05,-390.26 821.5,-390 917.1,-372.76 1027.5,-356.16 1101,-345.57"/>
<polygon fill="midnightblue" stroke="midnightblue" points="816.44,-387.36 807.26,-392.65 817.73,-394.24 816.44,-387.36"/>
</g>
<!-- Node6 -->
<g id="node6" class="node">
<title>Node6</title>
<g id="a_node6"><a xlink:href="HamiltonianOne_8hpp.html" target="_top" xlink:title=" ">
<polygon fill="none" stroke="black" points="55,-156.5 55,-197.5 220,-197.5 220,-156.5 55,-156.5"/>
<text text-anchor="start" x="63" y="-185.5" font-family="Helvetica,sans-Serif" font-size="10.00">/__w/pairinteraction</text>
<text text-anchor="start" x="63" y="-174.5" font-family="Helvetica,sans-Serif" font-size="10.00">/pairinteraction/pairinteraction</text>
<text text-anchor="middle" x="137.5" y="-163.5" font-family="Helvetica,sans-Serif" font-size="10.00">/HamiltonianOne.hpp</text>
</a>
</g>
</g>
<!-- Node2&#45;&gt;Node6 -->
<g id="edge13" class="edge">
<title>Node2&#45;&gt;Node6</title>
<path fill="none" stroke="midnightblue" d="M632.06,-393.13C537.08,-373.49 386.66,-335.87 267.5,-276 225.32,-254.81 182.85,-219.56 158.42,-197.61"/>
<polygon fill="midnightblue" stroke="midnightblue" points="631.44,-396.58 641.94,-395.15 632.84,-389.72 631.44,-396.58"/>
</g>
<!-- Node8 -->
<g id="node8" class="node">
<title>Node8</title>
<g id="a_node8"><a xlink:href="HamiltonianTwo_8hpp.html" target="_top" xlink:title=" ">
<polygon fill="none" stroke="black" points="258,-78.5 258,-119.5 423,-119.5 423,-78.5 258,-78.5"/>
<text text-anchor="start" x="266" y="-107.5" font-family="Helvetica,sans-Serif" font-size="10.00">/__w/pairinteraction</text>
<text text-anchor="start" x="266" y="-96.5" font-family="Helvetica,sans-Serif" font-size="10.00">/pairinteraction/pairinteraction</text>
<text text-anchor="middle" x="340.5" y="-85.5" font-family="Helvetica,sans-Serif" font-size="10.00">/HamiltonianTwo.hpp</text>
</a>
</g>
</g>
<!-- Node2&#45;&gt;Node8 -->
<g id="edge14" class="edge">
<title>Node2&#45;&gt;Node8</title>
<path fill="none" stroke="midnightblue" d="M817.24,-394.96C829.75,-393.15 842.42,-391.44 854.5,-390 1051.26,-366.46 1855.3,-389.53 1732.5,-234 1651.02,-130.8 710.71,-106.31 423.38,-101.21"/>
<polygon fill="midnightblue" stroke="midnightblue" points="816.65,-391.5 807.26,-396.42 817.66,-398.43 816.65,-391.5"/>
</g>
<!-- Node12 -->
<g id="node12" class="node">
<title>Node12</title>
<g id="a_node12"><a xlink:href="MatrixElementCache_8hpp.html" target="_top" xlink:title=" ">
<polygon fill="none" stroke="black" points="734,-312.5 734,-353.5 899,-353.5 899,-312.5 734,-312.5"/>
<text text-anchor="start" x="742" y="-341.5" font-family="Helvetica,sans-Serif" font-size="10.00">/__w/pairinteraction</text>
<text text-anchor="start" x="742" y="-330.5" font-family="Helvetica,sans-Serif" font-size="10.00">/pairinteraction/pairinteraction</text>
<text text-anchor="middle" x="816.5" y="-319.5" font-family="Helvetica,sans-Serif" font-size="10.00">/MatrixElementCache.hpp</text>
</a>
</g>
</g>
<!-- Node2&#45;&gt;Node12 -->
<g id="edge15" class="edge">
<title>Node2&#45;&gt;Node12</title>
<path fill="none" stroke="midnightblue" d="M756.24,-383.78C768.27,-373.84 781.74,-362.72 792.89,-353.51"/>
<polygon fill="midnightblue" stroke="midnightblue" points="753.67,-381.36 748.19,-390.43 758.13,-386.76 753.67,-381.36"/>
</g>
<!-- Node2&#45;&gt;Node20 -->
<g id="edge23" class="edge">
<title>Node2&#45;&gt;Node20</title>
<path fill="none" stroke="midnightblue" d="M631.86,-402.93C526.15,-394.23 348.27,-377.64 196.5,-354 191.83,-353.27 187.04,-352.47 182.22,-351.62"/>
<polygon fill="midnightblue" stroke="midnightblue" points="631.61,-406.42 641.86,-403.75 632.18,-399.45 631.61,-406.42"/>
</g>
<!-- Node5 -->
<g id="node5" class="node">
<title>Node5</title>
<g id="a_node5"><a xlink:href="Hamiltonian_8hpp.html" target="_top" xlink:title=" ">
<polygon fill="none" stroke="black" points="1375,-234.5 1375,-275.5 1540,-275.5 1540,-234.5 1375,-234.5"/>
<text text-anchor="start" x="1383" y="-263.5" font-family="Helvetica,sans-Serif" font-size="10.00">/__w/pairinteraction</text>
<text text-anchor="start" x="1383" y="-252.5" font-family="Helvetica,sans-Serif" font-size="10.00">/pairinteraction/pairinteraction</text>
<text text-anchor="middle" x="1457.5" y="-241.5" font-family="Helvetica,sans-Serif" font-size="10.00">/Hamiltonian.hpp</text>
</a>
</g>
</g>
<!-- Node4&#45;&gt;Node5 -->
<g id="edge4" class="edge">
<title>Node4&#45;&gt;Node5</title>
<path fill="none" stroke="midnightblue" d="M1263.83,-309.72C1302.93,-298.87 1349.5,-285.96 1387.18,-275.51"/>
<polygon fill="midnightblue" stroke="midnightblue" points="1262.76,-306.38 1254.06,-312.43 1264.63,-313.13 1262.76,-306.38"/>
</g>
<!-- Node11 -->
<g id="node11" class="node">
<title>Node11</title>
<g id="a_node11"><a xlink:href="Hamiltonianmatrix_8cpp.html" target="_top" xlink:title=" ">
<polygon fill="none" stroke="black" points="1558,-234.5 1558,-275.5 1723,-275.5 1723,-234.5 1558,-234.5"/>
<text text-anchor="start" x="1566" y="-263.5" font-family="Helvetica,sans-Serif" font-size="10.00">/__w/pairinteraction</text>
<text text-anchor="start" x="1566" y="-252.5" font-family="Helvetica,sans-Serif" font-size="10.00">/pairinteraction/pairinteraction</text>
<text text-anchor="middle" x="1640.5" y="-241.5" font-family="Helvetica,sans-Serif" font-size="10.00">/Hamiltonianmatrix.cpp</text>
</a>
</g>
</g>
<!-- Node4&#45;&gt;Node11 -->
<g id="edge12" class="edge">
<title>Node4&#45;&gt;Node11</title>
<path fill="none" stroke="midnightblue" d="M1276.49,-319.46C1350.63,-309.06 1457,-293.22 1549.5,-276 1552.2,-275.5 1554.95,-274.97 1557.72,-274.43"/>
<polygon fill="midnightblue" stroke="midnightblue" points="1275.67,-316.04 1266.25,-320.89 1276.64,-322.97 1275.67,-316.04"/>
</g>
<!-- Node5&#45;&gt;Node6 -->
<g id="edge5" class="edge">
<title>Node5&#45;&gt;Node6</title>
<path fill="none" stroke="midnightblue" d="M1364.75,-234.06C1123.87,-204.44 455.12,-185.79 220.25,-179.95"/>
<polygon fill="midnightblue" stroke="midnightblue" points="1364.5,-237.56 1374.86,-235.35 1365.38,-230.62 1364.5,-237.56"/>
</g>
<!-- Node5&#45;&gt;Node8 -->
<g id="edge11" class="edge">
<title>Node5&#45;&gt;Node8</title>
<path fill="none" stroke="midnightblue" d="M1440.09,-225.86C1423.93,-202.56 1397.58,-170.94 1365.5,-156 1281.13,-116.72 652.07,-104.26 423.34,-101"/>
<polygon fill="midnightblue" stroke="midnightblue" points="1437.29,-227.98 1445.77,-234.33 1443.11,-224.08 1437.29,-227.98"/>
</g>
<!-- Node7 -->
<g id="node7" class="node">
<title>Node7</title>
<g id="a_node7"><a xlink:href="HamiltonianOne_8cpp.html" target="_top" xlink:title=" ">
<polygon fill="none" stroke="black" points="0,-78.5 0,-119.5 165,-119.5 165,-78.5 0,-78.5"/>
<text text-anchor="start" x="8" y="-107.5" font-family="Helvetica,sans-Serif" font-size="10.00">/__w/pairinteraction</text>
<text text-anchor="start" x="8" y="-96.5" font-family="Helvetica,sans-Serif" font-size="10.00">/pairinteraction/pairinteraction</text>
<text text-anchor="middle" x="82.5" y="-85.5" font-family="Helvetica,sans-Serif" font-size="10.00">/HamiltonianOne.cpp</text>
</a>
</g>
</g>
<!-- Node6&#45;&gt;Node7 -->
<g id="edge6" class="edge">
<title>Node6&#45;&gt;Node7</title>
<path fill="none" stroke="midnightblue" d="M117.27,-148.05C110.41,-138.57 102.9,-128.18 96.62,-119.51"/>
<polygon fill="midnightblue" stroke="midnightblue" points="114.64,-150.38 123.34,-156.43 120.31,-146.27 114.64,-150.38"/>
</g>
<!-- Node6&#45;&gt;Node8 -->
<g id="edge7" class="edge">
<title>Node6&#45;&gt;Node8</title>
<path fill="none" stroke="midnightblue" d="M199.24,-152.89C227.73,-142.22 261.2,-129.69 288.4,-119.51"/>
<polygon fill="midnightblue" stroke="midnightblue" points="197.92,-149.64 189.78,-156.43 200.37,-156.2 197.92,-149.64"/>
</g>
<!-- Node10 -->
<g id="node10" class="node">
<title>Node10</title>
<g id="a_node10"><a xlink:href="Interface_8cpp.html" target="_top" xlink:title=" ">
<polygon fill="none" stroke="black" points="111,-0.5 111,-41.5 276,-41.5 276,-0.5 111,-0.5"/>
<text text-anchor="start" x="119" y="-29.5" font-family="Helvetica,sans-Serif" font-size="10.00">/__w/pairinteraction</text>
<text text-anchor="start" x="119" y="-18.5" font-family="Helvetica,sans-Serif" font-size="10.00">/pairinteraction/pairinteraction</text>
<text text-anchor="middle" x="193.5" y="-7.5" font-family="Helvetica,sans-Serif" font-size="10.00">/Interface.cpp</text>
</a>
</g>
</g>
<!-- Node6&#45;&gt;Node10 -->
<g id="edge10" class="edge">
<title>Node6&#45;&gt;Node10</title>
<path fill="none" stroke="midnightblue" d="M158.51,-147.78C164.08,-139.21 169.62,-129.54 173.5,-120 184.03,-94.1 189.23,-62.02 191.63,-41.77"/>
<polygon fill="midnightblue" stroke="midnightblue" points="155.48,-146.02 152.76,-156.26 161.27,-149.95 155.48,-146.02"/>
</g>
<!-- Node9 -->
<g id="node9" class="node">
<title>Node9</title>
<g id="a_node9"><a xlink:href="HamiltonianTwo_8cpp.html" target="_top" xlink:title=" ">
<polygon fill="none" stroke="black" points="294,-0.5 294,-41.5 459,-41.5 459,-0.5 294,-0.5"/>
<text text-anchor="start" x="302" y="-29.5" font-family="Helvetica,sans-Serif" font-size="10.00">/__w/pairinteraction</text>
<text text-anchor="start" x="302" y="-18.5" font-family="Helvetica,sans-Serif" font-size="10.00">/pairinteraction/pairinteraction</text>
<text text-anchor="middle" x="376.5" y="-7.5" font-family="Helvetica,sans-Serif" font-size="10.00">/HamiltonianTwo.cpp</text>
</a>
</g>
</g>
<!-- Node8&#45;&gt;Node9 -->
<g id="edge8" class="edge">
<title>Node8&#45;&gt;Node9</title>
<path fill="none" stroke="midnightblue" d="M354.15,-69.17C358.53,-59.93 363.28,-49.92 367.26,-41.51"/>
<polygon fill="midnightblue" stroke="midnightblue" points="350.89,-67.89 349.77,-78.43 357.21,-70.89 350.89,-67.89"/>
</g>
<!-- Node8&#45;&gt;Node10 -->
<g id="edge9" class="edge">
<title>Node8&#45;&gt;Node10</title>
<path fill="none" stroke="midnightblue" d="M293.63,-73.77C273.48,-63.35 250.24,-51.34 231.23,-41.51"/>
<polygon fill="midnightblue" stroke="midnightblue" points="292.15,-76.94 302.64,-78.43 295.37,-70.73 292.15,-76.94"/>
</g>
<!-- Node13 -->
<g id="node13" class="node">
<title>Node13</title>
<g id="a_node13"><a xlink:href="MatrixElementCache_8cpp.html" target="_top" xlink:title=" ">
<polygon fill="none" stroke="black" points="643,-234.5 643,-275.5 808,-275.5 808,-234.5 643,-234.5"/>
<text text-anchor="start" x="651" y="-263.5" font-family="Helvetica,sans-Serif" font-size="10.00">/__w/pairinteraction</text>
<text text-anchor="start" x="651" y="-252.5" font-family="Helvetica,sans-Serif" font-size="10.00">/pairinteraction/pairinteraction</text>
<text text-anchor="middle" x="725.5" y="-241.5" font-family="Helvetica,sans-Serif" font-size="10.00">/MatrixElementCache.cpp</text>
</a>
</g>
</g>
<!-- Node12&#45;&gt;Node13 -->
<g id="edge16" class="edge">
<title>Node12&#45;&gt;Node13</title>
<path fill="none" stroke="midnightblue" d="M785.1,-305.78C773.21,-295.84 759.88,-284.72 748.86,-275.51"/>
<polygon fill="midnightblue" stroke="midnightblue" points="783.15,-308.7 793.07,-312.43 787.63,-303.33 783.15,-308.7"/>
</g>
<!-- Node14 -->
<g id="node14" class="node">
<title>Node14</title>
<g id="a_node14"><a xlink:href="PerturbativeInteraction_8hpp.html" target="_top" xlink:title=" ">
<polygon fill="none" stroke="black" points="1192,-234.5 1192,-275.5 1357,-275.5 1357,-234.5 1192,-234.5"/>
<text text-anchor="start" x="1200" y="-263.5" font-family="Helvetica,sans-Serif" font-size="10.00">/__w/pairinteraction</text>
<text text-anchor="start" x="1200" y="-252.5" font-family="Helvetica,sans-Serif" font-size="10.00">/pairinteraction/pairinteraction</text>
<text text-anchor="middle" x="1274.5" y="-241.5" font-family="Helvetica,sans-Serif" font-size="10.00">/PerturbativeInteraction.hpp</text>
</a>
</g>
</g>
<!-- Node12&#45;&gt;Node14 -->
<g id="edge17" class="edge">
<title>Node12&#45;&gt;Node14</title>
<path fill="none" stroke="midnightblue" d="M909.48,-319.4C983.62,-308.97 1089.98,-293.12 1182.5,-276 1185.55,-275.44 1188.66,-274.84 1191.8,-274.23"/>
<polygon fill="midnightblue" stroke="midnightblue" points="908.66,-315.98 899.24,-320.84 909.63,-322.92 908.66,-315.98"/>
</g>
<!-- Node16 -->
<g id="node16" class="node">
<title>Node16</title>
<g id="a_node16"><a xlink:href="State_8cpp.html" target="_top" xlink:title=" ">
<polygon fill="none" stroke="black" points="826,-234.5 826,-275.5 991,-275.5 991,-234.5 826,-234.5"/>
<text text-anchor="start" x="834" y="-263.5" font-family="Helvetica,sans-Serif" font-size="10.00">/__w/pairinteraction</text>
<text text-anchor="start" x="834" y="-252.5" font-family="Helvetica,sans-Serif" font-size="10.00">/pairinteraction/pairinteraction</text>
<text text-anchor="middle" x="908.5" y="-241.5" font-family="Helvetica,sans-Serif" font-size="10.00">/State.cpp</text>
</a>
</g>
</g>
<!-- Node12&#45;&gt;Node16 -->
<g id="edge19" class="edge">
<title>Node12&#45;&gt;Node16</title>
<path fill="none" stroke="midnightblue" d="M848.24,-305.78C860.27,-295.84 873.74,-284.72 884.89,-275.51"/>
<polygon fill="midnightblue" stroke="midnightblue" points="845.67,-303.36 840.19,-312.43 850.13,-308.76 845.67,-303.36"/>
</g>
<!-- Node17 -->
<g id="node17" class="node">
<title>Node17</title>
<g id="a_node17"><a xlink:href="SystemOne_8cpp.html" target="_top" xlink:title=" ">
<polygon fill="none" stroke="black" points="1009,-234.5 1009,-275.5 1174,-275.5 1174,-234.5 1009,-234.5"/>
<text text-anchor="start" x="1017" y="-263.5" font-family="Helvetica,sans-Serif" font-size="10.00">/__w/pairinteraction</text>
<text text-anchor="start" x="1017" y="-252.5" font-family="Helvetica,sans-Serif" font-size="10.00">/pairinteraction/pairinteraction</text>
<text text-anchor="middle" x="1091.5" y="-241.5" font-family="Helvetica,sans-Serif" font-size="10.00">/SystemOne.cpp</text>
</a>
</g>
</g>
<!-- Node12&#45;&gt;Node17 -->
<g id="edge20" class="edge">
<title>Node12&#45;&gt;Node17</title>
<path fill="none" stroke="midnightblue" d="M897.12,-309.72C936.36,-298.87 983.11,-285.96 1020.92,-275.51"/>
<polygon fill="midnightblue" stroke="midnightblue" points="896.03,-306.39 887.32,-312.43 897.89,-313.14 896.03,-306.39"/>
</g>
<!-- Node18 -->
<g id="node18" class="node">
<title>Node18</title>
<g id="a_node18"><a xlink:href="SystemTwo_8cpp.html" target="_top" xlink:title=" ">
<polygon fill="none" stroke="black" points="277,-234.5 277,-275.5 442,-275.5 442,-234.5 277,-234.5"/>
<text text-anchor="start" x="285" y="-263.5" font-family="Helvetica,sans-Serif" font-size="10.00">/__w/pairinteraction</text>
<text text-anchor="start" x="285" y="-252.5" font-family="Helvetica,sans-Serif" font-size="10.00">/pairinteraction/pairinteraction</text>
<text text-anchor="middle" x="359.5" y="-241.5" font-family="Helvetica,sans-Serif" font-size="10.00">/SystemTwo.cpp</text>
</a>
</g>
</g>
<!-- Node12&#45;&gt;Node18 -->
<g id="edge21" class="edge">
<title>Node12&#45;&gt;Node18</title>
<path fill="none" stroke="midnightblue" d="M723.71,-311.94C601.75,-291.25 568.29,-296.64 450.5,-276 447.79,-275.53 445.04,-275.03 442.27,-274.51"/>
<polygon fill="midnightblue" stroke="midnightblue" points="723.36,-315.44 733.81,-313.68 724.55,-308.54 723.36,-315.44"/>
</g>
<!-- Node19 -->
<g id="node19" class="node">
<title>Node19</title>
<g id="a_node19"><a xlink:href="integration__test_8cpp.html" target="_top" xlink:title=" ">
<polygon fill="none" stroke="black" points="460,-234.5 460,-275.5 625,-275.5 625,-234.5 460,-234.5"/>
<text text-anchor="start" x="468" y="-263.5" font-family="Helvetica,sans-Serif" font-size="10.00">/__w/pairinteraction</text>
<text text-anchor="start" x="468" y="-252.5" font-family="Helvetica,sans-Serif" font-size="10.00">/pairinteraction/pairinteraction</text>
<text text-anchor="middle" x="542.5" y="-241.5" font-family="Helvetica,sans-Serif" font-size="10.00">/unit_test/integration_test.cpp</text>
</a>
</g>
</g>
<!-- Node12&#45;&gt;Node19 -->
<g id="edge22" class="edge">
<title>Node12&#45;&gt;Node19</title>
<path fill="none" stroke="midnightblue" d="M736.17,-309.72C697.07,-298.87 650.5,-285.96 612.82,-275.51"/>
<polygon fill="midnightblue" stroke="midnightblue" points="735.37,-313.13 745.94,-312.43 737.24,-306.38 735.37,-313.13"/>
</g>
<!-- Node15 -->
<g id="node15" class="node">
<title>Node15</title>
<g id="a_node15"><a xlink:href="PerturbativeInteraction_8cpp.html" target="_top" xlink:title=" ">
<polygon fill="none" stroke="black" points="1192,-156.5 1192,-197.5 1357,-197.5 1357,-156.5 1192,-156.5"/>
<text text-anchor="start" x="1200" y="-185.5" font-family="Helvetica,sans-Serif" font-size="10.00">/__w/pairinteraction</text>
<text text-anchor="start" x="1200" y="-174.5" font-family="Helvetica,sans-Serif" font-size="10.00">/pairinteraction/pairinteraction</text>
<text text-anchor="middle" x="1274.5" y="-163.5" font-family="Helvetica,sans-Serif" font-size="10.00">/PerturbativeInteraction.cpp</text>
</a>
</g>
</g>
<!-- Node14&#45;&gt;Node15 -->
<g id="edge18" class="edge">
<title>Node14&#45;&gt;Node15</title>
<path fill="none" stroke="midnightblue" d="M1274.5,-224.3C1274.5,-215.3 1274.5,-205.65 1274.5,-197.51"/>
<polygon fill="midnightblue" stroke="midnightblue" points="1271,-224.43 1274.5,-234.43 1278,-224.43 1271,-224.43"/>
</g>
<!-- Node20&#45;&gt;Node6 -->
<g id="edge24" class="edge">
<title>Node20&#45;&gt;Node6</title>
<path fill="none" stroke="midnightblue" d="M38.67,-307.12C26.21,-299.09 14.72,-288.85 7.5,-276 -1.65,-259.73 -2.76,-249.59 7.5,-234 18.71,-216.96 36.32,-205.08 55,-196.81"/>
<polygon fill="midnightblue" stroke="midnightblue" points="37.02,-310.21 47.4,-312.33 40.6,-304.2 37.02,-310.21"/>
</g>
<!-- Node20&#45;&gt;Node8 -->
<g id="edge25" class="edge">
<title>Node20&#45;&gt;Node8</title>
<path fill="none" stroke="midnightblue" d="M146.22,-307.08C161.06,-298.18 177.08,-287.49 190.5,-276 248.13,-226.64 302.42,-154.23 326.9,-119.71"/>
<polygon fill="midnightblue" stroke="midnightblue" points="144.03,-304.31 137.16,-312.38 147.56,-310.35 144.03,-304.31"/>
</g>
<!-- Node21 -->
<g id="node21" class="node">
<title>Node21</title>
<g id="a_node21"><a xlink:href="MatrixElements_8cpp.html" target="_top" xlink:title=" ">
<polygon fill="none" stroke="black" points="17,-234.5 17,-275.5 182,-275.5 182,-234.5 17,-234.5"/>
<text text-anchor="start" x="25" y="-263.5" font-family="Helvetica,sans-Serif" font-size="10.00">/__w/pairinteraction</text>
<text text-anchor="start" x="25" y="-252.5" font-family="Helvetica,sans-Serif" font-size="10.00">/pairinteraction/pairinteraction</text>
<text text-anchor="middle" x="99.5" y="-241.5" font-family="Helvetica,sans-Serif" font-size="10.00">/MatrixElements.cpp</text>
</a>
</g>
</g>
<!-- Node20&#45;&gt;Node21 -->
<g id="edge26" class="edge">
<title>Node20&#45;&gt;Node21</title>
<path fill="none" stroke="midnightblue" d="M99.5,-302.3C99.5,-293.3 99.5,-283.65 99.5,-275.51"/>
<polygon fill="midnightblue" stroke="midnightblue" points="96,-302.43 99.5,-312.43 103,-302.43 96,-302.43"/>
</g>
</g>
</svg>
        <g id="navigator" transform="translate(0 0)" fill="#404254">
                <rect fill="#f2f5e9" fill-opacity="0.5" stroke="#606060" stroke-width=".5" x="0" y="0" width="60" height="60"/>
                <use id="zoomplus" xlink:href="#zoomPlus" x="17" y="9" onmousedown="handleZoom(evt,'in')"/>
                <use id="zoomminus" xlink:href="#zoomMin" x="42" y="9" onmousedown="handleZoom(evt,'out')"/>
                <use id="reset" xlink:href="#resetDef" x="30" y="36" onmousedown="handleReset()"/>
                <g id="arrowUp" xlink:href="#dirArrow" transform="translate(30 24)" onmousedown="handlePan(0,-1)">
                  <use xlink:href="#rim" fill="#404040">
                        <set attributeName="fill" to="#808080" begin="arrowUp.mouseover" end="arrowUp.mouseout"/>
                  </use>
                  <path fill="none" stroke="white" stroke-width="1.5" d="M0,-3.0v7 M-2.5,-0.5L0,-3.0L2.5,-0.5"/>
                </g>
                <g id="arrowRight" xlink:href="#dirArrow" transform="rotate(90) translate(36 -43)" onmousedown="handlePan(1,0)">
                  <use xlink:href="#rim" fill="#404040">
                        <set attributeName="fill" to="#808080" begin="arrowRight.mouseover" end="arrowRight.mouseout"/>
                  </use>
                  <path fill="none" stroke="white" stroke-width="1.5" d="M0,-3.0v7 M-2.5,-0.5L0,-3.0L2.5,-0.5"/>
                </g>
                <g id="arrowDown" xlink:href="#dirArrow" transform="rotate(180) translate(-30 -48)" onmousedown="handlePan(0,1)">
                  <use xlink:href="#rim" fill="#404040">
                        <set attributeName="fill" to="#808080" begin="arrowDown.mouseover" end="arrowDown.mouseout"/>
                  </use>
                  <path fill="none" stroke="white" stroke-width="1.5" d="M0,-3.0v7 M-2.5,-0.5L0,-3.0L2.5,-0.5"/>
                </g>
                <g id="arrowLeft" xlink:href="#dirArrow" transform="rotate(270) translate(-36 17)" onmousedown="handlePan(-1,0)">
                  <use xlink:href="#rim" fill="#404040">
                        <set attributeName="fill" to="#808080" begin="arrowLeft.mouseover" end="arrowLeft.mouseout"/>
                  </use>
                  <path fill="none" stroke="white" stroke-width="1.5" d="M0,-3.0v7 M-2.5,-0.5L0,-3.0L2.5,-0.5"/>
                </g>
        </g>
        <svg viewBox="0 0 15 15" width="100%" height="30px" preserveAspectRatio="xMaxYMin meet">
         <g id="arrow_out" transform="scale(0.3 0.3)">
          <a xlink:href="StateOld_8hpp__dep__incl_org.svg" target="_base">
           <rect id="button" ry="5" rx="5" y="6" x="6" height="38" width="38"
                fill="#f2f5e9" fill-opacity="0.5" stroke="#606060" stroke-width="1.0"/>
           <path id="arrow"
             d="M 11.500037,31.436501 C 11.940474,20.09759 22.043105,11.32322 32.158766,21.979434 L 37.068811,17.246167 C 37.068811,17.246167 37.088388,32 37.088388,32 L 22.160133,31.978069 C 22.160133,31.978069 26.997745,27.140456 26.997745,27.140456 C 18.528582,18.264221 13.291696,25.230495 11.500037,31.436501 z"
             style="fill:#404040;"/>
          </a>
         </g>
        </svg>
</svg>
